SplineFontDB: 3.0
FontName: Sanchez-Italic
FullName: Sanchez Italic
FamilyName: Sanchez
Weight: Book
Copyright: Copyright (c) 2012, LatinoType (www.latinotype.com), with Reserved Font Name 'Sanchez'
Version: 1.001
ItalicAngle: 0
UnderlinePosition: -50
UnderlineWidth: 50
Ascent: 800
Descent: 200
sfntRevision: 0x00010042
LayerCount: 2
Layer: 0 1 "Back"  1
Layer: 1 1 "Fore"  0
XUID: [1021 110 1465396850 638639]
FSType: 0
OS2Version: 3
OS2_WeightWidthSlopeOnly: 0
OS2_UseTypoMetrics: 1
CreationTime: 1315854060
ModificationTime: 1349496249
PfmFamily: 81
TTFWeight: 400
TTFWidth: 5
LineGap: 0
VLineGap: 0
Panose: 0 0 0 0 0 0 0 0 0 0
OS2TypoAscent: 1004
OS2TypoAOffset: 0
OS2TypoDescent: -274
OS2TypoDOffset: 0
OS2TypoLinegap: 0
OS2WinAscent: 1004
OS2WinAOffset: 0
OS2WinDescent: 274
OS2WinDOffset: 0
HheadAscent: 1004
HheadAOffset: 0
HheadDescent: -274
HheadDOffset: 0
OS2SubXSize: 650
OS2SubYSize: 600
OS2SubXOff: 0
OS2SubYOff: 75
OS2SupXSize: 650
OS2SupYSize: 600
OS2SupXOff: 0
OS2SupYOff: 350
OS2StrikeYSize: 50
OS2StrikeYPos: 295
OS2Vendor: 'pyrs'
OS2CodePages: 20000093.00000000
OS2UnicodeRanges: a000002f.4000005a.00000000.00000000
Lookup: 1 0 0 "'aalt' Access All Alternates lookup 0"  {"'aalt' Access All Alternates lookup 0 subtable"  } ['aalt' ('DFLT' <'dflt' > ) ]
Lookup: 4 0 1 "'liga' Standard Ligatures lookup 1"  {"'liga' Standard Ligatures lookup 1 subtable"  } ['liga' ('DFLT' <'dflt' > ) ]
Lookup: 1 0 0 "'salt' Stylistic Alternatives lookup 2"  {"'salt' Stylistic Alternatives lookup 2 subtable"  } ['salt' ('DFLT' <'dflt' > ) ]
Lookup: 258 0 0 "'kern' Horizontal Kerning lookup 0"  {"'kern' Horizontal Kerning lookup 0 per glyph data 0"  "'kern' Horizontal Kerning lookup 0 kerning class 1"  } ['kern' ('DFLT' <'dflt' > ) ]
DEI: 91125
KernClass2: 40+ 29 "'kern' Horizontal Kerning lookup 0 kerning class 1" 

StartChar: exclam
Encoding: 33 33 4
Width: 182
GlyphClass: 2
Flags: W
LayerCount: 2
Fore
SplineSet
142 148 m 2,0,-1
 82 148 l 2,1,2
 70 148 70 148 71 160 c 2,3,-1
 154 748 l 2,4,5
 156 760 156 760 168 760 c 2,6,-1
 228 760 l 2,7,8
 240 760 240 760 238 748 c 2,9,-1
 155 160 l 2,10,11
 154 148 154 148 142 148 c 2,0,-1
132.5 43.5 m 128,-1,13
 146 30 146 30 146 8 c 128,-1,14
 146 -14 146 -14 127 -31.5 c 128,-1,15
 108 -49 108 -49 86 -49 c 128,-1,16
 64 -49 64 -49 51 -35.5 c 128,-1,17
 38 -22 38 -22 38 0 c 128,-1,18
 38 22 38 22 56.5 39.5 c 128,-1,19
 75 57 75 57 97 57 c 128,-1,12
 119 57 119 57 132.5 43.5 c 128,-1,13
EndSplineSet
EndChar

StartChar: quotedbl
Encoding: 34 34 5
Width: 278
GlyphClass: 2
Flags: W
LayerCount: 2
Fore
SplineSet
169 561 m 2,0,-1
 135 561 l 2,1,2
 122 561 122 561 124 574 c 2,3,-1
 142 737 l 2,4,5
 144 750 144 750 157 750 c 2,6,-1
 201 750 l 2,7,8
 214 750 214 750 212 737 c 2,9,-1
 184 574 l 2,10,11
 182 561 182 561 169 561 c 2,0,-1
300 561 m 2,12,-1
 267 561 l 2,13,14
 253 561 253 561 255 574 c 2,15,-1
 274 737 l 2,16,17
 276 750 276 750 289 750 c 2,18,-1
 332 750 l 2,19,20
 344 750 344 750 344 741 c 0,21,22
 344 739 344 739 343 737 c 2,23,-1
 316 574 l 2,24,25
 313 561 313 561 300 561 c 2,12,-1
EndSplineSet
EndChar

StartChar: numbersign
Encoding: 35 35 6
Width: 612
GlyphClass: 2
Flags: W
LayerCount: 2
Fore
SplineSet
523 112 m 2,0,-1
 425 112 l 1,1,-1
 379 5 l 2,2,3
 374 -7 374 -7 362 -7 c 2,4,-1
 313 -7 l 2,5,6
 300 -7 300 -7 306 5 c 2,7,-1
 351 112 l 1,8,-1
 221 112 l 1,9,-1
 175 5 l 2,10,11
 170 -7 170 -7 157 -7 c 2,12,-1
 108 -7 l 2,13,14
 96 -7 96 -7 101 5 c 2,15,-1
 147 112 l 1,16,-1
 66 112 l 2,17,18
 54 112 54 112 56 124 c 2,19,-1
 61 161 l 2,20,21
 62 173 62 173 75 173 c 2,22,-1
 172 173 l 1,23,-1
 227 299 l 1,24,-1
 147 299 l 2,25,26
 134 299 134 299 136 312 c 2,27,-1
 142 348 l 2,28,29
 144 361 144 361 156 361 c 2,30,-1
 254 361 l 1,31,-1
 301 470 l 2,32,33
 306 483 306 483 318 483 c 2,34,-1
 368 483 l 2,35,36
 380 483 380 483 375 470 c 2,37,-1
 327 361 l 1,38,-1
 458 361 l 1,39,-1
 505 470 l 1,40,41
 512 483 512 483 523 483 c 2,42,-1
 572 483 l 2,43,44
 584 483 584 483 579 470 c 2,45,-1
 532 361 l 1,46,-1
 612 361 l 2,47,48
 625 361 625 361 623 348 c 2,49,-1
 618 312 l 2,50,51
 616 299 616 299 603 299 c 2,52,-1
 505 299 l 1,53,-1
 450 173 l 1,54,-1
 531 173 l 2,55,56
 544 173 544 173 542 161 c 2,57,-1
 537 124 l 2,58,59
 536 112 536 112 523 112 c 2,0,-1
377 173 m 1,60,-1
 431 299 l 1,61,-1
 301 299 l 1,62,-1
 246 173 l 1,63,-1
 377 173 l 1,60,-1
EndSplineSet
EndChar

StartChar: dollar
Encoding: 36 36 7
Width: 646
GlyphClass: 2
Flags: W
LayerCount: 2
Fore
SplineSet
349 -86 m 2,0,-1
 295 -86 l 2,1,2
 284 -86 284 -86 285 -74 c 2,3,-1
 295 1 l 1,4,5
 230 10 230 10 191 41.5 c 128,-1,6
 152 73 152 73 135 110 c 1,7,-1
 133 110 l 1,8,-1
 125 43 l 1,9,10
 125 31 125 31 111 31 c 2,11,-1
 55 31 l 2,12,13
 42 31 42 31 44 43 c 2,14,-1
 71 231 l 2,15,16
 72 243 72 243 85 243 c 2,17,-1
 148 243 l 2,18,19
 161 243 161 243 158 225 c 1,20,21
 158 200 158 200 175.5 171 c 128,-1,22
 193 142 193 142 213 122 c 128,-1,23
 233 102 233 102 269 88 c 128,-1,24
 305 74 305 74 350 74 c 0,25,26
 434 74 434 74 483.5 109.5 c 128,-1,27
 533 145 533 145 533 207 c 0,28,29
 533 249 533 249 491.5 275 c 128,-1,30
 450 301 450 301 391.5 316 c 128,-1,31
 333 331 333 331 274 349 c 128,-1,32
 215 367 215 367 173.5 406.5 c 128,-1,33
 132 446 132 446 132 507 c 0,34,35
 132 596 132 596 201.5 658 c 128,-1,36
 271 720 271 720 384 724 c 1,37,-1
 394 793 l 2,38,39
 396 805 396 805 408 805 c 2,40,-1
 462 805 l 2,41,42
 474 805 474 805 473 793 c 2,43,-1
 462 714 l 1,44,45
 546 702 546 702 582 645 c 1,46,-1
 586 684 l 2,47,48
 588 696 588 696 601 696 c 2,49,-1
 657 696 l 2,50,51
 668 696 668 696 667 684 c 2,52,-1
 642 503 l 2,53,54
 640 491 640 491 628 491 c 2,55,-1
 565 491 l 2,56,57
 554 491 554 491 554 503 c 1,58,-1
 556 516 l 1,59,60
 558 547 558 547 526 589 c 0,61,62
 510 611 510 611 475 626.5 c 128,-1,63
 440 642 440 642 393 642 c 0,64,65
 322 642 322 642 275.5 606.5 c 128,-1,66
 229 571 229 571 229 518 c 0,67,68
 229 485 229 485 251.5 461 c 128,-1,69
 274 437 274 437 310 423 c 128,-1,70
 346 409 346 409 389.5 397.5 c 128,-1,71
 433 386 433 386 476.5 372 c 128,-1,72
 520 358 520 358 556 340 c 128,-1,73
 592 322 592 322 614.5 290.5 c 128,-1,74
 637 259 637 259 637 216 c 0,75,76
 637 126 637 126 570 62 c 128,-1,77
 503 -2 503 -2 373 -6 c 1,78,-1
 363 -74 l 2,79,80
 362 -86 362 -86 349 -86 c 2,0,-1
EndSplineSet
EndChar

StartChar: percent
Encoding: 37 37 8
Width: 753
GlyphClass: 2
Flags: W
LayerCount: 2
Fore
SplineSet
233 359 m 0,0,1
 175 359 175 359 143 399.5 c 128,-1,2
 111 440 111 440 111 509 c 0,3,4
 111 602 111 602 159.5 663 c 128,-1,5
 208 724 208 724 284 724 c 0,6,7
 342 724 342 724 374 683.5 c 128,-1,8
 406 643 406 643 406 576 c 0,9,10
 406 482 406 482 359 420.5 c 128,-1,11
 312 359 312 359 233 359 c 0,0,1
241 414 m 0,12,13
 289 414 289 414 317.5 457.5 c 128,-1,14
 346 501 346 501 346 573 c 0,15,16
 346 669 346 669 277 669 c 0,17,18
 228 669 228 669 199.5 626.5 c 128,-1,19
 171 584 171 584 171 525 c 0,20,21
 171 414 171 414 241 414 c 0,12,13
570 -7 m 0,22,23
 512 -7 512 -7 480 33.5 c 128,-1,24
 448 74 448 74 448 143 c 0,25,26
 448 236 448 236 496 297 c 128,-1,27
 544 358 544 358 621 358 c 0,28,29
 678 358 678 358 710.5 317.5 c 128,-1,30
 743 277 743 277 743 210 c 0,31,32
 743 117 743 117 695.5 55 c 128,-1,33
 648 -7 648 -7 570 -7 c 0,22,23
577 48 m 0,34,35
 625 48 625 48 653.5 91.5 c 128,-1,36
 682 135 682 135 682 207 c 0,37,38
 682 303 682 303 613 303 c 0,39,40
 564 303 564 303 535.5 260.5 c 128,-1,41
 507 218 507 218 507 159 c 0,42,43
 507 48 507 48 577 48 c 0,34,35
265 -74 m 2,44,-1
 205 -74 l 2,45,46
 197 -74 197 -74 197 -68 c 0,47,48
 197 -65 197 -65 198 -62 c 2,49,-1
 554 748 l 2,50,51
 560 760 560 760 573 760 c 2,52,-1
 632 760 l 2,53,54
 640 760 640 760 640 756 c 128,-1,55
 640 752 640 752 638 748 c 2,56,-1
 282 -62 l 1,57,58
 278 -74 278 -74 265 -74 c 2,44,-1
EndSplineSet
EndChar

StartChar: ampersand
Encoding: 38 38 9
Width: 674
GlyphClass: 2
Flags: W
LayerCount: 2
Fore
SplineSet
603 0 m 2,0,-1
 522 0 l 2,1,2
 499 0 499 0 479 37 c 2,3,-1
 462 67 l 1,4,5
 381 -7 381 -7 275 -7 c 128,-1,6
 169 -7 169 -7 116 46.5 c 128,-1,7
 63 100 63 100 63 173 c 0,8,9
 63 215 63 215 77.5 250.5 c 128,-1,10
 92 286 92 286 112 309 c 128,-1,11
 132 332 132 332 163 353 c 0,12,13
 204 381 204 381 265 406 c 1,14,15
 216 474 216 474 216 549 c 128,-1,16
 216 624 216 624 272 674 c 128,-1,17
 328 724 328 724 408 724 c 0,18,19
 469 724 469 724 511 690 c 128,-1,20
 553 656 553 656 553 590 c 0,21,22
 553 506 553 506 492 455 c 0,23,24
 442 413 442 413 372 381 c 1,25,-1
 479 192 l 1,26,27
 512 242 512 242 526 342 c 0,28,29
 528 354 528 354 540 354 c 2,30,-1
 672 354 l 2,31,32
 684 354 684 354 683 342 c 2,33,-1
 678 305 l 1,34,35
 675 293 675 293 664 293 c 2,36,-1
 590 293 l 1,37,38
 572 200 572 200 518 125 c 1,39,-1
 550 69 l 1,40,-1
 613 69 l 2,41,42
 626 69 626 69 624 57 c 2,43,-1
 617 12 l 2,44,45
 616 0 616 0 603 0 c 2,0,-1
153 181 m 0,46,47
 153 128 153 128 190 97 c 128,-1,48
 227 66 227 66 283 66 c 0,49,50
 370 66 370 66 428 126 c 1,51,-1
 301 347 l 1,52,53
 197 303 197 303 168 246 c 0,54,55
 153 217 153 217 153 181 c 0,46,47
465 523 m 128,-1,57
 476 546 476 546 476 577 c 128,-1,58
 476 608 476 608 457 630 c 128,-1,59
 438 652 438 652 397 652 c 128,-1,60
 356 652 356 652 326.5 623 c 128,-1,61
 297 594 297 594 297 547 c 128,-1,62
 297 500 297 500 340 435 c 1,63,64
 373 449 373 449 390.5 457.5 c 128,-1,65
 408 466 408 466 431 483 c 128,-1,56
 454 500 454 500 465 523 c 128,-1,57
EndSplineSet
EndChar

StartChar: quotesingle
Encoding: 39 39 10
Width: 147
GlyphClass: 2
Flags: W
LayerCount: 2
Fore
SplineSet
169 561 m 2,0,-1
 135 561 l 2,1,2
 122 561 122 561 124 574 c 2,3,-1
 142 737 l 2,4,5
 144 750 144 750 157 750 c 2,6,-1
 201 750 l 2,7,8
 214 750 214 750 212 737 c 2,9,-1
 184 574 l 2,10,11
 182 561 182 561 169 561 c 2,0,-1
EndSplineSet
EndChar

StartChar: parenleft
Encoding: 40 40 11
Width: 412
GlyphClass: 2
Flags: W
LayerCount: 2
Fore
SplineSet
351 -66 m 0,0,1
 241 -66 241 -66 161 23.5 c 128,-1,2
 81 113 81 113 81 278 c 0,3,4
 81 397 81 397 117.5 494 c 128,-1,5
 154 591 154 591 212 648 c 0,6,7
 331 765 331 765 468 765 c 0,8,9
 481 765 481 765 479 752 c 2,10,-1
 472 701 l 2,11,12
 470 688 470 688 457 688 c 0,13,14
 359 688 359 688 266 590 c 0,15,16
 222 543 222 543 193.5 463 c 128,-1,17
 165 383 165 383 165 285 c 0,18,19
 165 152 165 152 225 81.5 c 128,-1,20
 285 11 285 11 362 11 c 0,21,22
 376 11 376 11 373 -2 c 1,23,-1
 366 -53 l 2,24,25
 364 -66 364 -66 351 -66 c 0,0,1
EndSplineSet
EndChar

StartChar: parenright
Encoding: 41 41 12
Width: 412
GlyphClass: 2
Flags: W
LayerCount: 2
Fore
SplineSet
53 11 m 0,0,1
 151 11 151 11 243 104 c 0,2,3
 288 150 288 150 317 230 c 128,-1,4
 346 310 346 310 346 410 c 0,5,6
 346 542 346 542 286 614.5 c 128,-1,7
 226 687 226 687 149 687 c 0,8,9
 135 687 135 687 137 700 c 2,10,-1
 144 751 l 2,11,12
 146 764 146 764 160 764 c 0,13,14
 264 764 264 764 344 682 c 0,15,16
 383 642 383 642 406 575 c 128,-1,17
 429 508 429 508 429 406 c 128,-1,18
 429 304 429 304 392.5 207 c 128,-1,19
 356 110 356 110 298 52 c 0,20,21
 179 -67 179 -67 42 -67 c 0,22,23
 29 -67 29 -67 31 -53 c 2,24,-1
 38 -3 l 2,25,26
 40 11 40 11 53 11 c 0,0,1
EndSplineSet
EndChar

StartChar: asterisk
Encoding: 42 42 13
Width: 413
GlyphClass: 2
Flags: W
LayerCount: 2
Fore
SplineSet
282 420 m 2,0,-1
 248 420 l 2,1,2
 233 420 233 420 237 433 c 2,3,-1
 264 546 l 1,4,-1
 184 457 l 2,5,6
 173 446 173 446 164 456 c 2,7,-1
 144 480 l 2,8,9
 134 492 134 492 147 500 c 2,10,-1
 247 569 l 1,11,-1
 131 557 l 2,12,13
 125 556 125 556 121.5 560 c 128,-1,14
 118 564 118 564 119 570 c 2,15,-1
 123 604 l 2,16,17
 124 610 124 610 129 614 c 128,-1,18
 134 618 134 618 140 617 c 2,19,-1
 251 603 l 1,20,-1
 170 675 l 2,21,22
 161 684 161 684 173 694 c 2,23,-1
 201 718 l 2,24,25
 213 728 213 728 220 718 c 2,26,-1
 278 629 l 1,27,-1
 280 742 l 2,28,29
 280 755 280 755 295 755 c 2,30,-1
 330 755 l 2,31,32
 344 755 344 755 341 742 c 2,33,-1
 314 628 l 1,34,-1
 395 718 l 2,35,36
 406 729 406 729 415 718 c 2,37,-1
 435 695 l 2,38,39
 444 684 444 684 431 675 c 2,40,-1
 332 602 l 1,41,-1
 448 618 l 2,42,43
 454 619 454 619 457 615 c 128,-1,44
 460 611 460 611 459 605 c 2,45,-1
 455 571 l 2,46,47
 453 557 453 557 439 557 c 1,48,-1
 330 568 l 1,49,-1
 407 500 l 2,50,51
 417 492 417 492 404 481 c 2,52,-1
 378 457 l 2,53,54
 365 446 365 446 358 457 c 2,55,-1
 300 544 l 1,56,-1
 298 433 l 1,57,58
 296 420 296 420 282 420 c 2,0,-1
EndSplineSet
EndChar

StartChar: plus
Encoding: 43 43 14
Width: 401
GlyphClass: 2
Flags: W
LayerCount: 2
Fore
SplineSet
244 96 m 2,0,-1
 187 96 l 2,1,2
 174 96 174 96 176 109 c 2,3,-1
 192 216 l 1,4,-1
 82 216 l 2,5,6
 68 216 68 216 70 229 c 2,7,-1
 78 280 l 2,8,9
 80 293 80 293 92 293 c 2,10,-1
 202 293 l 1,11,-1
 217 403 l 2,12,13
 218 415 218 415 232 415 c 2,14,-1
 289 415 l 2,15,16
 300 415 300 415 299 403 c 2,17,-1
 284 293 l 1,18,-1
 390 293 l 2,19,20
 402 293 402 293 402 284 c 0,21,22
 402 282 402 282 401 280 c 2,23,-1
 394 229 l 2,24,25
 392 216 392 216 379 216 c 2,26,-1
 274 216 l 1,27,-1
 258 109 l 2,28,29
 256 96 256 96 244 96 c 2,0,-1
EndSplineSet
EndChar

StartChar: comma
Encoding: 44 44 15
Width: 159
GlyphClass: 2
Flags: W
LayerCount: 2
Fore
SplineSet
35 -73 m 2,0,1
 36 -67 36 -67 48 -67 c 128,-1,2
 60 -67 60 -67 75.5 -51.5 c 128,-1,3
 91 -36 91 -36 91 -9 c 1,4,-1
 90 -2 l 1,5,6
 84 -7 84 -7 69.5 -7 c 128,-1,7
 55 -7 55 -7 44.5 4 c 128,-1,8
 34 15 34 15 34 35 c 128,-1,9
 34 55 34 55 50 70.5 c 128,-1,10
 66 86 66 86 88 86 c 0,11,12
 134 86 134 86 134 27 c 128,-1,13
 134 -32 134 -32 106.5 -63.5 c 128,-1,14
 79 -95 79 -95 39 -95 c 0,15,16
 32 -95 32 -95 32 -90 c 2,17,-1
 35 -73 l 2,0,1
EndSplineSet
EndChar

StartChar: hyphen
Encoding: 45 45 16
Width: 414
GlyphClass: 2
Flags: W
LayerCount: 2
Fore
SplineSet
393 222 m 2,0,-1
 82 222 l 2,1,2
 69 222 69 222 71 235 c 2,3,-1
 78 286 l 2,4,5
 80 299 80 299 93 299 c 2,6,-1
 404 299 l 2,7,8
 418 299 418 299 416 286 c 2,9,-1
 409 235 l 2,10,11
 407 222 407 222 393 222 c 2,0,-1
EndSplineSet
EndChar

StartChar: period
Encoding: 46 46 17
Width: 151
GlyphClass: 2
Flags: W
LayerCount: 2
Fore
SplineSet
117 75 m 128,-1,1
 129 63 129 63 129 43.5 c 128,-1,2
 129 24 129 24 112.5 8.5 c 128,-1,3
 96 -7 96 -7 76 -7 c 128,-1,4
 56 -7 56 -7 44.5 4.5 c 128,-1,5
 33 16 33 16 33 36 c 128,-1,6
 33 56 33 56 49 71.5 c 128,-1,7
 65 87 65 87 85 87 c 128,-1,0
 105 87 105 87 117 75 c 128,-1,1
EndSplineSet
EndChar

StartChar: slash
Encoding: 47 47 18
Width: 405
GlyphClass: 2
Flags: W
LayerCount: 2
Fore
SplineSet
97 -74 m 2,0,-1
 37 -74 l 2,1,2
 29 -74 29 -74 29 -68 c 0,3,4
 29 -65 29 -65 30 -62 c 2,5,-1
 386 748 l 1,6,7
 390 760 390 760 405 760 c 2,8,-1
 464 760 l 2,9,10
 472 760 472 760 472 756 c 128,-1,11
 472 752 472 752 470 748 c 2,12,-1
 114 -62 l 1,13,14
 110 -74 110 -74 97 -74 c 2,0,-1
EndSplineSet
EndChar

StartChar: zero
Encoding: 48 48 19
Width: 654
GlyphClass: 2
Flags: W
LayerCount: 2
Fore
SplineSet
326 -7 m 0,0,1
 210 -7 210 -7 146.5 74 c 128,-1,2
 83 155 83 155 83 292 c 0,3,4
 83 478 83 478 179 601 c 128,-1,5
 275 724 275 724 429 724 c 0,6,7
 544 724 544 724 608.5 643 c 128,-1,8
 673 562 673 562 673 428 c 0,9,10
 673 240 673 240 578.5 116.5 c 128,-1,11
 484 -7 484 -7 326 -7 c 0,0,1
338 74 m 0,12,13
 442 74 442 74 511 170.5 c 128,-1,14
 580 267 580 267 580 423 c 0,15,16
 580 527 580 527 537 586 c 128,-1,17
 494 645 494 645 418 645 c 0,18,19
 314 645 314 645 244.5 547.5 c 128,-1,20
 175 450 175 450 175 296 c 0,21,22
 175 190 175 190 217.5 132 c 128,-1,23
 260 74 260 74 338 74 c 0,12,13
EndSplineSet
EndChar

StartChar: one
Encoding: 49 49 20
Width: 508
GlyphClass: 2
Flags: W
LayerCount: 2
Fore
SplineSet
458 0 m 2,0,-1
 63 0 l 2,1,2
 50 0 50 0 52 12 c 2,3,-1
 59 63 l 2,4,5
 60 75 60 75 73 75 c 2,6,-1
 236 75 l 1,7,-1
 313 624 l 1,8,-1
 161 525 l 2,9,10
 150 519 150 519 145 528 c 2,11,-1
 122 569 l 1,12,13
 115 577 115 577 127 586 c 2,14,-1
 319 711 l 2,15,16
 330 718 330 718 338 718 c 2,17,-1
 401 718 l 2,18,19
 414 718 414 718 412 706 c 2,20,-1
 323 75 l 1,21,-1
 468 75 l 2,22,23
 480 75 480 75 479 63 c 2,24,-1
 472 12 l 2,25,26
 470 0 470 0 458 0 c 2,0,-1
EndSplineSet
EndChar

StartChar: two
Encoding: 50 50 21
Width: 602
GlyphClass: 2
Flags: W
LayerCount: 2
Fore
SplineSet
551 0 m 2,0,-1
 51 0 l 2,1,2
 38 0 38 0 40 12 c 2,3,-1
 45 43 l 2,4,5
 55 107 55 107 87.5 156.5 c 128,-1,6
 120 206 120 206 164 236.5 c 128,-1,7
 208 267 208 267 258.5 292.5 c 128,-1,8
 309 318 309 318 357.5 339 c 128,-1,9
 406 360 406 360 446 384 c 0,10,11
 534 436 534 436 534 520 c 0,12,13
 534 573 534 573 496 608.5 c 128,-1,14
 458 644 458 644 385 644 c 128,-1,15
 312 644 312 644 263 603 c 128,-1,16
 214 562 214 562 205 499 c 0,17,18
 204 487 204 487 191 487 c 2,19,-1
 126 487 l 2,20,21
 115 487 115 487 115 497 c 0,22,23
 115 574 115 574 184 646 c 1,24,25
 218 680 218 680 276 702 c 128,-1,26
 334 724 334 724 406 724 c 0,27,28
 511 724 511 724 569 669.5 c 128,-1,29
 627 615 627 615 627 535 c 0,30,31
 627 477 627 477 603 431 c 128,-1,32
 579 385 579 385 539.5 355 c 128,-1,33
 500 325 500 325 452 299.5 c 128,-1,34
 404 274 404 274 354 252 c 128,-1,35
 304 230 304 230 261.5 206.5 c 128,-1,36
 219 183 219 183 187.5 149.5 c 128,-1,37
 156 116 156 116 147 75 c 1,38,-1
 486 75 l 1,39,-1
 497 147 l 2,40,41
 498 159 498 159 511 159 c 2,42,-1
 574 159 l 2,43,44
 587 159 587 159 584 147 c 1,45,-1
 566 12 l 2,46,47
 564 0 564 0 551 0 c 2,0,-1
EndSplineSet
EndChar

StartChar: three
Encoding: 51 51 22
Width: 590
GlyphClass: 2
Flags: W
LayerCount: 2
Fore
SplineSet
460 378 m 1,0,-1
 460 377 l 1,1,2
 488 377 488 377 530 346 c 0,3,4
 552 331 552 331 566.5 299 c 128,-1,5
 581 267 581 267 581 226 c 0,6,7
 581 122 581 122 498.5 57.5 c 128,-1,8
 416 -7 416 -7 285 -7 c 0,9,10
 226 -7 226 -7 194 4.5 c 128,-1,11
 162 16 162 16 143.5 26.5 c 128,-1,12
 125 37 125 37 113.5 46 c 128,-1,13
 102 55 102 55 91 66 c 0,14,15
 78 80 78 80 64 101 c 2,16,-1
 58 110 l 1,17,18
 54 114 54 114 54 118 c 128,-1,19
 54 122 54 122 61 127 c 2,20,-1
 109 167 l 2,21,22
 120 175 120 175 127 167 c 0,23,24
 128 166 128 166 140.5 150 c 128,-1,25
 153 134 153 134 158.5 128.5 c 128,-1,26
 164 123 164 123 180 110 c 128,-1,27
 196 97 196 97 210 91 c 0,28,29
 250 74 250 74 296 74 c 0,30,31
 384 74 384 74 438 116.5 c 128,-1,32
 492 159 492 159 492 228 c 0,33,34
 492 337 492 337 336 337 c 2,35,-1
 297 337 l 2,36,37
 284 337 284 337 286 350 c 2,38,-1
 292 395 l 2,39,40
 294 408 294 408 306 408 c 2,41,-1
 338 408 l 2,42,43
 391 408 391 408 446 434 c 1,44,45
 476 447 476 447 494.5 474.5 c 128,-1,46
 513 502 513 502 513 544 c 128,-1,47
 513 586 513 586 480.5 615 c 128,-1,48
 448 644 448 644 381.5 644 c 128,-1,49
 315 644 315 644 275.5 608.5 c 128,-1,50
 236 573 236 573 230 528 c 0,51,52
 228 516 228 516 215 516 c 2,53,-1
 155 516 l 2,54,55
 144 516 144 516 144 526 c 0,56,57
 144 609 144 609 213.5 666.5 c 128,-1,58
 283 724 283 724 391.5 724 c 128,-1,59
 500 724 500 724 552.5 672.5 c 128,-1,60
 605 621 605 621 605 552 c 0,61,62
 605 510 605 510 586.5 474.5 c 128,-1,63
 568 439 568 439 542 420 c 0,64,65
 487 378 487 378 460 378 c 1,0,-1
EndSplineSet
EndChar

StartChar: four
Encoding: 52 52 23
Width: 608
GlyphClass: 2
Flags: W
LayerCount: 2
Fore
SplineSet
557 0 m 2,0,-1
 269 0 l 2,1,2
 256 0 256 0 258 12 c 2,3,-1
 265 63 l 2,4,5
 266 75 266 75 280 75 c 2,6,-1
 394 75 l 1,7,-1
 415 225 l 1,8,-1
 82 225 l 2,9,10
 70 225 70 225 72 238 c 2,11,-1
 77 278 l 1,12,13
 80 292 80 292 96 310 c 2,14,-1
 461 695 l 2,15,16
 484 718 484 718 502 718 c 2,17,-1
 559 718 l 2,18,19
 572 718 572 718 570 706 c 2,20,-1
 512 295 l 1,21,-1
 591 295 l 2,22,23
 604 295 604 295 602 282 c 2,24,-1
 596 238 l 2,25,26
 594 225 594 225 581 225 c 2,27,-1
 502 225 l 1,28,-1
 481 75 l 1,29,-1
 568 75 l 2,30,31
 580 75 580 75 578 63 c 2,32,-1
 571 12 l 2,33,34
 570 0 570 0 557 0 c 2,0,-1
425 295 m 1,35,-1
 469 608 l 1,36,-1
 171 295 l 1,37,-1
 425 295 l 1,35,-1
EndSplineSet
EndChar

StartChar: five
Encoding: 53 53 24
Width: 590
GlyphClass: 2
Flags: W
LayerCount: 2
Fore
SplineSet
285 -7 m 0,0,1
 231 -7 231 -7 202 3 c 128,-1,2
 173 13 173 13 156.5 20 c 128,-1,3
 140 27 140 27 127 37 c 128,-1,4
 114 47 114 47 104 55 c 128,-1,5
 94 63 94 63 85.5 73 c 128,-1,6
 77 83 77 83 72 89 c 0,7,8
 58 108 58 108 58 110 c 1,9,10
 54 114 54 114 54 118 c 128,-1,11
 54 122 54 122 61 127 c 2,12,-1
 109 167 l 2,13,14
 120 175 120 175 127 167 c 0,15,16
 129 165 129 165 140.5 150.5 c 128,-1,17
 152 136 152 136 158 129.5 c 128,-1,18
 164 123 164 123 179 110 c 128,-1,19
 194 97 194 97 208 91 c 0,20,21
 250 74 250 74 296 74 c 0,22,23
 389 74 389 74 443 122.5 c 128,-1,24
 497 171 497 171 497 256 c 0,25,26
 497 319 497 319 455.5 356.5 c 128,-1,27
 414 394 414 394 341 394 c 0,28,29
 281 394 281 394 223.5 377.5 c 128,-1,30
 166 361 166 361 161 360.5 c 128,-1,31
 156 360 156 360 150 360 c 128,-1,32
 144 360 144 360 140 366 c 128,-1,33
 136 372 136 372 138 384 c 2,34,-1
 183 708 l 2,35,36
 184 720 184 720 198 720 c 2,37,-1
 598 720 l 2,38,39
 610 720 610 720 608 708 c 2,40,-1
 590 578 l 2,41,42
 588 566 588 566 576 566 c 2,43,-1
 513 566 l 2,44,45
 500 566 500 566 502 578 c 2,46,-1
 512 645 l 1,47,-1
 263 645 l 1,48,-1
 234 442 l 1,49,-1
 248 446 l 2,50,51
 307 462 307 462 369 462 c 0,52,53
 475 462 475 462 531 408.5 c 128,-1,54
 587 355 587 355 587 265 c 0,55,56
 587 143 587 143 503 68 c 128,-1,57
 419 -7 419 -7 285 -7 c 0,0,1
EndSplineSet
EndChar

StartChar: six
Encoding: 54 54 25
Width: 613
GlyphClass: 2
Flags: W
LayerCount: 2
Fore
SplineSet
609 523 m 2,0,-1
 548 523 l 2,1,2
 538 523 538 523 538 546 c 0,3,4
 538 584 538 584 508 614.5 c 128,-1,5
 478 645 478 645 417 645 c 0,6,7
 331 645 331 645 272.5 584 c 128,-1,8
 214 523 214 523 190 411 c 1,9,10
 278 462 278 462 388.5 462 c 128,-1,11
 499 462 499 462 554.5 408.5 c 128,-1,12
 610 355 610 355 610 265 c 0,13,14
 610 148 610 148 527 70.5 c 128,-1,15
 444 -7 444 -7 313 -7 c 0,16,17
 203 -7 203 -7 142.5 71.5 c 128,-1,18
 82 150 82 150 82 276 c 128,-1,19
 82 402 82 402 120.5 500.5 c 128,-1,20
 159 599 159 599 239.5 661.5 c 128,-1,21
 320 724 320 724 419.5 724 c 128,-1,22
 519 724 519 724 572 678.5 c 128,-1,23
 625 633 625 633 625 559 c 0,24,25
 625 523 625 523 609 523 c 2,0,-1
171 272 m 0,26,27
 171 193 171 193 200 144 c 0,28,29
 241 74 241 74 326 74 c 128,-1,30
 411 74 411 74 465 126 c 128,-1,31
 519 178 519 178 519 257 c 0,32,33
 519 319 519 319 478.5 356.5 c 128,-1,34
 438 394 438 394 366 394 c 0,35,36
 268 394 268 394 176 339 c 1,37,38
 171 303 171 303 171 272 c 0,26,27
EndSplineSet
EndChar

StartChar: seven
Encoding: 55 55 26
Width: 598
GlyphClass: 2
Flags: W
LayerCount: 2
Fore
SplineSet
301 0 m 2,0,-1
 238 0 l 2,1,2
 227 0 227 0 227 10 c 0,3,4
 227 181 227 181 283 280 c 0,5,6
 327 357 327 357 403 424 c 0,7,8
 436 453 436 453 465 482 c 0,9,10
 533 552 533 552 550 649 c 1,11,-1
 217 649 l 1,12,-1
 207 577 l 2,13,14
 206 565 206 565 193 565 c 2,15,-1
 130 565 l 2,16,17
 118 565 118 565 119 577 c 2,18,-1
 138 712 l 2,19,20
 140 724 140 724 152 724 c 2,21,-1
 649 724 l 2,22,23
 660 724 660 724 659 712 c 2,24,-1
 654 679 l 2,25,26
 635 558 635 558 566 476 c 0,27,28
 535 440 535 440 500.5 407 c 128,-1,29
 466 374 466 374 433.5 338 c 128,-1,30
 401 302 401 302 374 260 c 0,31,32
 316 167 316 167 316 13 c 0,33,34
 316 0 316 0 301 0 c 2,0,-1
EndSplineSet
EndChar

StartChar: eight
Encoding: 56 56 27
Width: 608
GlyphClass: 2
Flags: W
LayerCount: 2
Fore
SplineSet
601 233 m 0,0,1
 601 128 601 128 517 60.5 c 128,-1,2
 433 -7 433 -7 313.5 -7 c 128,-1,3
 194 -7 194 -7 129.5 45 c 128,-1,4
 65 97 65 97 65 181 c 0,5,6
 65 236 65 236 86 279 c 128,-1,7
 107 322 107 322 136 344 c 1,8,9
 195 386 195 386 232 386 c 1,10,-1
 233 387 l 1,11,12
 206 387 206 387 171 421.5 c 128,-1,13
 136 456 136 456 136 516 c 0,14,15
 136 590 136 590 198 654 c 0,16,17
 229 685 229 685 283 704.5 c 128,-1,18
 337 724 337 724 406 724 c 0,19,20
 517 724 517 724 570 674 c 128,-1,21
 623 624 623 624 623 556 c 0,22,23
 623 514 623 514 605.5 479 c 128,-1,24
 588 444 588 444 563 426 c 0,25,26
 511 387 511 387 485 387 c 1,27,-1
 484 386 l 1,28,29
 512 386 512 386 552 354 c 0,30,31
 573 338 573 338 587 306 c 128,-1,32
 601 274 601 274 601 233 c 0,0,1
365 345 m 2,33,-1
 340 345 l 2,34,35
 254 345 254 345 205.5 304.5 c 128,-1,36
 157 264 157 264 157 202 c 128,-1,37
 157 140 157 140 199 107 c 128,-1,38
 241 74 241 74 321 74 c 128,-1,39
 401 74 401 74 455.5 116.5 c 128,-1,40
 510 159 510 159 510 229 c 0,41,42
 510 284 510 284 472.5 314.5 c 128,-1,43
 435 345 435 345 365 345 c 2,33,-1
514 475.5 m 128,-1,45
 531 503 531 503 531 544 c 128,-1,46
 531 585 531 585 496.5 614.5 c 128,-1,47
 462 644 462 644 388.5 644 c 128,-1,48
 315 644 315 644 269.5 605 c 128,-1,49
 224 566 224 566 224 510 c 0,50,51
 224 480 224 480 237.5 459 c 128,-1,52
 251 438 251 438 272 428 c 0,53,54
 313 409 313 409 350 409 c 128,-1,55
 387 409 387 409 414.5 415 c 128,-1,56
 442 421 442 421 469.5 434.5 c 128,-1,44
 497 448 497 448 514 475.5 c 128,-1,45
EndSplineSet
EndChar

StartChar: nine
Encoding: 57 57 28
Width: 612
GlyphClass: 2
Flags: W
LayerCount: 2
Fore
SplineSet
104 194 m 2,0,-1
 165 194 l 2,1,2
 175 194 175 194 175 171 c 0,3,4
 175 133 175 133 205 102.5 c 128,-1,5
 235 72 235 72 296 72 c 0,6,7
 382 72 382 72 440 133 c 128,-1,8
 498 194 498 194 523 306 c 1,9,10
 435 255 435 255 324.5 255 c 128,-1,11
 214 255 214 255 158.5 308.5 c 128,-1,12
 103 362 103 362 103 452 c 0,13,14
 103 569 103 569 186 646.5 c 128,-1,15
 269 724 269 724 400 724 c 0,16,17
 510 724 510 724 570.5 645.5 c 128,-1,18
 631 567 631 567 631 441 c 128,-1,19
 631 315 631 315 592.5 216.5 c 128,-1,20
 554 118 554 118 473.5 55.5 c 128,-1,21
 393 -7 393 -7 293 -7 c 128,-1,22
 193 -7 193 -7 140.5 38.5 c 128,-1,23
 88 84 88 84 88 158 c 0,24,25
 88 194 88 194 104 194 c 2,0,-1
541 443 m 0,26,27
 541 523 541 523 512 574 c 0,28,29
 473 643 473 643 387.5 643 c 128,-1,30
 302 643 302 643 248 591 c 128,-1,31
 194 539 194 539 194 460 c 0,32,33
 194 398 194 398 234.5 360.5 c 128,-1,34
 275 323 275 323 347 323 c 0,35,36
 445 323 445 323 537 378 c 1,37,38
 541 413 541 413 541 443 c 0,26,27
EndSplineSet
EndChar

StartChar: colon
Encoding: 58 58 29
Width: 171
GlyphClass: 2
Flags: W
LayerCount: 2
Fore
SplineSet
127 75 m 128,-1,1
 139 63 139 63 139 43.5 c 128,-1,2
 139 24 139 24 122.5 8.5 c 128,-1,3
 106 -7 106 -7 86 -7 c 128,-1,4
 66 -7 66 -7 54.5 5 c 128,-1,5
 43 17 43 17 43 36.5 c 128,-1,6
 43 56 43 56 59 71.5 c 128,-1,7
 75 87 75 87 95 87 c 128,-1,0
 115 87 115 87 127 75 c 128,-1,1
183 476 m 128,-1,9
 195 464 195 464 195 444.5 c 128,-1,10
 195 425 195 425 178.5 409 c 128,-1,11
 162 393 162 393 142.5 393 c 128,-1,12
 123 393 123 393 111 405 c 128,-1,13
 99 417 99 417 99 437 c 128,-1,14
 99 457 99 457 115 472.5 c 128,-1,15
 131 488 131 488 151 488 c 128,-1,8
 171 488 171 488 183 476 c 128,-1,9
EndSplineSet
EndChar

StartChar: semicolon
Encoding: 59 59 30
Width: 179
GlyphClass: 2
Flags: W
LayerCount: 2
Fore
SplineSet
185 476 m 128,-1,1
 197 464 197 464 197 444.5 c 128,-1,2
 197 425 197 425 180 409 c 128,-1,3
 163 393 163 393 143 393 c 128,-1,4
 123 393 123 393 112 405 c 128,-1,5
 101 417 101 417 101 437 c 128,-1,6
 101 457 101 457 117 472.5 c 128,-1,7
 133 488 133 488 153 488 c 128,-1,0
 173 488 173 488 185 476 c 128,-1,1
45 -73 m 2,8,9
 46 -67 46 -67 58 -67 c 128,-1,10
 70 -67 70 -67 85.5 -51.5 c 128,-1,11
 101 -36 101 -36 101 -9 c 1,12,-1
 100 -2 l 1,13,14
 94 -7 94 -7 79.5 -7 c 128,-1,15
 65 -7 65 -7 54.5 4 c 128,-1,16
 44 15 44 15 44 35 c 128,-1,17
 44 55 44 55 60 70.5 c 128,-1,18
 76 86 76 86 98 86 c 0,19,20
 144 86 144 86 144 27 c 128,-1,21
 144 -32 144 -32 116.5 -63.5 c 128,-1,22
 89 -95 89 -95 48 -95 c 0,23,24
 42 -95 42 -95 42 -90 c 2,25,-1
 45 -73 l 2,8,9
EndSplineSet
EndChar

StartChar: less
Encoding: 60 60 31
Width: 438
GlyphClass: 2
Flags: W
LayerCount: 2
Fore
SplineSet
454 444 m 0,0,1
 462 444 462 444 461 435 c 2,2,-1
 455 392 l 2,3,4
 453 379 453 379 439 372 c 2,5,-1
 176 254 l 1,6,-1
 406 136 l 1,7,8
 418 131 418 131 416 117 c 2,9,-1
 410 74 l 2,10,11
 409 65 409 65 402 65 c 0,12,13
 399 65 399 65 396 66 c 2,14,-1
 83 226 l 2,15,16
 71 233 71 233 72 245 c 2,17,-1
 75 263 l 2,18,19
 76 275 76 275 91 282 c 2,20,-1
 449 443 l 2,21,22
 452 444 452 444 454 444 c 0,0,1
EndSplineSet
EndChar

StartChar: equal
Encoding: 61 61 32
Width: 423
GlyphClass: 2
Flags: W
LayerCount: 2
Fore
SplineSet
419 335 m 2,0,-1
 99 335 l 2,1,2
 85 335 85 335 87 349 c 2,3,-1
 94 399 l 2,4,5
 96 413 96 413 110 413 c 2,6,-1
 430 413 l 2,7,8
 443 413 443 413 441 399 c 2,9,-1
 434 349 l 2,10,11
 432 335 432 335 419 335 c 2,0,-1
385 100 m 2,12,-1
 65 100 l 2,13,14
 52 100 52 100 54 113 c 2,15,-1
 61 164 l 2,16,17
 63 177 63 177 76 177 c 2,18,-1
 396 177 l 2,19,20
 410 177 410 177 408 164 c 2,21,-1
 401 113 l 2,22,23
 399 100 399 100 385 100 c 2,12,-1
EndSplineSet
EndChar

StartChar: greater
Encoding: 62 62 33
Width: 438
GlyphClass: 2
Flags: W
LayerCount: 2
Fore
SplineSet
56 65 m 0,0,1
 48 65 48 65 49 74 c 2,2,-1
 55 117 l 2,3,4
 57 131 57 131 71 136 c 1,5,-1
 334 254 l 1,6,-1
 104 372 l 2,7,8
 92 379 92 379 94 392 c 2,9,-1
 100 435 l 2,10,11
 101 444 101 444 108 444 c 0,12,13
 111 444 111 444 114 443 c 2,14,-1
 427 282 l 2,15,16
 439 275 439 275 437 263 c 2,17,-1
 435 245 l 2,18,19
 433 232 433 232 419 226 c 2,20,-1
 62 66 l 2,21,22
 58 65 58 65 56 65 c 0,0,1
EndSplineSet
EndChar

StartChar: question
Encoding: 63 63 34
Width: 582
GlyphClass: 2
Flags: W
LayerCount: 2
Fore
SplineSet
320 127 m 2,0,-1
 251 127 l 2,1,2
 241 127 241 127 241 137 c 0,3,4
 241 202 241 202 270.5 251.5 c 128,-1,5
 300 301 300 301 342 331.5 c 128,-1,6
 384 362 384 362 426 389 c 0,7,8
 526 454 526 454 526 529 c 0,9,10
 526 581 526 581 487 612.5 c 128,-1,11
 448 644 448 644 373 644 c 128,-1,12
 298 644 298 644 252 604 c 128,-1,13
 206 564 206 564 196 499 c 0,14,15
 194 487 194 487 182 487 c 2,16,-1
 119 487 l 2,17,18
 108 487 108 487 108 497 c 0,19,20
 108 575 108 575 172 645 c 0,21,22
 204 680 204 680 260.5 702 c 128,-1,23
 317 724 317 724 390 724 c 0,24,25
 499 724 499 724 559 673 c 128,-1,26
 619 622 619 622 619 543 c 0,27,28
 619 481 619 481 590.5 433.5 c 128,-1,29
 562 386 562 386 521 355 c 128,-1,30
 480 324 480 324 438.5 295.5 c 128,-1,31
 397 267 397 267 367 227.5 c 128,-1,32
 337 188 337 188 335 139 c 0,33,34
 334 127 334 127 320 127 c 2,0,-1
310 43.5 m 128,-1,36
 323 30 323 30 323 8 c 128,-1,37
 323 -14 323 -14 304.5 -31.5 c 128,-1,38
 286 -49 286 -49 264 -49 c 128,-1,39
 242 -49 242 -49 229 -35.5 c 128,-1,40
 216 -22 216 -22 216 0 c 128,-1,41
 216 22 216 22 234.5 39.5 c 128,-1,42
 253 57 253 57 275 57 c 128,-1,35
 297 57 297 57 310 43.5 c 128,-1,36
EndSplineSet
EndChar

StartChar: at
Encoding: 64 64 35
Width: 783
GlyphClass: 2
Flags: W
LayerCount: 2
Fore
SplineSet
374 -126 m 0,0,1
 238 -126 238 -126 152 -38.5 c 128,-1,2
 66 49 66 49 66 185 c 0,3,4
 66 300 66 300 130 402.5 c 128,-1,5
 194 505 194 505 297 565 c 128,-1,6
 400 625 400 625 523.5 625 c 128,-1,7
 647 625 647 625 721.5 556.5 c 128,-1,8
 796 488 796 488 796 384 c 0,9,10
 796 311 796 311 771 250.5 c 128,-1,11
 746 190 746 190 706 154 c 1,12,13
 625 78 625 78 535 78 c 2,14,-1
 515 78 l 2,15,16
 492 78 492 78 483.5 86.5 c 128,-1,17
 475 95 475 95 481 116 c 2,18,-1
 487 141 l 2,19,20
 487 139 487 139 473.5 124 c 128,-1,21
 460 109 460 109 432 92 c 128,-1,22
 404 75 404 75 374 75 c 0,23,24
 322 75 322 75 286.5 109 c 128,-1,25
 251 143 251 143 251 213 c 0,26,27
 251 319 251 319 320 386.5 c 128,-1,28
 389 454 389 454 478 454 c 0,29,30
 545 454 545 454 562 408 c 1,31,-1
 569 433 l 2,32,33
 572 444 572 444 584 444 c 2,34,-1
 614 444 l 2,35,36
 625 444 625 444 622 432 c 2,37,-1
 543 137 l 1,38,-1
 565 137 l 2,39,40
 626 137 626 137 679 203.5 c 128,-1,41
 732 270 732 270 732 376 c 0,42,43
 732 458 732 458 671 508 c 128,-1,44
 610 558 610 558 504 558 c 0,45,46
 356 558 356 558 246 446 c 128,-1,47
 136 334 136 334 136 192 c 0,48,49
 136 81 136 81 206 11.5 c 128,-1,50
 276 -58 276 -58 384 -58 c 0,51,52
 444 -58 444 -58 495.5 -49 c 128,-1,53
 547 -40 547 -40 568 -30 c 2,54,-1
 589 -21 l 1,55,56
 602 -14 602 -14 605 -27 c 2,57,-1
 615 -62 l 1,58,59
 621 -75 621 -75 608 -77 c 1,60,61
 598 -82 598 -82 578.5 -90.5 c 128,-1,62
 559 -99 559 -99 498 -112.5 c 128,-1,63
 437 -126 437 -126 374 -126 c 0,0,1
472 401 m 0,64,65
 413 401 413 401 363 352 c 128,-1,66
 313 303 313 303 313 227 c 0,67,68
 313 180 313 180 336.5 157 c 128,-1,69
 360 134 360 134 396 134 c 128,-1,70
 432 134 432 134 468.5 167 c 128,-1,71
 505 200 505 200 513 231 c 2,72,-1
 541 334 l 1,73,74
 541 365 541 365 520 383 c 128,-1,75
 499 401 499 401 472 401 c 0,64,65
EndSplineSet
EndChar

StartChar: A
Encoding: 65 65 36
Width: 841
GlyphClass: 2
Flags: W
LayerCount: 2
Fore
SplineSet
768 0 m 2,0,-1
 542 0 l 2,1,2
 530 0 530 0 532 12 c 2,3,-1
 539 63 l 2,4,5
 540 75 540 75 553 75 c 2,6,-1
 622 75 l 1,7,-1
 582 248 l 1,8,-1
 303 248 l 1,9,-1
 214 75 l 1,10,-1
 284 75 l 2,11,12
 297 75 297 75 294 63 c 1,13,-1
 287 12 l 2,14,15
 286 0 286 0 273 0 c 2,16,-1
 48 0 l 2,17,18
 36 0 36 0 38 12 c 2,19,-1
 45 63 l 2,20,21
 46 75 46 75 59 75 c 2,22,-1
 126 75 l 1,23,-1
 421 643 l 1,24,-1
 366 643 l 2,25,26
 354 643 354 643 356 655 c 2,27,-1
 363 706 l 2,28,29
 364 718 364 718 377 718 c 2,30,-1
 513 718 l 2,31,32
 537 718 537 718 548.5 708 c 128,-1,33
 560 698 560 698 566 675 c 2,34,-1
 711 75 l 1,35,-1
 778 75 l 2,36,37
 790 75 790 75 789 63 c 2,38,-1
 782 12 l 2,39,40
 780 0 780 0 768 0 c 2,0,-1
566 317 m 1,41,-1
 496 614 l 1,42,-1
 492 614 l 1,43,-1
 340 317 l 1,44,-1
 566 317 l 1,41,-1
EndSplineSet
EndChar

StartChar: B
Encoding: 66 66 37
Width: 681
GlyphClass: 2
Flags: W
LayerCount: 2
Fore
SplineSet
384 0 m 2,0,-1
 61 0 l 2,1,2
 48 0 48 0 50 12 c 2,3,-1
 57 63 l 2,4,5
 58 75 58 75 71 75 c 2,6,-1
 148 75 l 1,7,-1
 228 643 l 1,8,-1
 151 643 l 2,9,10
 140 643 140 643 141 655 c 2,11,-1
 148 706 l 2,12,13
 150 718 150 718 162 718 c 2,14,-1
 484 718 l 2,15,16
 574 718 574 718 622.5 673 c 128,-1,17
 671 628 671 628 671 554 c 0,18,19
 671 434 671 434 559 375 c 1,20,21
 665 342 665 342 665 234.5 c 128,-1,22
 665 127 665 127 595.5 63.5 c 128,-1,23
 526 0 526 0 384 0 c 2,0,-1
387 75 m 2,24,25
 470 75 470 75 523.5 114 c 128,-1,26
 577 153 577 153 577 230 c 0,27,28
 577 337 577 337 431 337 c 2,29,-1
 272 337 l 1,30,-1
 235 75 l 1,31,-1
 387 75 l 2,24,25
433 403 m 2,32,33
 491 403 491 403 536 437 c 128,-1,34
 581 471 581 471 581 533 c 128,-1,35
 581 595 581 595 545.5 619 c 128,-1,36
 510 643 510 643 457 643 c 2,37,-1
 315 643 l 1,38,-1
 281 403 l 1,39,-1
 433 403 l 2,32,33
EndSplineSet
EndChar

StartChar: C
Encoding: 67 67 38
Width: 752
GlyphClass: 2
Flags: W
LayerCount: 2
Fore
SplineSet
388 -7 m 0,0,1
 258 -7 258 -7 176 79.5 c 128,-1,2
 94 166 94 166 94 300 c 128,-1,3
 94 434 94 434 151.5 530.5 c 128,-1,4
 209 627 209 627 297.5 675.5 c 128,-1,5
 386 724 386 724 486 724 c 0,6,7
 640 724 640 724 695 617 c 1,8,-1
 706 706 l 2,9,10
 708 718 708 718 721 718 c 2,11,-1
 777 718 l 2,12,13
 790 718 790 718 788 706 c 2,14,-1
 757 488 l 2,15,16
 755 475 755 475 743 475 c 2,17,-1
 680 475 l 2,18,19
 667 475 667 475 669 488 c 0,20,21
 670 501 670 501 670 505 c 0,22,23
 670 547 670 547 618 594.5 c 128,-1,24
 566 642 566 642 479 642 c 0,25,26
 371 642 371 642 283 562 c 0,27,28
 240 523 240 523 213.5 459 c 128,-1,29
 187 395 187 395 187 316 c 0,30,31
 187 203 187 203 250 140 c 128,-1,32
 313 77 313 77 402 77 c 0,33,34
 570 77 570 77 665 203 c 1,35,36
 675 218 675 218 684 209 c 1,37,-1
 723 181 l 1,38,39
 730 174 730 174 721.5 160.5 c 128,-1,40
 713 147 713 147 700 131 c 128,-1,41
 687 115 687 115 657 89 c 128,-1,42
 627 63 627 63 592 43 c 128,-1,43
 557 23 557 23 502.5 8 c 128,-1,44
 448 -7 448 -7 388 -7 c 0,0,1
EndSplineSet
EndChar

StartChar: D
Encoding: 68 68 39
Width: 740
GlyphClass: 2
Flags: W
LayerCount: 2
Fore
SplineSet
342 0 m 2,0,-1
 55 0 l 2,1,2
 44 0 44 0 45 12 c 2,3,-1
 52 63 l 2,4,5
 54 75 54 75 66 75 c 2,6,-1
 143 75 l 1,7,-1
 222 643 l 1,8,-1
 146 643 l 2,9,10
 134 643 134 643 135 655 c 2,11,-1
 143 706 l 2,12,13
 144 718 144 718 156 718 c 2,14,-1
 426 718 l 2,15,16
 574 718 574 718 658.5 638 c 128,-1,17
 743 558 743 558 743 416 c 0,18,19
 743 228 743 228 633 114 c 128,-1,20
 523 0 523 0 342 0 c 2,0,-1
329 75 m 2,21,22
 485 75 485 75 568 161 c 128,-1,23
 651 247 651 247 651 407 c 0,24,25
 651 519 651 519 589 581 c 128,-1,26
 527 643 527 643 406 643 c 2,27,-1
 309 643 l 1,28,-1
 230 75 l 1,29,-1
 329 75 l 2,21,22
EndSplineSet
EndChar

StartChar: E
Encoding: 69 69 40
Width: 653
GlyphClass: 2
Flags: W
LayerCount: 2
Fore
SplineSet
592 0 m 2,0,-1
 61 0 l 2,1,2
 48 0 48 0 50 12 c 2,3,-1
 57 63 l 2,4,5
 58 75 58 75 71 75 c 2,6,-1
 148 75 l 1,7,-1
 228 643 l 1,8,-1
 151 643 l 2,9,10
 140 643 140 643 141 655 c 2,11,-1
 148 706 l 2,12,13
 150 718 150 718 162 718 c 2,14,-1
 693 718 l 2,15,16
 705 718 705 718 705 710 c 0,17,18
 705 708 705 708 704 706 c 2,19,-1
 681 545 l 2,20,21
 679 532 679 532 668 532 c 2,22,-1
 614 532 l 2,23,24
 600 532 600 532 603 545 c 1,25,-1
 616 643 l 1,26,-1
 315 643 l 1,27,-1
 280 395 l 1,28,-1
 533 395 l 2,29,30
 546 395 546 395 544 383 c 2,31,-1
 537 332 l 2,32,33
 536 320 536 320 523 320 c 2,34,-1
 269 320 l 1,35,-1
 235 75 l 1,36,-1
 536 75 l 1,37,-1
 550 173 l 2,38,39
 552 185 552 185 564 185 c 2,40,-1
 619 185 l 2,41,42
 630 185 630 185 629 173 c 2,43,-1
 607 12 l 2,44,45
 606 0 606 0 592 0 c 2,0,-1
EndSplineSet
EndChar

StartChar: F
Encoding: 70 70 41
Width: 635
GlyphClass: 2
Flags: W
LayerCount: 2
Fore
SplineSet
337 0 m 2,0,-1
 61 0 l 2,1,2
 48 0 48 0 50 12 c 2,3,-1
 57 63 l 2,4,5
 58 75 58 75 71 75 c 2,6,-1
 148 75 l 1,7,-1
 228 643 l 1,8,-1
 151 643 l 2,9,10
 140 643 140 643 141 655 c 2,11,-1
 148 706 l 2,12,13
 150 718 150 718 162 718 c 2,14,-1
 675 718 l 2,15,16
 687 718 687 718 687 710 c 0,17,18
 687 708 687 708 686 706 c 2,19,-1
 664 545 l 1,20,21
 661 532 661 532 650 532 c 2,22,-1
 596 532 l 2,23,24
 582 532 582 532 585 545 c 1,25,-1
 598 643 l 1,26,-1
 315 643 l 1,27,-1
 280 395 l 1,28,-1
 515 395 l 2,29,30
 528 395 528 395 526 383 c 2,31,-1
 519 332 l 2,32,33
 518 320 518 320 505 320 c 2,34,-1
 269 320 l 1,35,-1
 235 75 l 1,36,-1
 348 75 l 2,37,38
 361 75 361 75 358 63 c 1,39,-1
 351 12 l 2,40,41
 350 0 350 0 337 0 c 2,0,-1
EndSplineSet
EndChar

StartChar: G
Encoding: 71 71 42
Width: 750
GlyphClass: 2
Flags: W
LayerCount: 2
Fore
SplineSet
690 0 m 2,0,-1
 637 0 l 2,1,2
 623 0 623 0 626 12 c 1,3,-1
 636 81 l 1,4,5
 537 -7 537 -7 398 -7 c 128,-1,6
 259 -7 259 -7 176.5 79 c 128,-1,7
 94 165 94 165 94 309 c 0,8,9
 94 405 94 405 128.5 485.5 c 128,-1,10
 163 566 163 566 220 617 c 128,-1,11
 277 668 277 668 347.5 696 c 128,-1,12
 418 724 418 724 491 724 c 0,13,14
 645 724 645 724 697 629 c 1,15,-1
 706 706 l 2,16,17
 708 718 708 718 721 718 c 2,18,-1
 777 718 l 2,19,20
 790 718 790 718 788 706 c 2,21,-1
 759 500 l 2,22,23
 758 488 758 488 744 488 c 2,24,-1
 681 488 l 2,25,26
 670 488 670 488 671 500 c 2,27,-1
 672 512 l 2,28,29
 672 515 672 515 672 518 c 0,30,31
 672 560 672 560 621 601 c 128,-1,32
 570 642 570 642 483 642 c 0,33,34
 429 642 429 642 376.5 619 c 128,-1,35
 324 596 324 596 281.5 555.5 c 128,-1,36
 239 515 239 515 213 452.5 c 128,-1,37
 187 390 187 390 187 318 c 0,38,39
 187 206 187 206 251 141.5 c 128,-1,40
 315 77 315 77 405 77 c 0,41,42
 561 77 561 77 642 178 c 1,43,-1
 653 256 l 1,44,-1
 467 256 l 2,45,46
 454 256 454 256 456 269 c 2,47,-1
 462 315 l 1,48,49
 465 327 465 327 477 327 c 2,50,-1
 736 327 l 2,51,52
 748 327 748 327 746 315 c 2,53,-1
 703 12 l 2,54,55
 702 0 702 0 690 0 c 2,0,-1
EndSplineSet
EndChar

StartChar: H
Encoding: 72 72 43
Width: 820
GlyphClass: 2
Flags: W
LayerCount: 2
Fore
SplineSet
760 0 m 2,0,-1
 519 0 l 2,1,2
 508 0 508 0 509 12 c 2,3,-1
 516 63 l 2,4,5
 518 75 518 75 530 75 c 2,6,-1
 606 75 l 1,7,-1
 641 320 l 1,8,-1
 269 320 l 1,9,-1
 235 75 l 1,10,-1
 312 75 l 2,11,12
 324 75 324 75 323 63 c 2,13,-1
 316 12 l 2,14,15
 314 0 314 0 301 0 c 2,16,-1
 61 0 l 2,17,18
 48 0 48 0 50 12 c 2,19,-1
 57 63 l 2,20,21
 58 75 58 75 71 75 c 2,22,-1
 148 75 l 1,23,-1
 228 643 l 1,24,-1
 151 643 l 2,25,26
 140 643 140 643 141 655 c 2,27,-1
 148 706 l 2,28,29
 150 718 150 718 162 718 c 2,30,-1
 402 718 l 2,31,32
 414 718 414 718 413 706 c 2,33,-1
 406 655 l 2,34,35
 404 643 404 643 392 643 c 2,36,-1
 315 643 l 1,37,-1
 280 393 l 1,38,-1
 651 393 l 1,39,-1
 686 643 l 1,40,-1
 610 643 l 2,41,42
 598 643 598 643 599 655 c 2,43,-1
 606 706 l 2,44,45
 608 718 608 718 620 718 c 2,46,-1
 861 718 l 2,47,48
 874 718 874 718 872 706 c 2,49,-1
 865 655 l 2,50,51
 864 643 864 643 851 643 c 2,52,-1
 773 643 l 1,53,-1
 694 75 l 1,54,-1
 771 75 l 2,55,56
 784 75 784 75 781 63 c 1,57,-1
 774 12 l 2,58,59
 772 0 772 0 760 0 c 2,0,-1
EndSplineSet
EndChar

StartChar: I
Encoding: 73 73 44
Width: 362
GlyphClass: 2
Flags: W
LayerCount: 2
Fore
SplineSet
301 0 m 2,0,-1
 61 0 l 2,1,2
 48 0 48 0 50 12 c 2,3,-1
 57 63 l 2,4,5
 58 75 58 75 71 75 c 2,6,-1
 148 75 l 1,7,-1
 228 643 l 1,8,-1
 151 643 l 2,9,10
 140 643 140 643 141 655 c 2,11,-1
 148 706 l 2,12,13
 150 718 150 718 162 718 c 2,14,-1
 402 718 l 2,15,16
 414 718 414 718 414 710 c 0,17,18
 414 708 414 708 413 706 c 2,19,-1
 406 655 l 2,20,21
 404 643 404 643 392 643 c 2,22,-1
 315 643 l 1,23,-1
 235 75 l 1,24,-1
 312 75 l 2,25,26
 324 75 324 75 323 63 c 2,27,-1
 316 12 l 2,28,29
 314 0 314 0 301 0 c 2,0,-1
EndSplineSet
EndChar

StartChar: J
Encoding: 74 74 45
Width: 484
GlyphClass: 2
Flags: W
LayerCount: 2
Fore
SplineSet
273 643 m 2,0,1
 262 643 262 643 263 655 c 2,2,-1
 270 706 l 2,3,4
 272 718 272 718 284 718 c 2,5,-1
 524 718 l 2,6,7
 536 718 536 718 536 710 c 0,8,9
 536 708 536 708 535 706 c 2,10,-1
 528 655 l 2,11,12
 526 643 526 643 514 643 c 2,13,-1
 437 643 l 1,14,-1
 385 271 l 2,15,16
 365 125 365 125 286.5 62.5 c 128,-1,17
 208 0 208 0 61 0 c 0,18,19
 48 0 48 0 50 12 c 2,20,-1
 58 63 l 2,21,22
 60 75 60 75 71 75 c 0,23,24
 182 75 182 75 232.5 120.5 c 128,-1,25
 283 166 283 166 296 262 c 2,26,-1
 350 643 l 1,27,-1
 273 643 l 2,0,1
EndSplineSet
EndChar

StartChar: K
Encoding: 75 75 46
Width: 763
GlyphClass: 2
Flags: W
LayerCount: 2
Fore
SplineSet
702 0 m 2,0,-1
 615 0 l 2,1,2
 579 0 579 0 563 48 c 1,3,-1
 495 239 l 2,4,5
 490 255 490 255 484.5 264 c 128,-1,6
 479 273 479 273 459 282 c 128,-1,7
 439 291 439 291 406 291 c 2,8,-1
 265 291 l 1,9,-1
 235 75 l 1,10,-1
 327 75 l 2,11,12
 340 75 340 75 338 63 c 2,13,-1
 331 12 l 2,14,15
 330 0 330 0 316 0 c 2,16,-1
 61 0 l 2,17,18
 48 0 48 0 50 12 c 2,19,-1
 57 63 l 2,20,21
 58 75 58 75 71 75 c 2,22,-1
 148 75 l 1,23,-1
 228 643 l 1,24,-1
 151 643 l 2,25,26
 140 643 140 643 141 655 c 2,27,-1
 148 706 l 2,28,29
 150 718 150 718 162 718 c 2,30,-1
 386 718 l 2,31,32
 398 718 398 718 397 706 c 2,33,-1
 390 655 l 2,34,35
 388 643 388 643 375 643 c 2,36,-1
 315 643 l 1,37,-1
 275 362 l 1,38,-1
 380 362 l 2,39,40
 486 362 486 362 546.5 424.5 c 128,-1,41
 607 487 607 487 629 643 c 1,42,-1
 560 643 l 2,43,44
 548 643 548 643 550 655 c 2,45,-1
 557 706 l 2,46,47
 558 718 558 718 571 718 c 2,48,-1
 794 718 l 2,49,50
 806 718 806 718 805 706 c 2,51,-1
 798 655 l 2,52,53
 796 643 796 643 783 643 c 2,54,-1
 715 643 l 1,55,56
 681 402 681 402 534 328 c 1,57,58
 564 313 564 313 576 283 c 0,59,60
 580 273 580 273 589 248 c 2,61,-1
 652 75 l 1,62,-1
 713 75 l 2,63,64
 726 75 726 75 723 63 c 1,65,-1
 716 12 l 2,66,67
 714 0 714 0 702 0 c 2,0,-1
EndSplineSet
EndChar

StartChar: L
Encoding: 76 76 47
Width: 670
GlyphClass: 2
Flags: W
LayerCount: 2
Fore
SplineSet
608 0 m 2,0,-1
 61 0 l 2,1,2
 48 0 48 0 50 12 c 2,3,-1
 57 63 l 2,4,5
 58 75 58 75 71 75 c 2,6,-1
 148 75 l 1,7,-1
 228 643 l 1,8,-1
 151 643 l 2,9,10
 140 643 140 643 141 655 c 2,11,-1
 148 706 l 2,12,13
 150 718 150 718 162 718 c 2,14,-1
 401 718 l 2,15,16
 415 718 415 718 413 705 c 2,17,-1
 406 656 l 2,18,19
 404 643 404 643 391 643 c 2,20,-1
 315 643 l 1,21,-1
 235 75 l 1,22,-1
 553 75 l 1,23,-1
 567 173 l 2,24,25
 568 185 568 185 581 185 c 2,26,-1
 636 185 l 2,27,28
 648 185 648 185 646 173 c 2,29,-1
 624 13 l 2,30,31
 622 0 622 0 608 0 c 2,0,-1
EndSplineSet
EndChar

StartChar: M
Encoding: 77 77 48
Width: 919
GlyphClass: 2
Flags: W
LayerCount: 2
Fore
SplineSet
859 0 m 2,0,-1
 628 0 l 2,1,2
 616 0 616 0 618 12 c 2,3,-1
 625 63 l 2,4,5
 626 75 626 75 639 75 c 2,6,-1
 706 75 l 1,7,-1
 776 573 l 1,8,-1
 775 573 l 1,9,-1
 519 101 l 2,10,11
 502 71 502 71 470 71 c 128,-1,12
 438 71 438 71 431 101 c 2,13,-1
 307 573 l 1,14,-1
 305 573 l 1,15,-1
 235 75 l 1,16,-1
 302 75 l 2,17,18
 314 75 314 75 313 63 c 2,19,-1
 306 12 l 2,20,21
 304 0 304 0 291 0 c 2,22,-1
 61 0 l 2,23,24
 48 0 48 0 50 12 c 2,25,-1
 57 63 l 2,26,27
 58 75 58 75 71 75 c 2,28,-1
 148 75 l 1,29,-1
 228 643 l 1,30,-1
 151 643 l 2,31,32
 140 643 140 643 141 655 c 2,33,-1
 148 706 l 2,34,35
 150 718 150 718 162 718 c 2,36,-1
 316 718 l 2,37,38
 349 718 349 718 359 684 c 2,39,-1
 457 324 l 1,40,-1
 487 198 l 1,41,-1
 490 198 l 1,42,43
 529 276 529 276 554 322 c 2,44,-1
 754 684 l 2,45,46
 772 718 772 718 807 718 c 2,47,-1
 960 718 l 2,48,49
 972 718 972 718 971 706 c 2,50,-1
 964 655 l 2,51,52
 962 643 962 643 949 643 c 2,53,-1
 873 643 l 1,54,-1
 793 75 l 1,55,-1
 870 75 l 2,56,57
 883 75 883 75 880 63 c 1,58,-1
 873 12 l 2,59,60
 872 0 872 0 859 0 c 2,0,-1
EndSplineSet
EndChar

StartChar: N
Encoding: 78 78 49
Width: 820
GlyphClass: 2
Flags: W
LayerCount: 2
Fore
SplineSet
670 0 m 2,0,-1
 616 0 l 2,1,2
 597 0 597 0 587.5 7.5 c 128,-1,3
 578 15 578 15 570 31 c 2,4,-1
 344 483 l 1,5,-1
 306 567 l 1,6,-1
 304 567 l 1,7,-1
 235 75 l 1,8,-1
 312 75 l 2,9,10
 324 75 324 75 323 63 c 2,11,-1
 316 12 l 2,12,13
 314 0 314 0 301 0 c 2,14,-1
 61 0 l 2,15,16
 48 0 48 0 50 12 c 2,17,-1
 57 63 l 2,18,19
 58 75 58 75 71 75 c 2,20,-1
 148 75 l 1,21,-1
 228 643 l 1,22,-1
 151 643 l 2,23,24
 140 643 140 643 141 655 c 2,25,-1
 148 706 l 2,26,27
 150 718 150 718 162 718 c 2,28,-1
 302 718 l 2,29,30
 332 718 332 718 348 684 c 2,31,-1
 571 238 l 1,32,-1
 614 141 l 1,33,-1
 616 141 l 1,34,-1
 686 643 l 1,35,-1
 610 643 l 2,36,37
 598 643 598 643 599 655 c 2,38,-1
 606 706 l 2,39,40
 608 718 608 718 620 718 c 2,41,-1
 861 718 l 2,42,43
 874 718 874 718 872 706 c 2,44,-1
 865 655 l 2,45,46
 864 643 864 643 851 643 c 2,47,-1
 773 643 l 1,48,-1
 685 12 l 2,49,50
 684 0 684 0 670 0 c 2,0,-1
EndSplineSet
EndChar

StartChar: O
Encoding: 79 79 50
Width: 793
GlyphClass: 2
Flags: W
LayerCount: 2
Fore
SplineSet
396 -7 m 0,0,1
 263 -7 263 -7 178.5 81.5 c 128,-1,2
 94 170 94 170 94 312 c 0,3,4
 94 405 94 405 129 484.5 c 128,-1,5
 164 564 164 564 221.5 615.5 c 128,-1,6
 279 667 279 667 351 695.5 c 128,-1,7
 423 724 423 724 498 724 c 0,8,9
 626 724 626 724 713 640 c 128,-1,10
 800 556 800 556 800 414 c 0,11,12
 800 230 800 230 681.5 111.5 c 128,-1,13
 563 -7 563 -7 396 -7 c 0,0,1
407 74 m 0,14,15
 480 74 480 74 546.5 110.5 c 128,-1,16
 613 147 613 147 659 224 c 128,-1,17
 705 301 705 301 705 409 c 128,-1,18
 705 517 705 517 640 581 c 128,-1,19
 575 645 575 645 487 645 c 0,20,21
 380 645 380 645 288 564 c 0,22,23
 244 524 244 524 216.5 459.5 c 128,-1,24
 189 395 189 395 189 316 c 0,25,26
 189 203 189 203 252.5 138.5 c 128,-1,27
 316 74 316 74 407 74 c 0,14,15
EndSplineSet
EndChar

StartChar: P
Encoding: 80 80 51
Width: 658
GlyphClass: 2
Flags: W
LayerCount: 2
Fore
SplineSet
322 0 m 2,0,-1
 61 0 l 2,1,2
 48 0 48 0 50 12 c 2,3,-1
 57 63 l 2,4,5
 58 75 58 75 71 75 c 2,6,-1
 148 75 l 1,7,-1
 228 643 l 1,8,-1
 151 643 l 2,9,10
 140 643 140 643 141 655 c 2,11,-1
 148 706 l 2,12,13
 150 718 150 718 162 718 c 2,14,-1
 470 718 l 2,15,16
 565 718 565 718 623.5 665 c 128,-1,17
 682 612 682 612 682 521 c 0,18,19
 682 405 682 405 606 338 c 128,-1,20
 530 271 530 271 397 271 c 2,21,-1
 263 271 l 1,22,-1
 235 75 l 1,23,-1
 332 75 l 2,24,25
 344 75 344 75 343 63 c 2,26,-1
 336 12 l 2,27,28
 334 0 334 0 322 0 c 2,0,-1
403 342 m 2,29,30
 494 342 494 342 544 384.5 c 128,-1,31
 594 427 594 427 594 513 c 0,32,33
 594 578 594 578 552 610.5 c 128,-1,34
 510 643 510 643 445 643 c 2,35,-1
 315 643 l 1,36,-1
 273 342 l 1,37,-1
 403 342 l 2,29,30
EndSplineSet
EndChar

StartChar: Q
Encoding: 81 81 52
Width: 790
GlyphClass: 2
Flags: W
LayerCount: 2
Fore
SplineSet
712 -82 m 0,0,1
 658 -109 658 -109 594 -109 c 128,-1,2
 530 -109 530 -109 484.5 -97.5 c 128,-1,3
 439 -86 439 -86 410.5 -69.5 c 128,-1,4
 382 -53 382 -53 362 -36 c 128,-1,5
 342 -19 342 -19 333 -7.5 c 128,-1,6
 324 4 324 4 325 4 c 1,7,8
 221 23 221 23 157.5 106.5 c 128,-1,9
 94 190 94 190 94 311 c 0,10,11
 94 405 94 405 129 484.5 c 128,-1,12
 164 564 164 564 221.5 615.5 c 128,-1,13
 279 667 279 667 351 695.5 c 128,-1,14
 423 724 423 724 498 724 c 0,15,16
 626 724 626 724 713 640 c 128,-1,17
 800 556 800 556 800 414 c 0,18,19
 800 242 800 242 694 126 c 128,-1,20
 588 10 588 10 432 -4 c 1,21,22
 495 -42 495 -42 592 -42 c 0,23,24
 651 -42 651 -42 699 -22 c 0,25,26
 711 -18 711 -18 712 -26 c 2,27,-1
 721 -66 l 2,28,29
 723 -77 723 -77 712 -82 c 0,0,1
408 77 m 0,30,31
 518 77 518 77 608 160 c 1,32,33
 652 199 652 199 678.5 262.5 c 128,-1,34
 705 326 705 326 705 403 c 0,35,36
 705 517 705 517 640 579.5 c 128,-1,37
 575 642 575 642 487 642 c 0,38,39
 380 642 380 642 288 562 c 0,40,41
 244 523 244 523 216.5 459 c 128,-1,42
 189 395 189 395 189 316 c 0,43,44
 189 203 189 203 253 140 c 128,-1,45
 317 77 317 77 408 77 c 0,30,31
EndSplineSet
EndChar

StartChar: R
Encoding: 82 82 53
Width: 715
GlyphClass: 2
Flags: W
LayerCount: 2
Fore
SplineSet
655 0 m 2,0,-1
 568 0 l 2,1,2
 532 0 532 0 516 48 c 1,3,-1
 448 239 l 2,4,5
 439 265 439 265 427.5 277 c 128,-1,6
 416 289 416 289 392 289 c 2,7,-1
 265 289 l 1,8,-1
 235 75 l 1,9,-1
 324 75 l 2,10,11
 336 75 336 75 335 63 c 2,12,-1
 328 12 l 2,13,14
 326 0 326 0 314 0 c 2,15,-1
 61 0 l 2,16,17
 48 0 48 0 50 12 c 2,18,-1
 57 63 l 2,19,20
 58 75 58 75 71 75 c 2,21,-1
 148 75 l 1,22,-1
 228 643 l 1,23,-1
 151 643 l 2,24,25
 140 643 140 643 141 655 c 2,26,-1
 148 706 l 2,27,28
 150 718 150 718 162 718 c 2,29,-1
 470 718 l 2,30,31
 567 718 567 718 625 669.5 c 128,-1,32
 683 621 683 621 683 532.5 c 128,-1,33
 683 444 683 444 637.5 386 c 128,-1,34
 592 328 592 328 507 306 c 1,35,36
 525 291 525 291 544 239 c 2,37,-1
 605 75 l 1,38,-1
 665 75 l 2,39,40
 678 75 678 75 676 63 c 2,41,-1
 669 12 l 2,42,43
 668 0 668 0 655 0 c 2,0,-1
403 360 m 2,44,45
 595 360 595 360 595 522 c 0,46,47
 595 643 595 643 442 643 c 2,48,-1
 315 643 l 1,49,-1
 275 360 l 1,50,-1
 403 360 l 2,44,45
EndSplineSet
EndChar

StartChar: S
Encoding: 83 83 54
Width: 666
GlyphClass: 2
Flags: W
LayerCount: 2
Fore
SplineSet
117 0 m 2,0,-1
 61 0 l 2,1,2
 48 0 48 0 50 12 c 2,3,-1
 83 246 l 2,4,5
 85 259 85 259 97 259 c 2,6,-1
 160 259 l 2,7,8
 173 259 173 259 171 246 c 2,9,-1
 168 225 l 2,10,11
 165 207 165 207 183.5 175 c 128,-1,12
 202 143 202 143 222.5 123 c 128,-1,13
 243 103 243 103 279.5 88.5 c 128,-1,14
 316 74 316 74 361 74 c 0,15,16
 445 74 445 74 494 109.5 c 128,-1,17
 543 145 543 145 543 207 c 0,18,19
 543 263 543 263 464 290 c 0,20,21
 428 303 428 303 385.5 313.5 c 128,-1,22
 343 324 343 324 300.5 338 c 128,-1,23
 258 352 258 352 222.5 371.5 c 128,-1,24
 187 391 187 391 165 425.5 c 128,-1,25
 143 460 143 460 143 507 c 0,26,27
 143 599 143 599 216 661.5 c 128,-1,28
 289 724 289 724 406 724 c 0,29,30
 543 724 543 724 593 645 c 1,31,-1
 600 707 l 2,32,33
 602 719 602 719 614 719 c 2,34,-1
 671 719 l 2,35,36
 682 719 682 719 681 707 c 2,37,-1
 651 489 l 1,38,39
 648 477 648 477 636 477 c 2,40,-1
 573 477 l 2,41,42
 562 477 562 477 563 489 c 2,43,-1
 567 517 l 2,44,45
 568 522 568 522 568 526 c 0,46,47
 568 563 568 563 530.5 602.5 c 128,-1,48
 493 642 493 642 412.5 642 c 128,-1,49
 332 642 332 642 285.5 606.5 c 128,-1,50
 239 571 239 571 239 523 c 128,-1,51
 239 475 239 475 281 449 c 128,-1,52
 323 423 323 423 383 408.5 c 128,-1,53
 443 394 443 394 503 376 c 128,-1,54
 563 358 563 358 605 318 c 128,-1,55
 647 278 647 278 647 216 c 0,56,57
 647 123 647 123 575.5 58 c 128,-1,58
 504 -7 504 -7 366 -7 c 0,59,60
 274 -7 274 -7 219.5 30 c 128,-1,61
 165 67 165 67 144 110 c 1,62,-1
 131 12 l 2,63,64
 130 0 130 0 117 0 c 2,0,-1
EndSplineSet
EndChar

StartChar: T
Encoding: 84 84 55
Width: 727
GlyphClass: 2
Flags: W
LayerCount: 2
Fore
SplineSet
478 0 m 2,0,-1
 245 0 l 2,1,2
 232 0 232 0 234 13 c 2,3,-1
 241 62 l 2,4,5
 243 75 243 75 256 75 c 2,6,-1
 332 75 l 1,7,-1
 412 643 l 1,8,-1
 222 643 l 1,9,-1
 207 537 l 2,10,11
 205 523 205 523 192 523 c 2,12,-1
 135 523 l 2,13,14
 122 523 122 523 124 537 c 2,15,-1
 148 705 l 2,16,17
 150 718 150 718 163 718 c 2,18,-1
 766 718 l 2,19,20
 780 718 780 718 778 705 c 2,21,-1
 754 537 l 2,22,23
 752 523 752 523 739 523 c 2,24,-1
 682 523 l 2,25,26
 669 523 669 523 671 537 c 2,27,-1
 686 643 l 1,28,-1
 499 643 l 1,29,-1
 419 75 l 1,30,-1
 489 75 l 2,31,32
 503 75 503 75 501 62 c 2,33,-1
 494 13 l 2,34,35
 492 0 492 0 478 0 c 2,0,-1
EndSplineSet
EndChar

StartChar: U
Encoding: 85 85 56
Width: 814
GlyphClass: 2
Flags: W
LayerCount: 2
Fore
SplineSet
603 643 m 2,0,1
 590 643 590 643 592 655 c 2,2,-1
 599 706 l 2,3,4
 600 718 600 718 613 718 c 2,5,-1
 854 718 l 2,6,7
 866 718 866 718 865 706 c 2,8,-1
 858 655 l 2,9,10
 856 643 856 643 844 643 c 2,11,-1
 767 643 l 1,12,-1
 714 269 l 2,13,14
 695 133 695 133 615 63 c 128,-1,15
 535 -7 535 -7 406.5 -7 c 128,-1,16
 278 -7 278 -7 217 64 c 1,17,18
 170 117 170 117 170 209 c 0,19,20
 170 237 170 237 175 269 c 2,21,-1
 227 643 l 1,22,-1
 150 643 l 2,23,24
 138 643 138 643 140 655 c 2,25,-1
 147 706 l 2,26,27
 148 718 148 718 161 718 c 2,28,-1
 402 718 l 2,29,30
 415 718 415 718 412 706 c 1,31,-1
 405 655 l 2,32,33
 404 643 404 643 391 643 c 2,34,-1
 314 643 l 1,35,-1
 261 266 l 2,36,37
 258 242 258 242 258 221 c 0,38,39
 258 74 258 74 418 74 c 0,40,41
 512 74 512 74 563 123.5 c 128,-1,42
 614 173 614 173 626 260 c 2,43,-1
 679 643 l 1,44,-1
 603 643 l 2,0,1
EndSplineSet
EndChar

StartChar: V
Encoding: 86 86 57
Width: 848
GlyphClass: 2
Flags: W
LayerCount: 2
Fore
SplineSet
444 0 m 2,0,-1
 405 0 l 2,1,2
 386 0 386 0 377.5 9 c 128,-1,3
 369 18 369 18 363 40 c 2,4,-1
 215 643 l 1,5,-1
 150 643 l 2,6,7
 138 643 138 643 140 655 c 2,8,-1
 147 706 l 2,9,10
 148 718 148 718 161 718 c 2,11,-1
 386 718 l 2,12,13
 398 718 398 718 397 706 c 2,14,-1
 390 655 l 2,15,16
 388 643 388 643 376 643 c 2,17,-1
 307 643 l 1,18,-1
 435 106 l 1,19,-1
 441 106 l 1,20,-1
 720 643 l 1,21,-1
 651 643 l 2,22,23
 640 643 640 643 641 655 c 2,24,-1
 648 706 l 2,25,26
 650 718 650 718 662 718 c 2,27,-1
 888 718 l 2,28,29
 899 718 899 718 899 710 c 0,30,31
 899 708 899 708 898 706 c 2,32,-1
 891 655 l 2,33,34
 890 643 890 643 877 643 c 2,35,-1
 811 643 l 1,36,-1
 495 40 l 2,37,38
 484 18 484 18 474 9 c 128,-1,39
 464 0 464 0 444 0 c 2,0,-1
EndSplineSet
EndChar

StartChar: W
Encoding: 87 87 58
Width: 1094
GlyphClass: 2
Flags: W
LayerCount: 2
Fore
SplineSet
748 0 m 2,0,-1
 710 0 l 2,1,2
 671 0 671 0 668 40 c 2,3,-1
 623 548 l 1,4,-1
 621 548 l 1,5,-1
 435 40 l 1,6,7
 419 0 419 0 382 0 c 2,8,-1
 345 0 l 2,9,10
 309 0 309 0 303 40 c 2,11,-1
 204 643 l 1,12,-1
 140 643 l 2,13,14
 128 643 128 643 130 655 c 2,15,-1
 137 706 l 2,16,17
 138 718 138 718 151 718 c 2,18,-1
 377 718 l 2,19,20
 390 718 390 718 387 706 c 1,21,-1
 380 655 l 2,22,23
 378 643 378 643 366 643 c 2,24,-1
 296 643 l 1,25,-1
 375 106 l 1,26,-1
 381 106 l 1,27,-1
 606 718 l 1,28,-1
 687 718 l 1,29,-1
 740 106 l 1,30,-1
 746 106 l 1,31,-1
 976 643 l 1,32,-1
 906 643 l 2,33,34
 894 643 894 643 896 655 c 2,35,-1
 903 706 l 2,36,37
 904 718 904 718 917 718 c 2,38,-1
 1142 718 l 2,39,40
 1154 718 1154 718 1153 706 c 2,41,-1
 1146 655 l 2,42,43
 1144 643 1144 643 1132 643 c 2,44,-1
 1068 643 l 1,45,-1
 800 40 l 2,46,47
 782 0 782 0 748 0 c 2,0,-1
EndSplineSet
EndChar

StartChar: X
Encoding: 88 88 59
Width: 814
GlyphClass: 2
Flags: W
LayerCount: 2
Fore
SplineSet
746 0 m 2,0,-1
 505 0 l 2,1,2
 494 0 494 0 495 12 c 2,3,-1
 502 63 l 2,4,5
 504 75 504 75 516 75 c 2,6,-1
 582 75 l 1,7,-1
 449 308 l 1,8,-1
 245 75 l 1,9,-1
 312 75 l 2,10,11
 324 75 324 75 323 63 c 2,12,-1
 316 12 l 2,13,14
 314 0 314 0 301 0 c 2,15,-1
 61 0 l 2,16,17
 48 0 48 0 50 12 c 2,18,-1
 57 63 l 2,19,20
 58 75 58 75 71 75 c 2,21,-1
 149 75 l 1,22,-1
 405 362 l 1,23,-1
 228 643 l 1,24,-1
 151 643 l 2,25,26
 140 643 140 643 141 655 c 2,27,-1
 148 706 l 2,28,29
 150 718 150 718 162 718 c 2,30,-1
 402 718 l 2,31,32
 414 718 414 718 413 706 c 2,33,-1
 406 655 l 2,34,35
 404 643 404 643 392 643 c 2,36,-1
 323 643 l 1,37,-1
 463 417 l 1,38,-1
 664 643 l 1,39,-1
 603 643 l 2,40,41
 590 643 590 643 592 655 c 2,42,-1
 599 706 l 2,43,44
 600 718 600 718 613 718 c 2,45,-1
 854 718 l 2,46,47
 866 718 866 718 865 706 c 2,48,-1
 858 655 l 2,49,50
 856 643 856 643 844 643 c 2,51,-1
 760 643 l 1,52,-1
 506 362 l 1,53,-1
 677 75 l 1,54,-1
 756 75 l 2,55,56
 768 75 768 75 767 63 c 2,57,-1
 760 12 l 2,58,59
 758 0 758 0 746 0 c 2,0,-1
EndSplineSet
EndChar

StartChar: Y
Encoding: 89 89 60
Width: 759
GlyphClass: 2
Flags: W
LayerCount: 2
Fore
SplineSet
500 0 m 2,0,-1
 259 0 l 2,1,2
 246 0 246 0 248 12 c 2,3,-1
 255 63 l 2,4,5
 256 75 256 75 270 75 c 2,6,-1
 346 75 l 1,7,-1
 376 289 l 1,8,9
 375 290 375 290 346 359 c 0,10,11
 255 576 255 576 218 643 c 1,12,-1
 150 643 l 2,13,14
 138 643 138 643 140 655 c 2,15,-1
 147 706 l 2,16,17
 148 718 148 718 161 718 c 2,18,-1
 386 718 l 2,19,20
 398 718 398 718 397 706 c 2,21,-1
 390 655 l 2,22,23
 388 643 388 643 376 643 c 2,24,-1
 310 643 l 1,25,-1
 428 365 l 1,26,-1
 434 365 l 1,27,-1
 628 643 l 1,28,-1
 563 643 l 2,29,30
 550 643 550 643 552 655 c 2,31,-1
 559 706 l 2,32,33
 560 718 560 718 573 718 c 2,34,-1
 799 718 l 2,35,36
 812 718 812 718 810 706 c 2,37,-1
 803 655 l 2,38,39
 802 643 802 643 788 643 c 2,40,-1
 720 643 l 1,41,42
 660 570 660 570 512 359 c 1,43,-1
 463 290 l 1,44,-1
 433 75 l 1,45,-1
 510 75 l 2,46,47
 522 75 522 75 521 63 c 2,48,-1
 514 12 l 2,49,50
 512 0 512 0 500 0 c 2,0,-1
EndSplineSet
EndChar

StartChar: Z
Encoding: 90 90 61
Width: 641
GlyphClass: 2
Flags: W
LayerCount: 2
Fore
SplineSet
580 0 m 2,0,-1
 62 0 l 2,1,2
 48 0 48 0 50 13 c 2,3,-1
 57 56 l 2,4,5
 58 67 58 67 81 90 c 1,6,-1
 565 643 l 1,7,-1
 223 643 l 1,8,-1
 211 562 l 2,9,10
 209 548 209 548 196 548 c 2,11,-1
 139 548 l 2,12,13
 126 548 126 548 128 562 c 2,14,-1
 147 705 l 1,15,16
 150 718 150 718 163 718 c 2,17,-1
 681 718 l 2,18,19
 695 718 695 718 693 705 c 2,20,-1
 687 668 l 2,21,22
 684 650 684 650 661 627 c 1,23,-1
 178 75 l 1,24,-1
 520 75 l 1,25,-1
 532 156 l 2,26,27
 534 170 534 170 547 170 c 2,28,-1
 604 170 l 2,29,30
 617 170 617 170 615 156 c 2,31,-1
 595 13 l 2,32,33
 593 0 593 0 580 0 c 2,0,-1
EndSplineSet
EndChar

StartChar: bracketleft
Encoding: 91 91 62
Width: 304
GlyphClass: 2
Flags: W
LayerCount: 2
Fore
SplineSet
242 -71 m 2,0,-1
 41 -71 l 2,1,2
 28 -71 28 -71 30 -59 c 2,3,-1
 145 754 l 2,4,5
 146 766 146 766 158 766 c 2,6,-1
 360 766 l 2,7,8
 374 766 374 766 372 752 c 2,9,-1
 364 700 l 2,10,11
 362 687 362 687 350 687 c 2,12,-1
 219 687 l 1,13,-1
 123 8 l 1,14,-1
 254 8 l 2,15,16
 267 8 267 8 265 -6 c 2,17,-1
 258 -58 l 2,18,19
 256 -71 256 -71 242 -71 c 2,0,-1
EndSplineSet
EndChar

StartChar: backslash
Encoding: 92 92 63
Width: 405
GlyphClass: 2
Flags: W
LayerCount: 2
Fore
SplineSet
345 -74 m 2,0,-1
 286 -74 l 2,1,2
 274 -74 274 -74 273 -62 c 2,3,-1
 144 748 l 2,4,5
 142 760 142 760 155 760 c 2,6,-1
 214 760 l 2,7,8
 226 760 226 760 228 748 c 2,9,-1
 357 -62 l 2,10,11
 358 -74 358 -74 345 -74 c 2,0,-1
EndSplineSet
EndChar

StartChar: bracketright
Encoding: 93 93 64
Width: 304
GlyphClass: 2
Flags: W
LayerCount: 2
Fore
SplineSet
243 -71 m 2,0,-1
 42 -71 l 2,1,2
 28 -71 28 -71 30 -58 c 2,3,-1
 37 -6 l 1,4,5
 40 8 40 8 53 8 c 2,6,-1
 184 8 l 1,7,-1
 279 687 l 1,8,-1
 149 687 l 2,9,10
 135 687 135 687 137 700 c 2,11,-1
 145 752 l 2,12,13
 147 766 147 766 159 766 c 2,14,-1
 361 766 l 2,15,16
 374 766 374 766 372 754 c 2,17,-1
 258 -59 l 2,18,19
 256 -71 256 -71 243 -71 c 2,0,-1
EndSplineSet
EndChar

StartChar: underscore
Encoding: 95 95 65
Width: 554
GlyphClass: 2
Flags: W
LayerCount: 2
Fore
SplineSet
488 -100 m 2,0,-1
 37 -100 l 2,1,2
 24 -100 24 -100 26 -87 c 2,3,-1
 33 -36 l 2,4,5
 35 -23 35 -23 48 -23 c 2,6,-1
 499 -23 l 2,7,8
 513 -23 513 -23 511 -36 c 2,9,-1
 503 -87 l 2,10,11
 501 -100 501 -100 488 -100 c 2,0,-1
EndSplineSet
EndChar

StartChar: grave
Encoding: 96 96 66
Width: 291
GlyphClass: 2
Flags: W
LayerCount: 2
Fore
SplineSet
307 575 m 2,0,1
 302 569 302 569 297 569 c 128,-1,2
 292 569 292 569 288 573 c 2,3,-1
 139 707 l 2,4,5
 135 711 135 711 135 715.5 c 128,-1,6
 135 720 135 720 141 726 c 2,7,-1
 177 763 l 2,8,9
 182 769 182 769 187 769 c 128,-1,10
 192 769 192 769 197 765 c 2,11,-1
 337 623 l 2,12,13
 342 618 342 618 342 613.5 c 128,-1,14
 342 609 342 609 337 604 c 2,15,-1
 307 575 l 2,0,1
EndSplineSet
EndChar

StartChar: a
Encoding: 97 97 67
Width: 580
GlyphClass: 2
Flags: W
LayerCount: 2
Fore
SplineSet
529 0 m 2,0,-1
 442 0 l 2,1,2
 404 0 404 0 404 31 c 0,3,4
 404 36 404 36 405 42 c 2,5,-1
 412 93 l 1,6,-1
 410 93 l 1,7,8
 325 -8 325 -8 201 -8 c 0,9,10
 136 -8 136 -8 95.5 25 c 128,-1,11
 55 58 55 58 55 114 c 0,12,13
 55 204 55 204 133.5 247 c 128,-1,14
 212 290 212 290 347 290 c 2,15,-1
 431 290 l 1,16,-1
 433 302 l 2,17,18
 436 318 436 318 436 333 c 0,19,20
 436 427 436 427 320 427 c 0,21,22
 259 427 259 427 230.5 415.5 c 128,-1,23
 202 404 202 404 189.5 397 c 128,-1,24
 177 390 177 390 170.5 385.5 c 128,-1,25
 164 381 164 381 163 381 c 0,26,27
 152 377 152 377 148 384 c 2,28,-1
 125 419 l 2,29,30
 120 427 120 427 129 435.5 c 128,-1,31
 138 444 138 444 154.5 455.5 c 128,-1,32
 171 467 171 467 222 483 c 128,-1,33
 273 499 273 499 333 499 c 0,34,35
 519 499 519 499 519 344 c 0,36,37
 519 323 519 323 515 299 c 2,38,-1
 482 67 l 1,39,-1
 539 67 l 2,40,41
 550 67 550 67 549 55 c 2,42,-1
 543 12 l 2,43,44
 542 0 542 0 529 0 c 2,0,-1
343 230 m 2,45,46
 251 230 251 230 212 216.5 c 128,-1,47
 173 203 173 203 158 183.5 c 128,-1,48
 143 164 143 164 143 133.5 c 128,-1,49
 143 103 143 103 168 83 c 128,-1,50
 193 63 193 63 236 63 c 0,51,52
 334 63 334 63 411 149 c 1,53,-1
 422 230 l 1,54,-1
 343 230 l 2,45,46
EndSplineSet
Substitution2: "'salt' Stylistic Alternatives lookup 2 subtable" a.alt
Substitution2: "'aalt' Access All Alternates lookup 0 subtable" a.alt
EndChar

StartChar: b
Encoding: 98 98 68
Width: 613
GlyphClass: 2
Flags: W
LayerCount: 2
Fore
SplineSet
170 0 m 2,0,-1
 119 0 l 2,1,2
 108 0 108 0 109 12 c 2,3,-1
 199 651 l 1,4,-1
 143 651 l 2,5,6
 129 651 129 651 132 663 c 1,7,-1
 138 706 l 2,8,9
 140 718 140 718 152 718 c 2,10,-1
 275 718 l 2,11,12
 289 718 289 718 286 706 c 1,13,-1
 249 440 l 1,14,-1
 240 398 l 1,15,-1
 242 398 l 1,16,17
 266 439 266 439 311.5 469 c 128,-1,18
 357 499 357 499 421 499 c 0,19,20
 510 499 510 499 561.5 441 c 128,-1,21
 613 383 613 383 613 288 c 0,22,23
 613 158 613 158 537.5 75.5 c 128,-1,24
 462 -7 462 -7 348 -7 c 0,25,26
 285 -7 285 -7 247 22.5 c 128,-1,27
 209 52 209 52 198 94 c 1,28,-1
 196 94 l 1,29,-1
 185 12 l 2,30,31
 184 0 184 0 170 0 c 2,0,-1
347 63 m 0,32,33
 424 63 424 63 477 124 c 128,-1,34
 530 185 530 185 530 277 c 0,35,36
 530 347 530 347 493.5 388 c 128,-1,37
 457 429 457 429 392 429 c 128,-1,38
 327 429 327 429 272.5 369.5 c 128,-1,39
 218 310 218 310 218 216 c 0,40,41
 218 146 218 146 253.5 104.5 c 128,-1,42
 289 63 289 63 347 63 c 0,32,33
EndSplineSet
EndChar

StartChar: c
Encoding: 99 99 69
Width: 539
GlyphClass: 2
Flags: W
LayerCount: 2
Fore
SplineSet
129.5 51.5 m 128,-1,1
 70 110 70 110 70 211 c 0,2,3
 70 342 70 342 154 420.5 c 128,-1,4
 238 499 238 499 345.5 499 c 128,-1,5
 453 499 453 499 495 425 c 1,6,-1
 496 425 l 1,7,-1
 503 480 l 2,8,9
 505 493 505 493 517 493 c 2,10,-1
 555 493 l 2,11,12
 568 493 568 493 566 480 c 2,13,-1
 542 310 l 2,14,15
 540 298 540 298 528 298 c 2,16,-1
 483 298 l 2,17,18
 470 298 470 298 472 310 c 2,19,-1
 474 327 l 2,20,21
 475 331 475 331 475 336 c 0,22,23
 475 367 475 367 441.5 398 c 128,-1,24
 408 429 408 429 342.5 429 c 128,-1,25
 277 429 277 429 216 372.5 c 128,-1,26
 155 316 155 316 155 221 c 0,27,28
 155 148 155 148 197 105.5 c 128,-1,29
 239 63 239 63 295 63 c 128,-1,30
 351 63 351 63 401 90.5 c 128,-1,31
 451 118 451 118 468 141 c 0,32,33
 477 152 477 152 486 144 c 1,34,-1
 510 116 l 2,35,36
 519 107 519 107 510.5 96.5 c 128,-1,37
 502 86 502 86 487 71.5 c 128,-1,38
 472 57 472 57 444 38 c 0,39,40
 380 -7 380 -7 284.5 -7 c 128,-1,0
 189 -7 189 -7 129.5 51.5 c 128,-1,1
EndSplineSet
EndChar

StartChar: d
Encoding: 100 100 70
Width: 612
GlyphClass: 2
Flags: W
LayerCount: 2
Fore
SplineSet
562 0 m 2,0,-1
 475 0 l 2,1,2
 452 0 452 0 444.5 8.5 c 128,-1,3
 437 17 437 17 437 26.5 c 128,-1,4
 437 36 437 36 438 42 c 2,5,-1
 445 98 l 1,6,-1
 444 98 l 1,7,8
 422 56 422 56 373.5 24.5 c 128,-1,9
 325 -7 325 -7 262 -7 c 0,10,11
 174 -7 174 -7 122 51 c 128,-1,12
 70 109 70 109 70 207 c 0,13,14
 70 333 70 333 145.5 416 c 128,-1,15
 221 499 221 499 335 499 c 0,16,17
 396 499 396 499 433.5 470.5 c 128,-1,18
 471 442 471 442 483 401 c 1,19,-1
 484 401 l 1,20,21
 485 421 485 421 487 434 c 2,22,-1
 518 651 l 1,23,-1
 462 651 l 2,24,25
 450 651 450 651 451 663 c 2,26,-1
 457 706 l 2,27,28
 458 718 458 718 471 718 c 2,29,-1
 595 718 l 2,30,31
 608 718 608 718 606 706 c 2,32,-1
 516 67 l 1,33,-1
 572 67 l 2,34,35
 584 67 584 67 583 55 c 2,36,-1
 576 12 l 2,37,38
 574 0 574 0 562 0 c 2,0,-1
284 63 m 0,39,40
 359 63 359 63 412 123 c 128,-1,41
 465 183 465 183 465 277 c 0,42,43
 465 348 465 348 428.5 388.5 c 128,-1,44
 392 429 392 429 335 429 c 0,45,46
 261 429 261 429 207 370.5 c 128,-1,47
 153 312 153 312 153 218 c 0,48,49
 153 148 153 148 189 105.5 c 128,-1,50
 225 63 225 63 284 63 c 0,39,40
EndSplineSet
EndChar

StartChar: e
Encoding: 101 101 71
Width: 538
GlyphClass: 2
Flags: W
LayerCount: 2
Fore
SplineSet
517 236 m 2,0,-1
 157 236 l 1,1,2
 156 223 156 223 156 210 c 0,3,4
 156 146 156 146 194.5 104.5 c 128,-1,5
 233 63 233 63 294 63 c 128,-1,6
 355 63 355 63 401.5 89 c 128,-1,7
 448 115 448 115 468 140 c 0,8,9
 477 150 477 150 486 143 c 1,10,-1
 510 116 l 2,11,12
 519 107 519 107 511 97 c 128,-1,13
 503 87 503 87 486.5 72 c 128,-1,14
 470 57 470 57 442 38 c 0,15,16
 374 -7 374 -7 282 -7 c 128,-1,17
 190 -7 190 -7 130 52 c 128,-1,18
 70 111 70 111 70 205 c 128,-1,19
 70 299 70 299 111.5 366.5 c 128,-1,20
 153 434 153 434 215 466.5 c 128,-1,21
 277 499 277 499 345 499 c 0,22,23
 436 499 436 499 486.5 445.5 c 128,-1,24
 537 392 537 392 537 297 c 0,25,26
 537 236 537 236 517 236 c 2,0,-1
458 314 m 0,27,28
 458 364 458 364 429 398.5 c 128,-1,29
 400 433 400 433 340 433 c 128,-1,30
 280 433 280 433 232.5 399 c 128,-1,31
 185 365 185 365 167 297 c 1,32,-1
 457 297 l 1,33,34
 458 306 458 306 458 314 c 0,27,28
EndSplineSet
EndChar

StartChar: f
Encoding: 102 102 72
Width: 387
GlyphClass: 2
Flags: W
LayerCount: 2
Fore
SplineSet
279 0 m 2,0,-1
 53 0 l 2,1,2
 40 0 40 0 42 12 c 2,3,-1
 49 55 l 2,4,5
 50 67 50 67 62 67 c 2,6,-1
 118 67 l 1,7,-1
 169 425 l 1,8,-1
 111 425 l 2,9,10
 98 425 98 425 100 437 c 2,11,-1
 106 480 l 2,12,13
 108 492 108 492 120 492 c 2,14,-1
 178 492 l 1,15,-1
 187 554 l 1,16,17
 198 637 198 637 246.5 680.5 c 128,-1,18
 295 724 295 724 363.5 724 c 128,-1,19
 432 724 432 724 467 684 c 1,20,21
 472 680 472 680 472 676 c 128,-1,22
 472 672 472 672 467 667 c 2,23,-1
 438 636 l 2,24,25
 429 627 429 627 421 634 c 0,26,27
 397 653 397 653 363 653 c 128,-1,28
 329 653 329 653 302.5 627.5 c 128,-1,29
 276 602 276 602 269 553 c 2,30,-1
 261 492 l 1,31,-1
 389 492 l 2,32,33
 400 492 400 492 399 480 c 2,34,-1
 393 437 l 2,35,36
 392 425 392 425 379 425 c 2,37,-1
 252 425 l 1,38,-1
 201 67 l 1,39,-1
 289 67 l 2,40,41
 302 67 302 67 300 55 c 2,42,-1
 293 12 l 2,43,44
 292 0 292 0 279 0 c 2,0,-1
EndSplineSet
EndChar

StartChar: g
Encoding: 103 103 73
Width: 611
GlyphClass: 2
Flags: W
LayerCount: 2
Fore
SplineSet
235 -234 m 0,0,1
 186 -234 186 -234 161 -227 c 128,-1,2
 136 -220 136 -220 121 -214.5 c 128,-1,3
 106 -209 106 -209 96.5 -203.5 c 128,-1,4
 87 -198 87 -198 78 -192 c 0,5,6
 46 -169 46 -169 46 -158 c 0,7,8
 46 -154 46 -154 50 -150 c 2,9,-1
 81 -113 l 2,10,11
 88 -104 88 -104 98 -112 c 0,12,13
 129 -137 129 -137 144 -143 c 128,-1,14
 159 -149 159 -149 173 -153 c 0,15,16
 204 -162 204 -162 244 -162 c 0,17,18
 316 -162 316 -162 364 -127.5 c 128,-1,19
 412 -93 412 -93 423 -19 c 2,20,-1
 439 90 l 1,21,22
 414 49 414 49 369 21 c 128,-1,23
 324 -7 324 -7 262 -7 c 0,24,25
 172 -7 172 -7 120.5 52 c 128,-1,26
 69 111 69 111 69 207 c 0,27,28
 69 336 69 336 144.5 417.5 c 128,-1,29
 220 499 220 499 333 499 c 0,30,31
 395 499 395 499 433.5 470.5 c 128,-1,32
 472 442 472 442 486 401 c 1,33,-1
 488 401 l 1,34,-1
 498 480 l 2,35,36
 500 492 500 492 511 492 c 2,37,-1
 629 492 l 2,38,39
 642 492 642 492 640 480 c 2,40,-1
 634 437 l 2,41,42
 632 425 632 425 619 425 c 2,43,-1
 565 425 l 1,44,-1
 503 -19 l 2,45,46
 488 -126 488 -126 415 -180 c 128,-1,47
 342 -234 342 -234 235 -234 c 0,0,1
188.5 105 m 128,-1,49
 225 63 225 63 291 63 c 128,-1,50
 357 63 357 63 411 124.5 c 128,-1,51
 465 186 465 186 465 277 c 0,52,53
 465 347 465 347 428.5 388 c 128,-1,54
 392 429 392 429 335 429 c 0,55,56
 259 429 259 429 205.5 369.5 c 128,-1,57
 152 310 152 310 152 216 c 0,58,48
 152 147 152 147 188.5 105 c 128,-1,49
EndSplineSet
EndChar

StartChar: h
Encoding: 104 104 74
Width: 621
GlyphClass: 2
Flags: W
LayerCount: 2
Fore
SplineSet
570 0 m 2,0,-1
 475 0 l 2,1,2
 437 0 437 0 437 31 c 0,3,4
 437 36 437 36 438 42 c 2,5,-1
 474 305 l 2,6,7
 476 320 476 320 476 333 c 0,8,9
 476 371 476 371 460 394 c 0,10,11
 437 427 437 427 385 427 c 0,12,13
 329 427 329 427 280 368 c 1,14,15
 247 326 247 326 228 276 c 1,16,-1
 199 67 l 1,17,-1
 252 67 l 2,18,19
 264 67 264 67 263 55 c 2,20,-1
 257 12 l 2,21,22
 256 0 256 0 242 0 c 2,23,-1
 51 0 l 2,24,25
 38 0 38 0 40 12 c 2,26,-1
 47 55 l 2,27,28
 48 67 48 67 60 67 c 2,29,-1
 116 67 l 1,30,-1
 198 651 l 1,31,-1
 143 651 l 2,32,33
 129 651 129 651 132 663 c 1,34,-1
 138 706 l 2,35,36
 140 718 140 718 152 718 c 2,37,-1
 278 718 l 2,38,39
 290 718 290 718 289 706 c 2,40,-1
 257 479 l 2,41,42
 252 447 252 447 244.5 410 c 128,-1,43
 237 373 237 373 237 371 c 1,44,-1
 239 371 l 1,45,46
 242 384 242 384 258 411 c 128,-1,47
 274 438 274 438 291.5 454.5 c 128,-1,48
 309 471 309 471 341.5 485 c 128,-1,49
 374 499 374 499 413 499 c 0,50,51
 493 499 493 499 532 452 c 0,52,53
 562 415 562 415 562 359 c 0,54,55
 562 343 562 343 560 325 c 2,56,-1
 524 67 l 1,57,-1
 580 67 l 2,58,59
 592 67 592 67 591 55 c 2,60,-1
 585 12 l 2,61,62
 584 0 584 0 570 0 c 2,0,-1
EndSplineSet
EndChar

StartChar: i
Encoding: 105 105 75
Width: 293
GlyphClass: 2
Flags: W
LayerCount: 2
Fore
SplineSet
242 0 m 2,0,-1
 51 0 l 2,1,2
 38 0 38 0 40 12 c 2,3,-1
 47 55 l 2,4,5
 48 67 48 67 60 67 c 2,6,-1
 116 67 l 1,7,-1
 167 425 l 1,8,-1
 111 425 l 2,9,10
 98 425 98 425 100 437 c 2,11,-1
 106 480 l 2,12,13
 108 492 108 492 120 492 c 2,14,-1
 246 492 l 2,15,16
 258 492 258 492 257 480 c 2,17,-1
 199 67 l 1,18,-1
 252 67 l 2,19,20
 264 67 264 67 263 55 c 2,21,-1
 257 12 l 2,22,23
 256 0 256 0 242 0 c 2,0,-1
274 642.5 m 128,-1,25
 288 628 288 628 288 605 c 128,-1,26
 288 582 288 582 268 563.5 c 128,-1,27
 248 545 248 545 225 545 c 128,-1,28
 202 545 202 545 188.5 559 c 128,-1,29
 175 573 175 573 175 596 c 128,-1,30
 175 619 175 619 194 638 c 128,-1,31
 213 657 213 657 236.5 657 c 128,-1,24
 260 657 260 657 274 642.5 c 128,-1,25
EndSplineSet
EndChar

StartChar: j
Encoding: 106 106 76
Width: 326
GlyphClass: 2
Flags: W
LayerCount: 2
Fore
SplineSet
359 642.5 m 128,-1,1
 373 628 373 628 373 605 c 128,-1,2
 373 582 373 582 353 563.5 c 128,-1,3
 333 545 333 545 310 545 c 128,-1,4
 287 545 287 545 273.5 559 c 128,-1,5
 260 573 260 573 260 596 c 128,-1,6
 260 619 260 619 279 638 c 128,-1,7
 298 657 298 657 321.5 657 c 128,-1,0
 345 657 345 657 359 642.5 c 128,-1,1
192 425 m 2,8,9
 180 425 180 425 182 437 c 2,10,-1
 188 480 l 2,11,12
 190 492 190 492 202 492 c 2,13,-1
 329 492 l 2,14,15
 340 492 340 492 340 484 c 0,16,17
 340 482 340 482 339 480 c 2,18,-1
 263 -64 l 2,19,20
 251 -147 251 -147 202.5 -190.5 c 128,-1,21
 154 -234 154 -234 85.5 -234 c 128,-1,22
 17 -234 17 -234 -17 -195 c 0,23,24
 -21 -191 -21 -191 -21 -186 c 128,-1,25
 -21 -181 -21 -181 -16 -176 c 2,26,-1
 11 -146 l 2,27,28
 21 -136 21 -136 30 -144 c 0,29,30
 49 -163 49 -163 85 -163 c 128,-1,31
 121 -163 121 -163 147.5 -137.5 c 128,-1,32
 174 -112 174 -112 181 -63 c 2,33,-1
 249 425 l 1,34,-1
 192 425 l 2,8,9
EndSplineSet
EndChar

StartChar: k
Encoding: 107 107 77
Width: 614
GlyphClass: 2
Flags: W
LayerCount: 2
Fore
SplineSet
570 0 m 2,0,-1
 516 0 l 2,1,2
 487 0 487 0 468 31 c 2,3,-1
 324 271 l 1,4,-1
 215 181 l 1,5,-1
 199 67 l 1,6,-1
 252 67 l 2,7,8
 264 67 264 67 263 55 c 2,9,-1
 257 12 l 2,10,11
 256 0 256 0 242 0 c 2,12,-1
 51 0 l 2,13,14
 38 0 38 0 40 12 c 2,15,-1
 47 55 l 2,16,17
 48 67 48 67 60 67 c 2,18,-1
 116 67 l 1,19,-1
 198 651 l 1,20,-1
 143 651 l 2,21,22
 129 651 129 651 132 663 c 1,23,-1
 138 706 l 2,24,25
 140 718 140 718 152 718 c 2,26,-1
 278 718 l 2,27,28
 290 718 290 718 289 706 c 2,29,-1
 226 258 l 1,30,-1
 432 425 l 1,31,-1
 395 425 l 2,32,33
 382 425 382 425 384 437 c 2,34,-1
 390 480 l 1,35,36
 393 492 393 492 405 492 c 2,37,-1
 597 492 l 2,38,39
 608 492 608 492 607 480 c 2,40,-1
 601 437 l 2,41,42
 600 425 600 425 587 425 c 2,43,-1
 522 425 l 1,44,-1
 385 318 l 1,45,-1
 536 67 l 1,46,-1
 580 67 l 2,47,48
 592 67 592 67 591 55 c 2,49,-1
 584 12 l 2,50,51
 582 0 582 0 570 0 c 2,0,-1
EndSplineSet
Substitution2: "'salt' Stylistic Alternatives lookup 2 subtable" k.alt
Substitution2: "'aalt' Access All Alternates lookup 0 subtable" k.alt
EndChar

StartChar: l
Encoding: 108 108 78
Width: 293
GlyphClass: 2
Flags: W
LayerCount: 2
Fore
SplineSet
242 0 m 2,0,-1
 51 0 l 2,1,2
 38 0 38 0 40 12 c 2,3,-1
 47 55 l 2,4,5
 48 67 48 67 60 67 c 2,6,-1
 116 67 l 1,7,-1
 199 651 l 1,8,-1
 143 651 l 2,9,10
 129 651 129 651 132 663 c 1,11,-1
 138 706 l 2,12,13
 140 718 140 718 152 718 c 2,14,-1
 263 718 l 2,15,16
 288 718 288 718 288 699 c 0,17,18
 288 696 288 696 287 693 c 2,19,-1
 199 67 l 1,20,-1
 252 67 l 2,21,22
 264 67 264 67 263 55 c 2,23,-1
 257 12 l 2,24,25
 256 0 256 0 242 0 c 2,0,-1
EndSplineSet
EndChar

StartChar: m
Encoding: 109 109 79
Width: 931
GlyphClass: 2
Flags: W
LayerCount: 2
Fore
SplineSet
786 333 m 0,0,1
 786 370 786 370 769 394 c 0,2,3
 746 427 746 427 696 427 c 0,4,5
 617 427 617 427 558 317 c 1,6,-1
 524 67 l 1,7,-1
 580 67 l 2,8,9
 592 67 592 67 591 55 c 2,10,-1
 584 12 l 2,11,12
 582 0 582 0 570 0 c 2,13,-1
 379 0 l 2,14,15
 366 0 366 0 368 12 c 2,16,-1
 375 55 l 2,17,18
 376 67 376 67 388 67 c 2,19,-1
 441 67 l 1,20,-1
 474 305 l 2,21,22
 476 320 476 320 476 333 c 0,23,24
 476 370 476 370 459 394 c 0,25,26
 436 427 436 427 386 427 c 0,27,28
 352 427 352 427 321.5 407 c 128,-1,29
 291 387 291 387 272 358 c 0,30,31
 244 317 244 317 230 281 c 1,32,-1
 199 67 l 1,33,-1
 247 67 l 2,34,35
 260 67 260 67 258 55 c 2,36,-1
 252 12 l 2,37,38
 250 0 250 0 238 0 c 2,39,-1
 51 0 l 2,40,41
 38 0 38 0 40 12 c 2,42,-1
 47 55 l 2,43,44
 48 67 48 67 60 67 c 2,45,-1
 116 67 l 1,46,-1
 167 425 l 1,47,-1
 111 425 l 2,48,49
 98 425 98 425 100 437 c 2,50,-1
 106 480 l 2,51,52
 108 492 108 492 120 492 c 2,53,-1
 218 492 l 2,54,55
 236 492 236 492 242 486 c 128,-1,56
 248 480 248 480 246 462 c 2,57,-1
 231 360 l 1,58,-1
 234 360 l 1,59,-1
 239 375 l 2,60,61
 242 384 242 384 256 408 c 128,-1,62
 270 432 270 432 288.5 450.5 c 128,-1,63
 307 469 307 469 340.5 484 c 128,-1,64
 374 499 374 499 425 499 c 128,-1,65
 476 499 476 499 512.5 470 c 128,-1,66
 549 441 549 441 558 391 c 1,67,68
 612 499 612 499 724 499 c 0,69,70
 805 499 805 499 842 451 c 0,71,72
 871 414 871 414 871 359 c 0,73,74
 871 343 871 343 869 325 c 2,75,-1
 834 67 l 1,76,-1
 890 67 l 2,77,78
 902 67 902 67 901 55 c 2,79,-1
 895 12 l 2,80,81
 894 0 894 0 880 0 c 2,82,-1
 785 0 l 2,83,84
 762 0 762 0 754.5 8.5 c 128,-1,85
 747 17 747 17 747 26.5 c 128,-1,86
 747 36 747 36 748 42 c 2,87,-1
 784 305 l 2,88,89
 786 320 786 320 786 333 c 0,0,1
EndSplineSet
EndChar

StartChar: n
Encoding: 110 110 80
Width: 621
GlyphClass: 2
Flags: W
LayerCount: 2
Fore
SplineSet
570 0 m 2,0,-1
 475 0 l 2,1,2
 437 0 437 0 437 31 c 0,3,4
 437 36 437 36 438 42 c 2,5,-1
 474 305 l 2,6,7
 476 320 476 320 476 333 c 0,8,9
 476 370 476 370 459 394 c 0,10,11
 436 427 436 427 386 427 c 0,12,13
 352 427 352 427 321 406.5 c 128,-1,14
 290 386 290 386 271 356 c 0,15,16
 241 311 241 311 228 277 c 1,17,-1
 199 67 l 1,18,-1
 252 67 l 2,19,20
 264 67 264 67 263 55 c 2,21,-1
 257 12 l 2,22,23
 256 0 256 0 242 0 c 2,24,-1
 51 0 l 2,25,26
 38 0 38 0 40 12 c 2,27,-1
 47 55 l 2,28,29
 48 67 48 67 60 67 c 2,30,-1
 116 67 l 1,31,-1
 167 425 l 1,32,-1
 111 425 l 2,33,34
 98 425 98 425 100 437 c 2,35,-1
 106 480 l 2,36,37
 108 492 108 492 120 492 c 2,38,-1
 238 492 l 2,39,40
 250 492 250 492 248 480 c 2,41,-1
 230 360 l 1,42,-1
 233 360 l 1,43,44
 235 374 235 374 252 403 c 128,-1,45
 269 432 269 432 287.5 450.5 c 128,-1,46
 306 469 306 469 339.5 484 c 128,-1,47
 373 499 373 499 414 499 c 0,48,49
 494 499 494 499 532 452 c 0,50,51
 562 415 562 415 562 359 c 0,52,53
 562 343 562 343 560 325 c 2,54,-1
 524 67 l 1,55,-1
 580 67 l 2,56,57
 592 67 592 67 591 55 c 2,58,-1
 585 12 l 2,59,60
 584 0 584 0 570 0 c 2,0,-1
EndSplineSet
EndChar

StartChar: o
Encoding: 111 111 81
Width: 575
GlyphClass: 2
Flags: W
LayerCount: 2
Fore
SplineSet
286 -7 m 0,0,1
 190 -7 190 -7 130 52.5 c 128,-1,2
 70 112 70 112 70 212 c 0,3,4
 70 341 70 341 154.5 420 c 128,-1,5
 239 499 239 499 358 499 c 0,6,7
 454 499 454 499 514 440.5 c 128,-1,8
 574 382 574 382 574 283 c 0,9,10
 574 155 574 155 491 74 c 128,-1,11
 408 -7 408 -7 286 -7 c 0,0,1
194.5 106 m 128,-1,13
 235 63 235 63 303.5 63 c 128,-1,14
 372 63 372 63 431 122.5 c 128,-1,15
 490 182 490 182 490 274 c 0,16,17
 490 344 490 344 449 386.5 c 128,-1,18
 408 429 408 429 348 429 c 0,19,20
 272 429 272 429 213 370.5 c 128,-1,21
 154 312 154 312 154 220 c 0,22,12
 154 149 154 149 194.5 106 c 128,-1,13
EndSplineSet
EndChar

StartChar: p
Encoding: 112 112 82
Width: 613
GlyphClass: 2
Flags: W
LayerCount: 2
Fore
SplineSet
220 -225 m 2,0,-1
 19 -225 l 2,1,2
 6 -225 6 -225 8 -213 c 2,3,-1
 15 -170 l 2,4,5
 16 -158 16 -158 28 -158 c 2,6,-1
 85 -158 l 1,7,-1
 167 425 l 1,8,-1
 113 425 l 2,9,10
 100 425 100 425 102 437 c 2,11,-1
 108 480 l 2,12,13
 110 492 110 492 122 492 c 2,14,-1
 239 492 l 2,15,16
 253 492 253 492 250 480 c 1,17,-1
 237 397 l 1,18,-1
 239 397 l 1,19,20
 300 499 300 499 419 499 c 0,21,22
 508 499 508 499 560 441.5 c 128,-1,23
 612 384 612 384 612 287 c 0,24,25
 612 161 612 161 538 77 c 128,-1,26
 464 -7 464 -7 349 -7 c 0,27,28
 287 -7 287 -7 249.5 21.5 c 128,-1,29
 212 50 212 50 200 91 c 1,30,-1
 197 91 l 1,31,32
 195 59 195 59 193 45 c 2,33,-1
 165 -158 l 1,34,-1
 230 -158 l 2,35,36
 242 -158 242 -158 240 -170 c 2,37,-1
 235 -213 l 2,38,39
 234 -225 234 -225 220 -225 c 2,0,-1
347 63 m 0,40,41
 422 63 422 63 476 123 c 128,-1,42
 530 183 530 183 530 276 c 0,43,44
 530 346 530 346 494 387.5 c 128,-1,45
 458 429 458 429 392.5 429 c 128,-1,46
 327 429 327 429 271.5 371.5 c 128,-1,47
 216 314 216 314 216 211 c 0,48,49
 216 143 216 143 254 103 c 128,-1,50
 292 63 292 63 347 63 c 0,40,41
EndSplineSet
EndChar

StartChar: q
Encoding: 113 113 83
Width: 613
GlyphClass: 2
Flags: W
LayerCount: 2
Fore
SplineSet
531 -225 m 2,0,-1
 330 -225 l 2,1,2
 318 -225 318 -225 319 -213 c 2,3,-1
 325 -170 l 2,4,5
 326 -158 326 -158 338 -158 c 2,6,-1
 404 -158 l 1,7,-1
 433 50 l 1,8,-1
 442 95 l 1,9,-1
 440 95 l 1,10,11
 416 53 416 53 369.5 23 c 128,-1,12
 323 -7 323 -7 262 -7 c 0,13,14
 173 -7 173 -7 121.5 52 c 128,-1,15
 70 111 70 111 70 207 c 0,16,17
 70 337 70 337 145 418 c 128,-1,18
 220 499 220 499 334 499 c 0,19,20
 396 499 396 499 434.5 470.5 c 128,-1,21
 473 442 473 442 486 402 c 1,22,-1
 488 402 l 1,23,-1
 498 480 l 2,24,25
 500 492 500 492 512 492 c 2,26,-1
 563 492 l 2,27,28
 576 492 576 492 574 480 c 2,29,-1
 484 -158 l 1,30,-1
 540 -158 l 2,31,32
 552 -158 552 -158 551 -170 c 2,33,-1
 545 -213 l 1,34,35
 542 -225 542 -225 531 -225 c 2,0,-1
284 63 m 0,36,37
 358 63 358 63 411.5 122.5 c 128,-1,38
 465 182 465 182 465 277 c 0,39,40
 465 348 465 348 429 388.5 c 128,-1,41
 393 429 393 429 336 429 c 0,42,43
 260 429 260 429 206.5 370 c 128,-1,44
 153 311 153 311 153 217 c 0,45,46
 153 147 153 147 189 105 c 128,-1,47
 225 63 225 63 284 63 c 0,36,37
EndSplineSet
EndChar

StartChar: r
Encoding: 114 114 84
Width: 421
GlyphClass: 2
Flags: W
LayerCount: 2
Fore
SplineSet
242 0 m 2,0,-1
 51 0 l 2,1,2
 38 0 38 0 40 12 c 2,3,-1
 47 55 l 2,4,5
 48 67 48 67 60 67 c 2,6,-1
 116 67 l 1,7,-1
 167 425 l 1,8,-1
 111 425 l 2,9,10
 98 425 98 425 100 437 c 2,11,-1
 106 480 l 2,12,13
 108 492 108 492 120 492 c 2,14,-1
 238 492 l 2,15,16
 251 492 251 492 248 480 c 1,17,-1
 231 355 l 1,18,-1
 234 355 l 1,19,20
 240 372 240 372 261.5 399.5 c 128,-1,21
 283 427 283 427 307 445.5 c 128,-1,22
 331 464 331 464 374 479 c 128,-1,23
 417 494 417 494 468 494 c 0,24,25
 481 494 481 494 479 481 c 2,26,-1
 471 428 l 2,27,28
 469 415 469 415 457 415 c 2,29,-1
 436 415 l 2,30,31
 350 415 350 415 291 360 c 128,-1,32
 232 305 232 305 222 235 c 2,33,-1
 199 67 l 1,34,-1
 252 67 l 2,35,36
 264 67 264 67 263 55 c 2,37,-1
 257 12 l 2,38,39
 256 0 256 0 242 0 c 2,0,-1
EndSplineSet
EndChar

StartChar: s
Encoding: 115 115 85
Width: 486
GlyphClass: 2
Flags: W
LayerCount: 2
Fore
SplineSet
259 -7 m 0,0,1
 192 -7 192 -7 156 18 c 128,-1,2
 120 43 120 43 112 65 c 1,3,-1
 110 65 l 1,4,5
 105 16 105 16 105 13 c 0,6,7
 103 0 103 0 89 0 c 2,8,-1
 55 0 l 2,9,10
 42 0 42 0 44 13 c 2,11,-1
 65 163 l 2,12,13
 67 176 67 176 80 176 c 2,14,-1
 119 176 l 2,15,16
 133 176 133 176 131 163 c 2,17,-1
 128 143 l 1,18,19
 129 140 129 140 130.5 134 c 128,-1,20
 132 128 132 128 141 113.5 c 128,-1,21
 150 99 150 99 163 88 c 0,22,23
 196 58 196 58 255.5 58 c 128,-1,24
 315 58 315 58 346 81 c 128,-1,25
 377 104 377 104 377 142 c 0,26,27
 377 167 377 167 349 182.5 c 128,-1,28
 321 198 321 198 281 207.5 c 128,-1,29
 241 217 241 217 201 229.5 c 128,-1,30
 161 242 161 242 133 270 c 128,-1,31
 105 298 105 298 105 341 c 0,32,33
 105 412 105 412 159.5 455.5 c 128,-1,34
 214 499 214 499 294 499 c 0,35,36
 393 499 393 499 427 441 c 1,37,-1
 429 441 l 1,38,39
 432 473 432 473 432 474 c 0,40,41
 433 491 433 491 448 491 c 2,42,-1
 480 491 l 2,43,44
 493 491 493 491 491 478 c 2,45,-1
 471 339 l 2,46,47
 469 326 469 326 455 326 c 2,48,-1
 416 326 l 2,49,50
 403 326 403 326 405 339 c 2,51,-1
 407 353 l 2,52,53
 408 357 408 357 408 361 c 0,54,55
 408 384 408 384 381.5 408.5 c 128,-1,56
 355 433 355 433 303 433 c 128,-1,57
 251 433 251 433 219 410 c 128,-1,58
 187 387 187 387 187 348 c 0,59,60
 187 303 187 303 285 278 c 0,61,62
 326 267 326 267 367 254.5 c 128,-1,63
 408 242 408 242 436.5 215.5 c 128,-1,64
 465 189 465 189 465 148 c 0,65,66
 465 84 465 84 413.5 38.5 c 128,-1,67
 362 -7 362 -7 259 -7 c 0,0,1
EndSplineSet
EndChar

StartChar: t
Encoding: 116 116 86
Width: 401
GlyphClass: 2
Flags: W
LayerCount: 2
Fore
SplineSet
268 -7 m 0,0,1
 192 -7 192 -7 156 36 c 0,2,3
 128 69 128 69 128 124 c 0,4,5
 128 142 128 142 131 163 c 2,6,-1
 168 425 l 1,7,-1
 111 425 l 2,8,9
 97 425 97 425 99 438 c 2,10,-1
 105 479 l 2,11,12
 107 492 107 492 121 492 c 2,13,-1
 177 492 l 1,14,-1
 191 593 l 2,15,16
 193 607 193 607 207 607 c 2,17,-1
 263 607 l 2,18,19
 277 607 277 607 275 593 c 2,20,-1
 260 492 l 1,21,-1
 387 492 l 2,22,23
 399 492 399 492 399 483 c 0,24,25
 399 481 399 481 398 479 c 2,26,-1
 393 438 l 2,27,28
 391 425 391 425 377 425 c 2,29,-1
 251 425 l 1,30,-1
 215 165 l 2,31,32
 213 150 213 150 213 137 c 0,33,34
 213 64 213 64 285 64 c 0,35,36
 316 64 316 64 342 85 c 1,37,38
 355 88 355 88 360 82 c 2,39,-1
 380 51 l 2,40,41
 386 42 386 42 374 32 c 0,42,43
 325 -7 325 -7 268 -7 c 0,0,1
EndSplineSet
EndChar

StartChar: u
Encoding: 117 117 87
Width: 608
GlyphClass: 2
Flags: W
LayerCount: 2
Fore
SplineSet
202 492 m 2,0,1
 241 492 241 492 241 460 c 0,2,3
 241 456 241 456 240 450 c 2,4,-1
 202 187 l 2,5,6
 200 173 200 173 200 160 c 0,7,8
 200 122 200 122 218 98 c 1,9,10
 241 65 241 65 291 65 c 0,11,12
 322 65 322 65 350 81 c 128,-1,13
 378 97 378 97 395.5 119 c 128,-1,14
 413 141 413 141 426 164 c 0,15,16
 450 208 450 208 450 220 c 1,17,-1
 478 425 l 1,18,-1
 425 425 l 2,19,20
 412 425 412 425 414 437 c 2,21,-1
 421 480 l 2,22,23
 422 492 422 492 434 492 c 2,24,-1
 558 492 l 2,25,26
 570 492 570 492 569 480 c 2,27,-1
 511 67 l 1,28,-1
 567 67 l 2,29,30
 578 67 578 67 577 55 c 2,31,-1
 571 12 l 2,32,33
 570 0 570 0 557 0 c 2,34,-1
 470 0 l 2,35,36
 431 0 431 0 431 32 c 0,37,38
 431 36 431 36 432 42 c 2,39,-1
 447 133 l 1,40,-1
 444 133 l 1,41,42
 441 118 441 118 425 89 c 128,-1,43
 409 60 409 60 391 41.5 c 128,-1,44
 373 23 373 23 340 8 c 128,-1,45
 307 -7 307 -7 267 -7 c 0,46,47
 187 -7 187 -7 147 40 c 1,48,49
 116 78 116 78 116 134 c 0,50,51
 116 150 116 150 118 167 c 2,52,-1
 153 425 l 1,53,-1
 97 425 l 2,54,55
 84 425 84 425 86 437 c 2,56,-1
 93 480 l 2,57,58
 94 492 94 492 106 492 c 2,59,-1
 202 492 l 2,0,1
EndSplineSet
EndChar

StartChar: v
Encoding: 118 118 88
Width: 588
GlyphClass: 2
Flags: W
LayerCount: 2
Fore
SplineSet
326 0 m 2,0,-1
 259 0 l 2,1,2
 249 0 249 0 245 3.5 c 128,-1,3
 241 7 241 7 239 18 c 2,4,-1
 138 425 l 1,5,-1
 82 425 l 2,6,7
 70 425 70 425 71 437 c 2,8,-1
 78 480 l 2,9,10
 80 492 80 492 91 492 c 2,11,-1
 277 492 l 2,12,13
 288 492 288 492 287 480 c 2,14,-1
 282 437 l 2,15,16
 280 425 280 425 267 425 c 2,17,-1
 223 425 l 1,18,-1
 304 88 l 1,19,-1
 306 88 l 1,20,-1
 483 425 l 1,21,-1
 438 425 l 2,22,23
 426 425 426 425 428 437 c 2,24,-1
 434 480 l 2,25,26
 436 492 436 492 448 492 c 2,27,-1
 634 492 l 2,28,29
 646 492 646 492 645 480 c 2,30,-1
 639 437 l 2,31,32
 638 425 638 425 625 425 c 2,33,-1
 569 425 l 1,34,-1
 352 18 l 2,35,36
 342 0 342 0 326 0 c 2,0,-1
EndSplineSet
EndChar

StartChar: w
Encoding: 119 119 89
Width: 812
GlyphClass: 2
Flags: W
LayerCount: 2
Fore
SplineSet
576 0 m 2,0,-1
 517 0 l 2,1,2
 496 0 496 0 496 21 c 1,3,-1
 459 356 l 1,4,-1
 456 356 l 1,5,-1
 324 21 l 1,6,7
 317 0 317 0 296 0 c 2,8,-1
 238 0 l 2,9,10
 220 0 220 0 217 21 c 2,11,-1
 142 425 l 1,12,-1
 86 425 l 2,13,14
 74 425 74 425 75 437 c 2,15,-1
 82 480 l 2,16,17
 84 492 84 492 95 492 c 2,18,-1
 282 492 l 2,19,20
 294 492 294 492 292 480 c 2,21,-1
 286 437 l 2,22,23
 284 425 284 425 272 425 c 2,24,-1
 226 425 l 1,25,-1
 280 88 l 1,26,-1
 282 88 l 1,27,-1
 417 425 l 1,28,-1
 379 425 l 2,29,30
 366 425 366 425 368 437 c 2,31,-1
 375 480 l 2,32,33
 376 492 376 492 388 492 c 2,34,-1
 564 492 l 2,35,36
 576 492 576 492 575 480 c 2,37,-1
 568 437 l 2,38,39
 566 425 566 425 554 425 c 2,40,-1
 515 425 l 1,41,-1
 557 88 l 1,42,-1
 559 88 l 1,43,-1
 705 425 l 1,44,-1
 660 425 l 2,45,46
 648 425 648 425 650 437 c 2,47,-1
 656 480 l 2,48,49
 658 492 658 492 670 492 c 2,50,-1
 856 492 l 2,51,52
 868 492 868 492 867 480 c 2,53,-1
 861 437 l 2,54,55
 860 425 860 425 846 425 c 2,56,-1
 792 425 l 1,57,-1
 603 21 l 2,58,59
 594 0 594 0 576 0 c 2,0,-1
EndSplineSet
EndChar

StartChar: x
Encoding: 120 120 90
Width: 557
GlyphClass: 2
Flags: W
LayerCount: 2
Fore
SplineSet
523 0 m 2,0,-1
 335 0 l 2,1,2
 324 0 324 0 325 12 c 2,3,-1
 331 55 l 2,4,5
 332 67 332 67 345 67 c 2,6,-1
 395 67 l 1,7,-1
 298 212 l 1,8,-1
 167 67 l 1,9,-1
 212 67 l 2,10,11
 224 67 224 67 223 55 c 2,12,-1
 217 12 l 2,13,14
 216 0 216 0 203 0 c 2,15,-1
 34 0 l 2,16,17
 22 0 22 0 24 12 c 2,18,-1
 30 55 l 2,19,20
 32 67 32 67 44 67 c 2,21,-1
 92 67 l 1,22,-1
 264 251 l 1,23,-1
 143 425 l 1,24,-1
 95 425 l 2,25,26
 82 425 82 425 84 437 c 2,27,-1
 90 480 l 2,28,29
 92 492 92 492 104 492 c 2,30,-1
 291 492 l 2,31,32
 304 492 304 492 302 480 c 2,33,-1
 296 437 l 1,34,35
 293 425 293 425 282 425 c 2,36,-1
 235 425 l 1,37,-1
 333 282 l 1,38,-1
 454 425 l 1,39,-1
 415 425 l 2,40,41
 402 425 402 425 404 437 c 2,42,-1
 410 480 l 2,43,44
 412 492 412 492 424 492 c 2,45,-1
 593 492 l 2,46,47
 604 492 604 492 603 480 c 2,48,-1
 597 437 l 1,49,50
 594 425 594 425 583 425 c 2,51,-1
 530 425 l 1,52,-1
 368 240 l 1,53,-1
 489 67 l 1,54,-1
 532 67 l 2,55,56
 544 67 544 67 543 55 c 2,57,-1
 537 12 l 2,58,59
 536 0 536 0 523 0 c 2,0,-1
EndSplineSet
EndChar

StartChar: y
Encoding: 121 121 91
Width: 590
GlyphClass: 2
Flags: W
LayerCount: 2
Fore
SplineSet
263 11 m 2,0,1
 253 11 253 11 248 16.5 c 128,-1,2
 243 22 243 22 240 36 c 2,3,-1
 142 425 l 1,4,-1
 87 425 l 2,5,6
 74 425 74 425 76 437 c 2,7,-1
 82 480 l 2,8,9
 84 492 84 492 96 492 c 2,10,-1
 277 492 l 2,11,12
 290 492 290 492 287 480 c 1,13,-1
 282 437 l 2,14,15
 280 425 280 425 267 425 c 2,16,-1
 227 425 l 1,17,-1
 308 86 l 1,18,-1
 310 86 l 1,19,-1
 477 425 l 1,20,-1
 432 425 l 2,21,22
 420 425 420 425 422 437 c 2,23,-1
 428 480 l 2,24,25
 430 492 430 492 442 492 c 2,26,-1
 628 492 l 2,27,28
 640 492 640 492 638 480 c 2,29,-1
 633 437 l 2,30,31
 632 425 632 425 618 425 c 2,32,-1
 563 425 l 1,33,-1
 315 -64 l 2,34,35
 270 -153 270 -153 229 -193.5 c 128,-1,36
 188 -234 188 -234 124.5 -234 c 128,-1,37
 61 -234 61 -234 27 -195 c 0,38,39
 22 -190 22 -190 22 -185.5 c 128,-1,40
 22 -181 22 -181 26 -177 c 2,41,-1
 56 -145 l 2,42,43
 62 -139 62 -139 73 -143 c 1,44,45
 98 -163 98 -163 129.5 -163 c 128,-1,46
 161 -163 161 -163 185 -141 c 128,-1,47
 209 -119 209 -119 238 -63 c 2,48,-1
 275 11 l 1,49,-1
 263 11 l 2,0,1
EndSplineSet
Substitution2: "'salt' Stylistic Alternatives lookup 2 subtable" y.alt
Substitution2: "'aalt' Access All Alternates lookup 0 subtable" y.alt
EndChar

StartChar: z
Encoding: 122 122 92
Width: 519
GlyphClass: 2
Flags: W
LayerCount: 2
Fore
SplineSet
468 0 m 2,0,-1
 51 0 l 2,1,2
 38 0 38 0 40 12 c 2,3,-1
 46 53 l 2,4,5
 49 73 49 73 66 87 c 1,6,-1
 437 425 l 1,7,-1
 167 425 l 1,8,-1
 156 348 l 2,9,10
 154 336 154 336 141 336 c 2,11,-1
 98 336 l 2,12,13
 86 336 86 336 88 348 c 2,14,-1
 106 480 l 2,15,16
 108 492 108 492 120 492 c 2,17,-1
 538 492 l 2,18,19
 549 492 549 492 549 484 c 0,20,21
 549 482 549 482 548 480 c 2,22,-1
 543 445 l 2,23,24
 540 426 540 426 524 413 c 1,25,-1
 148 67 l 1,26,-1
 422 67 l 1,27,-1
 433 146 l 2,28,29
 434 158 434 158 447 158 c 2,30,-1
 491 158 l 2,31,32
 504 158 504 158 501 146 c 1,33,-1
 483 12 l 2,34,35
 482 0 482 0 468 0 c 2,0,-1
EndSplineSet
EndChar

StartChar: braceleft
Encoding: 123 123 93
Width: 341
GlyphClass: 2
Flags: W
LayerCount: 2
Fore
SplineSet
279 -72 m 0,0,1
 130 -72 130 -72 130 50 c 0,2,3
 130 66 130 66 133 84 c 2,4,-1
 149 204 l 2,5,6
 151 217 151 217 151 239.5 c 128,-1,7
 151 262 151 262 133.5 290.5 c 128,-1,8
 116 319 116 319 96 319 c 0,9,10
 83 319 83 319 85 333 c 2,11,-1
 89 364 l 2,12,13
 91 377 91 377 108.5 377.5 c 128,-1,14
 126 378 126 378 154.5 410 c 128,-1,15
 183 442 183 442 190 493 c 2,16,-1
 206 607 l 1,17,18
 230 765 230 765 396 765 c 0,19,20
 410 765 410 765 408 752 c 2,21,-1
 401 700 l 2,22,23
 399 687 399 687 385 687 c 0,24,25
 341 687 341 687 318.5 666.5 c 128,-1,26
 296 646 296 646 289 600 c 2,27,-1
 274 494 l 2,28,29
 269 454 269 454 248 422 c 128,-1,30
 227 390 227 390 209 378 c 2,31,-1
 191 365 l 1,32,-1
 186 331 l 1,33,34
 188 329 188 329 192 326 c 128,-1,35
 196 323 196 323 206 312 c 0,36,37
 234 277 234 277 234 226 c 0,38,39
 234 215 234 215 233 203 c 2,40,-1
 218 91 l 2,41,42
 216 78 216 78 216 58.5 c 128,-1,43
 216 39 216 39 230.5 22.5 c 128,-1,44
 245 6 245 6 290 6 c 0,45,46
 303 6 303 6 301 -7 c 2,47,-1
 294 -59 l 2,48,49
 292 -72 292 -72 279 -72 c 0,0,1
EndSplineSet
EndChar

StartChar: bar
Encoding: 124 124 94
Width: 160
GlyphClass: 2
Flags: W
LayerCount: 2
Fore
SplineSet
91 -131 m 2,0,-1
 32 -131 l 2,1,2
 20 -131 20 -131 21 -119 c 2,3,-1
 143 748 l 2,4,5
 144 760 144 760 158 760 c 2,6,-1
 217 760 l 2,7,8
 228 760 228 760 227 748 c 2,9,-1
 105 -119 l 2,10,11
 104 -131 104 -131 91 -131 c 2,0,-1
EndSplineSet
EndChar

StartChar: braceright
Encoding: 125 125 95
Width: 341
GlyphClass: 2
Flags: W
LayerCount: 2
Fore
SplineSet
41 -72 m 0,0,1
 28 -72 28 -72 30 -59 c 2,2,-1
 37 -7 l 2,3,4
 39 6 39 6 52 6 c 0,5,6
 97 6 97 6 119.5 25.5 c 128,-1,7
 142 45 142 45 148 91 c 2,8,-1
 164 203 l 1,9,10
 171 264 171 264 221 312 c 0,11,12
 232 322 232 322 247 331 c 1,13,-1
 252 365 l 1,14,15
 250 367 250 367 246 370 c 128,-1,16
 242 373 242 373 231.5 384.5 c 128,-1,17
 221 396 221 396 216 410 c 128,-1,18
 211 424 211 424 206.5 441 c 128,-1,19
 202 458 202 458 202 470 c 128,-1,20
 202 482 202 482 205 494 c 1,21,-1
 220 600 l 2,22,23
 222 613 222 613 222 632.5 c 128,-1,24
 222 652 222 652 207.5 669.5 c 128,-1,25
 193 687 193 687 148 687 c 0,26,27
 134 687 134 687 136 700 c 2,28,-1
 144 752 l 2,29,30
 146 765 146 765 159 765 c 0,31,32
 234 765 234 765 276 728 c 0,33,34
 308 700 308 700 308 643 c 0,35,36
 308 626 308 626 305 607 c 2,37,-1
 289 493 l 2,38,39
 287 480 287 480 287 457 c 128,-1,40
 287 434 287 434 304.5 406 c 128,-1,41
 322 378 322 378 342 378 c 0,42,43
 355 378 355 378 353 364 c 2,44,-1
 349 333 l 2,45,46
 347 319 347 319 330.5 319 c 128,-1,47
 314 319 314 319 284.5 286.5 c 128,-1,48
 255 254 255 254 248 204 c 2,49,-1
 231 84 l 1,50,51
 210 -72 210 -72 41 -72 c 0,0,1
EndSplineSet
EndChar

StartChar: exclamdown
Encoding: 161 161 96
Width: 182
GlyphClass: 2
Flags: W
LayerCount: 2
Fore
SplineSet
83 -268 m 2,0,-1
 23 -268 l 2,1,2
 12 -268 12 -268 13 -256 c 2,3,-1
 96 332 l 2,4,5
 98 344 98 344 109 344 c 2,6,-1
 169 344 l 2,7,8
 182 344 182 344 180 332 c 2,9,-1
 97 -256 l 2,10,11
 96 -268 96 -268 83 -268 c 2,0,-1
200 527.5 m 128,-1,13
 213 514 213 514 213 492 c 128,-1,14
 213 470 213 470 195 452.5 c 128,-1,15
 177 435 177 435 154.5 435 c 128,-1,16
 132 435 132 435 119 448.5 c 128,-1,17
 106 462 106 462 106 484 c 128,-1,18
 106 506 106 506 124.5 523.5 c 128,-1,19
 143 541 143 541 165 541 c 128,-1,12
 187 541 187 541 200 527.5 c 128,-1,13
EndSplineSet
EndChar

StartChar: cent
Encoding: 162 162 97
Width: 539
GlyphClass: 2
Flags: W
LayerCount: 2
Fore
SplineSet
298 -13 m 2,0,-1
 255 -13 l 2,1,2
 242 -13 242 -13 244 -1 c 2,3,-1
 252 53 l 1,4,5
 174 64 174 64 126 121 c 128,-1,6
 78 178 78 178 78 268 c 0,7,8
 78 388 78 388 150.5 464.5 c 128,-1,9
 223 541 223 541 322 553 c 1,10,-1
 332 624 l 2,11,12
 334 636 334 636 347 636 c 2,13,-1
 390 636 l 2,14,15
 402 636 402 636 400 624 c 2,16,-1
 390 551 l 1,17,18
 480 538 480 538 503 481 c 1,19,-1
 506 481 l 1,20,-1
 511 537 l 2,21,22
 512 549 512 549 525 549 c 2,23,-1
 563 549 l 2,24,25
 576 549 576 549 574 537 c 2,26,-1
 550 367 l 2,27,28
 548 355 548 355 536 355 c 2,29,-1
 491 355 l 2,30,31
 478 355 478 355 480 367 c 2,32,-1
 482 384 l 2,33,34
 483 388 483 388 483 393 c 0,35,36
 483 423 483 423 449.5 454 c 128,-1,37
 416 485 416 485 350.5 485 c 128,-1,38
 285 485 285 485 224 428.5 c 128,-1,39
 163 372 163 372 163 277 c 0,40,41
 163 204 163 204 203.5 162 c 128,-1,42
 244 120 244 120 302 120 c 128,-1,43
 360 120 360 120 409.5 147 c 128,-1,44
 459 174 459 174 476 198 c 1,45,46
 486 208 486 208 494 201 c 1,47,-1
 518 172 l 1,48,49
 527 165 527 165 517.5 152 c 128,-1,50
 508 139 508 139 486.5 120 c 128,-1,51
 465 101 465 101 418 78.5 c 128,-1,52
 371 56 371 56 319 51 c 1,53,-1
 312 -1 l 2,54,55
 310 -13 310 -13 298 -13 c 2,0,-1
EndSplineSet
EndChar

StartChar: sterling
Encoding: 163 163 98
Width: 598
GlyphClass: 2
Flags: W
LayerCount: 2
Fore
SplineSet
548 0 m 2,0,-1
 60 0 l 2,1,2
 48 0 48 0 50 12 c 2,3,-1
 57 60 l 2,4,5
 60 76 60 76 71 82 c 0,6,7
 72 83 72 83 89.5 93.5 c 128,-1,8
 107 104 107 104 118.5 112 c 128,-1,9
 130 120 130 120 148 136.5 c 128,-1,10
 166 153 166 153 178 168 c 0,11,12
 206 207 206 207 206 254 c 0,13,14
 206 276 206 276 201 296 c 1,15,-1
 92 296 l 2,16,17
 80 296 80 296 82 308 c 2,18,-1
 87 345 l 2,19,20
 88 357 88 357 101 357 c 2,21,-1
 174 357 l 1,22,23
 147 417 147 417 147 471 c 0,24,25
 147 589 147 589 228 656.5 c 128,-1,26
 309 724 309 724 434 724 c 0,27,28
 537 724 537 724 590 668 c 0,29,30
 632 624 632 624 632 554 c 0,31,32
 632 537 632 537 629 518 c 2,33,-1
 627 502 l 2,34,35
 626 490 626 490 612 490 c 2,36,-1
 551 490 l 2,37,38
 540 490 540 490 541 502 c 2,39,-1
 543 519 l 2,40,41
 544 529 544 529 544 538 c 0,42,43
 544 580 544 580 514.5 613 c 128,-1,44
 485 646 485 646 419 646 c 128,-1,45
 353 646 353 646 295.5 602 c 128,-1,46
 238 558 238 558 238 474 c 0,47,48
 238 436 238 436 266 378 c 0,49,50
 274 360 274 360 275 357 c 1,51,-1
 465 357 l 2,52,53
 476 357 476 357 475 345 c 2,54,-1
 470 308 l 2,55,56
 468 296 468 296 456 296 c 2,57,-1
 294 296 l 1,58,59
 297 279 297 279 297 256 c 0,60,61
 294 156 294 156 182 75 c 1,62,-1
 558 75 l 2,63,64
 570 75 570 75 569 63 c 2,65,-1
 562 12 l 2,66,67
 560 0 560 0 548 0 c 2,0,-1
EndSplineSet
EndChar

StartChar: yen
Encoding: 165 165 99
Width: 759
GlyphClass: 2
Flags: W
LayerCount: 2
Fore
SplineSet
500 0 m 2,0,-1
 259 0 l 2,1,2
 246 0 246 0 248 12 c 2,3,-1
 255 63 l 2,4,5
 256 75 256 75 270 75 c 2,6,-1
 346 75 l 1,7,-1
 366 215 l 1,8,-1
 241 215 l 2,9,10
 228 215 228 215 230 228 c 2,11,-1
 236 267 l 2,12,13
 238 279 238 279 250 279 c 2,14,-1
 363 279 l 1,15,-1
 367 305 l 1,16,-1
 345 355 l 1,17,-1
 220 355 l 2,18,19
 208 355 208 355 210 368 c 2,20,-1
 215 407 l 1,21,22
 218 419 218 419 229 419 c 2,23,-1
 313 419 l 1,24,-1
 218 643 l 1,25,-1
 150 643 l 2,26,27
 138 643 138 643 140 655 c 2,28,-1
 147 706 l 2,29,30
 148 718 148 718 161 718 c 2,31,-1
 386 718 l 2,32,33
 398 718 398 718 397 706 c 2,34,-1
 390 655 l 2,35,36
 388 643 388 643 376 643 c 2,37,-1
 310 643 l 1,38,-1
 428 365 l 1,39,-1
 434 365 l 1,40,-1
 628 643 l 1,41,-1
 563 643 l 2,42,43
 550 643 550 643 552 655 c 2,44,-1
 559 706 l 2,45,46
 560 718 560 718 573 718 c 2,47,-1
 799 718 l 2,48,49
 812 718 812 718 810 706 c 2,50,-1
 803 655 l 2,51,52
 802 643 802 643 788 643 c 2,53,-1
 720 643 l 1,54,-1
 562 419 l 1,55,-1
 643 419 l 2,56,57
 656 419 656 419 654 407 c 2,58,-1
 648 368 l 2,59,60
 646 355 646 355 634 355 c 2,61,-1
 513 355 l 1,62,-1
 476 305 l 1,63,-1
 472 279 l 1,64,-1
 581 279 l 2,65,66
 592 279 592 279 591 267 c 2,67,-1
 586 228 l 2,68,69
 584 215 584 215 572 215 c 2,70,-1
 453 215 l 1,71,-1
 433 75 l 1,72,-1
 510 75 l 2,73,74
 522 75 522 75 521 63 c 2,75,-1
 514 12 l 2,76,77
 512 0 512 0 500 0 c 2,0,-1
EndSplineSet
EndChar

StartChar: brokenbar
Encoding: 166 166 100
Width: 160
GlyphClass: 2
Flags: W
LayerCount: 2
Fore
SplineSet
167 410 m 2,0,-1
 108 410 l 2,1,2
 95 410 95 410 98 422 c 1,3,-1
 143 748 l 2,4,5
 144 760 144 760 158 760 c 2,6,-1
 217 760 l 2,7,8
 228 760 228 760 227 748 c 2,9,-1
 181 422 l 2,10,11
 180 410 180 410 167 410 c 2,0,-1
91 -131 m 2,12,-1
 32 -131 l 2,13,14
 20 -131 20 -131 21 -119 c 2,15,-1
 67 207 l 2,16,17
 68 219 68 219 81 219 c 2,18,-1
 141 219 l 2,19,20
 152 219 152 219 151 207 c 2,21,-1
 105 -119 l 2,22,23
 104 -131 104 -131 91 -131 c 2,12,-1
EndSplineSet
EndChar

StartChar: section
Encoding: 167 167 101
Width: 646
GlyphClass: 2
Flags: W
LayerCount: 2
Fore
SplineSet
75 -224 m 2,0,-1
 19 -224 l 2,1,2
 6 -224 6 -224 8 -212 c 2,3,-1
 41 22 l 2,4,5
 42 34 42 34 55 34 c 2,6,-1
 118 34 l 2,7,8
 130 34 130 34 129 22 c 2,9,-1
 126 0 l 2,10,11
 123 -20 123 -20 142 -51.5 c 128,-1,12
 161 -83 161 -83 181.5 -102.5 c 128,-1,13
 202 -122 202 -122 238 -136 c 128,-1,14
 274 -150 274 -150 319 -150 c 0,15,16
 403 -150 403 -150 452 -115 c 128,-1,17
 501 -80 501 -80 501 -18 c 0,18,19
 501 13 501 13 479 35.5 c 128,-1,20
 457 58 457 58 421.5 71 c 128,-1,21
 386 84 386 84 343.5 95 c 128,-1,22
 301 106 301 106 258.5 120 c 128,-1,23
 216 134 216 134 180.5 152.5 c 128,-1,24
 145 171 145 171 123 204.5 c 128,-1,25
 101 238 101 238 101 283 c 0,26,27
 101 360 101 360 158 420 c 1,28,29
 132 454 132 454 132 506 c 0,30,31
 132 599 132 599 205.5 661.5 c 128,-1,32
 279 724 279 724 396 724 c 0,33,34
 532 724 532 724 582 645 c 1,35,-1
 590 707 l 2,36,37
 592 719 592 719 604 719 c 2,38,-1
 660 719 l 2,39,40
 671 719 671 719 671 711 c 0,41,42
 671 709 671 709 670 707 c 2,43,-1
 640 489 l 2,44,45
 638 477 638 477 626 477 c 2,46,-1
 563 477 l 2,47,48
 550 477 550 477 552 489 c 2,49,-1
 556 514 l 2,50,51
 557 519 557 519 557 525 c 0,52,53
 557 561 557 561 520.5 601.5 c 128,-1,54
 484 642 484 642 403 642 c 128,-1,55
 322 642 322 642 275.5 606.5 c 128,-1,56
 229 571 229 571 229 518 c 0,57,58
 229 485 229 485 251.5 461 c 128,-1,59
 274 437 274 437 310 423 c 128,-1,60
 346 409 346 409 389.5 397.5 c 128,-1,61
 433 386 433 386 476.5 372 c 128,-1,62
 520 358 520 358 556 340 c 128,-1,63
 592 322 592 322 614.5 290.5 c 128,-1,64
 637 259 637 259 637 216 c 0,65,66
 637 137 637 137 579 75 c 1,67,68
 606 40 606 40 606 -9 c 0,69,70
 606 -101 606 -101 534.5 -166 c 128,-1,71
 463 -231 463 -231 324 -231 c 0,72,73
 232 -231 232 -231 177.5 -194.5 c 128,-1,74
 123 -158 123 -158 103 -115 c 1,75,-1
 101 -115 l 1,76,-1
 90 -212 l 2,77,78
 88 -224 88 -224 75 -224 c 2,0,-1
497 124 m 1,79,80
 532 159 532 159 532 202 c 128,-1,81
 532 245 532 245 498.5 270 c 128,-1,82
 465 295 465 295 422 306 c 0,83,84
 279 340 279 340 231 369 c 1,85,86
 197 335 197 335 197 294.5 c 128,-1,87
 197 254 197 254 230.5 227 c 128,-1,88
 264 200 264 200 307 188 c 0,89,90
 455 149 455 149 497 124 c 1,79,80
EndSplineSet
EndChar

StartChar: dieresis
Encoding: 168 168 102
Width: 313
GlyphClass: 2
Flags: W
LayerCount: 2
Fore
SplineSet
193.5 630 m 128,-1,1
 204 619 204 619 204 601.5 c 128,-1,2
 204 584 204 584 189.5 570 c 128,-1,3
 175 556 175 556 157 556 c 128,-1,4
 139 556 139 556 129 566 c 128,-1,5
 119 576 119 576 119 594 c 128,-1,6
 119 612 119 612 133.5 626.5 c 128,-1,7
 148 641 148 641 165.5 641 c 128,-1,0
 183 641 183 641 193.5 630 c 128,-1,1
351.5 630 m 128,-1,9
 362 619 362 619 362 601.5 c 128,-1,10
 362 584 362 584 347.5 570 c 128,-1,11
 333 556 333 556 315 556 c 128,-1,12
 297 556 297 556 287 566 c 128,-1,13
 277 576 277 576 277 594 c 128,-1,14
 277 612 277 612 291.5 626.5 c 128,-1,15
 306 641 306 641 323.5 641 c 128,-1,8
 341 641 341 641 351.5 630 c 128,-1,9
EndSplineSet
EndChar

StartChar: copyright
Encoding: 169 169 103
Width: 670
GlyphClass: 2
Flags: W
LayerCount: 2
Fore
SplineSet
684 381 m 0,0,1
 684 250 684 250 579 150.5 c 128,-1,2
 474 51 474 51 342 51 c 0,3,4
 233 51 233 51 158.5 128 c 128,-1,5
 84 205 84 205 84 315 c 0,6,7
 84 446 84 446 188.5 545.5 c 128,-1,8
 293 645 293 645 426 645 c 0,9,10
 535 645 535 645 609.5 568 c 128,-1,11
 684 491 684 491 684 381 c 0,0,1
631 376 m 0,12,13
 631 468 631 468 571 530 c 128,-1,14
 511 592 511 592 419 592 c 0,15,16
 307 592 307 592 222 511 c 128,-1,17
 137 430 137 430 137 320 c 0,18,19
 137 228 137 228 197.5 166 c 128,-1,20
 258 104 258 104 350 104 c 0,21,22
 461 104 461 104 546 185 c 128,-1,23
 631 266 631 266 631 376 c 0,12,13
357 175 m 0,24,25
 295 175 295 175 255 215.5 c 128,-1,26
 215 256 215 256 215 325 c 0,27,28
 215 416 215 416 272.5 471.5 c 128,-1,29
 330 527 330 527 407 527 c 0,30,31
 447 527 447 527 477.5 510 c 128,-1,32
 508 493 508 493 518 478 c 1,33,34
 536 454 536 454 536 447.5 c 128,-1,35
 536 441 536 441 531 437 c 2,36,-1
 499 417 l 2,37,38
 492 412 492 412 489 419 c 0,39,40
 469 471 469 471 399 471 c 0,41,42
 349 471 349 471 312 434 c 128,-1,43
 275 397 275 397 275 340 c 128,-1,44
 275 283 275 283 301 257 c 128,-1,45
 327 231 327 231 367 231 c 0,46,47
 431 231 431 231 470 280 c 1,48,49
 475 288 475 288 481 283 c 2,50,-1
 506 265 l 2,51,52
 517 257 517 257 483 224 c 0,53,54
 468 209 468 209 432.5 192 c 128,-1,55
 397 175 397 175 357 175 c 0,24,25
EndSplineSet
EndChar

StartChar: ordfeminine
Encoding: 170 170 104
Width: 328
GlyphClass: 2
Flags: W
LayerCount: 2
Fore
SplineSet
283 509 m 1,0,1
 238 471 238 471 197.5 471 c 128,-1,2
 157 471 157 471 135 488 c 128,-1,3
 113 505 113 505 113 540.5 c 128,-1,4
 113 576 113 576 145 597.5 c 128,-1,5
 177 619 177 619 235 619 c 2,6,-1
 295 619 l 1,7,-1
 295 622 l 2,8,9
 295 628 295 628 295 642.5 c 128,-1,10
 295 657 295 657 287 669.5 c 128,-1,11
 279 682 279 682 255 682 c 128,-1,12
 231 682 231 682 219 680 c 128,-1,13
 207 678 207 678 199 675 c 128,-1,14
 191 672 191 672 185 668.5 c 128,-1,15
 179 665 179 665 173.5 662 c 128,-1,16
 168 659 168 659 165 663 c 2,17,-1
 153 684 l 2,18,19
 149 689 149 689 154 691 c 1,20,21
 186 724 186 724 252 724 c 0,22,23
 344 724 344 724 344 643 c 0,24,25
 344 632 344 632 342 620 c 2,26,-1
 327 514 l 1,27,-1
 356 514 l 2,28,29
 360 514 360 514 360 509 c 2,30,-1
 356 481 l 1,31,32
 354 475 354 475 350 475 c 2,33,-1
 301 475 l 2,34,35
 279 475 279 475 282 496 c 2,36,-1
 284 509 l 1,37,-1
 283 509 l 1,0,1
208 512 m 0,38,39
 252 512 252 512 284 544 c 1,40,-1
 290 588 l 1,41,-1
 234 588 l 2,42,43
 164 588 164 588 164 546 c 0,44,45
 164 530 164 530 176 521 c 128,-1,46
 188 512 188 512 208 512 c 0,38,39
EndSplineSet
EndChar

StartChar: guillemotleft
Encoding: 171 171 105
Width: 521
GlyphClass: 2
Flags: W
LayerCount: 2
Fore
SplineSet
332 432 m 2,0,1
 336 435 336 435 338.5 435 c 128,-1,2
 341 435 341 435 343.5 434.5 c 128,-1,3
 346 434 346 434 345 427 c 2,4,-1
 339 383 l 1,5,6
 335 368 335 368 322 361 c 1,7,-1
 142 246 l 1,8,-1
 290 132 l 2,9,10
 303 121 303 121 300 110 c 1,11,-1
 294 66 l 2,12,13
 293 58 293 58 286 58 c 0,14,15
 283 58 283 58 280 61 c 2,16,-1
 81 213 l 2,17,18
 69 223 69 223 71 236 c 2,19,-1
 74 258 l 2,20,21
 75 269 75 269 91 279 c 2,22,-1
 332 432 l 2,0,1
529 432 m 2,23,24
 533 435 533 435 535.5 435 c 128,-1,25
 538 435 538 435 540.5 434.5 c 128,-1,26
 543 434 543 434 542 427 c 2,27,-1
 536 383 l 2,28,29
 534 370 534 370 520 361 c 2,30,-1
 339 246 l 1,31,-1
 488 132 l 1,32,33
 499 121 499 121 498 110 c 2,34,-1
 491 66 l 2,35,36
 490 57 490 57 486 57 c 128,-1,37
 482 57 482 57 477 61 c 2,38,-1
 278 213 l 2,39,40
 266 223 266 223 268 236 c 2,41,-1
 272 258 l 2,42,43
 274 271 274 271 288 279 c 2,44,-1
 529 432 l 2,23,24
EndSplineSet
EndChar

StartChar: logicalnot
Encoding: 172 172 106
Width: 565
GlyphClass: 2
Flags: W
LayerCount: 2
Fore
SplineSet
533 141 m 2,0,-1
 487 141 l 2,1,2
 474 141 474 141 476 153 c 2,3,-1
 501 324 l 1,4,-1
 97 324 l 2,5,6
 83 324 83 324 85 337 c 2,7,-1
 91 380 l 2,8,9
 93 393 93 393 106 393 c 2,10,-1
 568 393 l 2,11,12
 581 393 581 393 579 380 c 2,13,-1
 548 153 l 2,14,15
 546 141 546 141 533 141 c 2,0,-1
EndSplineSet
EndChar

StartChar: registered
Encoding: 174 174 107
Width: 670
GlyphClass: 2
Flags: W
LayerCount: 2
Fore
SplineSet
684 381 m 0,0,1
 684 250 684 250 579 150.5 c 128,-1,2
 474 51 474 51 342 51 c 0,3,4
 233 51 233 51 158.5 128 c 128,-1,5
 84 205 84 205 84 315 c 0,6,7
 84 446 84 446 188.5 545.5 c 128,-1,8
 293 645 293 645 426 645 c 0,9,10
 535 645 535 645 609.5 568 c 128,-1,11
 684 491 684 491 684 381 c 0,0,1
349 100 m 0,12,13
 462 100 462 100 548 182.5 c 128,-1,14
 634 265 634 265 634 377 c 0,15,16
 634 469 634 469 573 532.5 c 128,-1,17
 512 596 512 596 419 596 c 0,18,19
 306 596 306 596 219.5 513.5 c 128,-1,20
 133 431 133 431 133 320 c 0,21,22
 133 227 133 227 194.5 163.5 c 128,-1,23
 256 100 256 100 349 100 c 0,12,13
505 179 m 2,24,-1
 459 179 l 2,25,26
 444 179 444 179 437 201 c 1,27,-1
 399 300 l 1,28,29
 392 322 392 322 377 322 c 2,30,-1
 325 322 l 1,31,-1
 311 225 l 1,32,-1
 348 225 l 2,33,34
 353 225 353 225 353 220 c 2,35,-1
 349 185 l 2,36,37
 348 179 348 179 342 179 c 2,38,-1
 225 179 l 2,39,40
 220 179 220 179 221 185 c 2,41,-1
 226 220 l 1,42,43
 228 225 228 225 232 225 c 2,44,-1
 263 225 l 1,45,-1
 298 480 l 1,46,-1
 268 480 l 2,47,48
 262 480 262 480 264 486 c 1,49,-1
 268 521 l 1,50,51
 270 526 270 526 274 526 c 2,52,-1
 422 526 l 2,53,54
 467 526 467 526 495 504 c 128,-1,55
 523 482 523 482 523 439 c 0,56,57
 523 350 523 350 439 328 c 1,58,59
 440 326 440 326 452 298 c 1,60,-1
 480 226 l 1,61,-1
 511 226 l 2,62,63
 516 226 516 226 516 221 c 2,64,-1
 511 185 l 2,65,66
 510 179 510 179 505 179 c 2,24,-1
396 365 m 2,67,68
 472 365 472 365 472 432 c 0,69,70
 472 480 472 480 413 480 c 2,71,-1
 347 480 l 1,72,-1
 331 365 l 1,73,-1
 396 365 l 2,67,68
EndSplineSet
EndChar

StartChar: macron
Encoding: 175 175 108
Width: 392
GlyphClass: 2
Flags: W
LayerCount: 2
Fore
SplineSet
421 554 m 2,0,-1
 126 554 l 2,1,2
 113 554 113 554 115 567 c 2,3,-1
 121 609 l 2,4,5
 123 623 123 623 136 623 c 2,6,-1
 431 623 l 2,7,8
 445 623 445 623 443 609 c 2,9,-1
 437 567 l 2,10,11
 435 554 435 554 421 554 c 2,0,-1
EndSplineSet
EndChar

StartChar: degree
Encoding: 176 176 109
Width: 220
GlyphClass: 2
Flags: W
LayerCount: 2
Fore
SplineSet
228 442 m 128,-1,1
 203 419 203 419 173 419 c 128,-1,2
 143 419 143 419 125 436 c 128,-1,3
 107 453 107 453 107 487 c 128,-1,4
 107 521 107 521 132 546 c 128,-1,5
 157 571 157 571 187.5 571 c 128,-1,6
 218 571 218 571 235.5 552.5 c 128,-1,7
 253 534 253 534 253 499.5 c 128,-1,0
 253 465 253 465 228 442 c 128,-1,1
154 466 m 128,-1,9
 162 457 162 457 176 457 c 128,-1,10
 190 457 190 457 202.5 469 c 128,-1,11
 215 481 215 481 215 498 c 128,-1,12
 215 515 215 515 206.5 524 c 128,-1,13
 198 533 198 533 184 533 c 128,-1,14
 170 533 170 533 158 520.5 c 128,-1,15
 146 508 146 508 146 491.5 c 128,-1,8
 146 475 146 475 154 466 c 128,-1,9
EndSplineSet
EndChar

StartChar: plusminus
Encoding: 177 177 110
Width: 401
GlyphClass: 2
Flags: W
LayerCount: 2
Fore
SplineSet
395 329 m 2,0,-1
 290 329 l 1,1,-1
 274 222 l 2,2,3
 272 209 272 209 260 209 c 2,4,-1
 203 209 l 2,5,6
 190 209 190 209 192 222 c 2,7,-1
 208 329 l 1,8,-1
 98 329 l 2,9,10
 85 329 85 329 87 342 c 2,11,-1
 94 393 l 2,12,13
 96 406 96 406 108 406 c 2,14,-1
 218 406 l 1,15,-1
 233 516 l 1,16,17
 236 528 236 528 248 528 c 2,18,-1
 305 528 l 2,19,20
 316 528 316 528 315 516 c 2,21,-1
 300 406 l 1,22,-1
 406 406 l 2,23,24
 420 406 420 406 418 393 c 2,25,-1
 411 342 l 2,26,27
 409 329 409 329 395 329 c 2,0,-1
362 91 m 2,28,-1
 64 91 l 2,29,30
 51 91 51 91 53 104 c 2,31,-1
 60 155 l 2,32,33
 62 168 62 168 75 168 c 2,34,-1
 372 168 l 2,35,36
 386 168 386 168 384 155 c 2,37,-1
 377 104 l 2,38,39
 375 91 375 91 362 91 c 2,28,-1
EndSplineSet
EndChar

StartChar: acute
Encoding: 180 180 111
Width: 291
GlyphClass: 2
Flags: W
LayerCount: 2
Fore
SplineSet
164 572 m 2,0,1
 159 569 159 569 153.5 569 c 128,-1,2
 148 569 148 569 144 575 c 2,3,-1
 124 604 l 2,4,5
 121 607 121 607 121 612 c 128,-1,6
 121 617 121 617 129 623 c 2,7,-1
 309 764 l 2,8,9
 314 768 314 768 318 768 c 1,10,-1
 329 763 l 1,11,-1
 354 725 l 2,12,13
 357 721 357 721 357 716.5 c 128,-1,14
 357 712 357 712 350 706 c 2,15,-1
 164 572 l 2,0,1
EndSplineSet
EndChar

StartChar: paragraph
Encoding: 182 182 112
Width: 663
GlyphClass: 2
Flags: W
LayerCount: 2
Fore
SplineSet
546 -78 m 2,0,-1
 483 -78 l 2,1,2
 472 -78 472 -78 473 -66 c 2,3,-1
 572 643 l 1,4,-1
 501 643 l 1,5,-1
 401 -66 l 2,6,7
 400 -78 400 -78 387 -78 c 2,8,-1
 325 -78 l 2,9,10
 312 -78 312 -78 314 -66 c 2,11,-1
 356 236 l 1,12,-1
 316 236 l 2,13,14
 216 236 216 236 158.5 285.5 c 128,-1,15
 101 335 101 335 101 433 c 0,16,17
 101 569 101 569 178 643.5 c 128,-1,18
 255 718 255 718 374 718 c 2,19,-1
 714 718 l 2,20,21
 726 718 726 718 724 706 c 2,22,-1
 717 655 l 2,23,24
 716 643 716 643 703 643 c 2,25,-1
 660 643 l 1,26,-1
 560 -66 l 2,27,28
 558 -78 558 -78 546 -78 c 2,0,-1
EndSplineSet
EndChar

StartChar: periodcentered
Encoding: 183 183 113
Width: 151
GlyphClass: 2
Flags: W
LayerCount: 2
Fore
SplineSet
117 325 m 128,-1,1
 129 313 129 313 129 293.5 c 128,-1,2
 129 274 129 274 112.5 258.5 c 128,-1,3
 96 243 96 243 76 243 c 128,-1,4
 56 243 56 243 44.5 254.5 c 128,-1,5
 33 266 33 266 33 286 c 128,-1,6
 33 306 33 306 49 321.5 c 128,-1,7
 65 337 65 337 85 337 c 128,-1,0
 105 337 105 337 117 325 c 128,-1,1
EndSplineSet
EndChar

StartChar: cedilla
Encoding: 184 184 114
Width: 236
GlyphClass: 2
Flags: W
LayerCount: 2
Fore
SplineSet
163 -133 m 128,-1,1
 136 -156 136 -156 96 -156 c 128,-1,2
 56 -156 56 -156 22 -133 c 0,3,4
 18 -130 18 -130 18 -126 c 128,-1,5
 18 -122 18 -122 22 -117 c 2,6,-1
 34 -105 l 2,7,8
 43 -97 43 -97 50 -102 c 0,9,10
 66 -115 66 -115 93 -115 c 0,11,12
 141 -115 141 -115 141 -78 c 0,13,14
 141 -56 141 -56 95 -56 c 0,15,16
 71 -56 71 -56 78 -39 c 1,17,-1
 106 18 l 1,18,-1
 148 17 l 1,19,-1
 128 -25 l 1,20,21
 190 -25 190 -25 190 -73 c 0,22,0
 190 -110 190 -110 163 -133 c 128,-1,1
EndSplineSet
EndChar

StartChar: ordmasculine
Encoding: 186 186 115
Width: 317
GlyphClass: 2
Flags: W
LayerCount: 2
Fore
SplineSet
323.5 512 m 128,-1,1
 282 471 282 471 231.5 471 c 128,-1,2
 181 471 181 471 151 501 c 128,-1,3
 121 531 121 531 121 588.5 c 128,-1,4
 121 646 121 646 162.5 685 c 128,-1,5
 204 724 204 724 255 724 c 128,-1,6
 306 724 306 724 335.5 695 c 128,-1,7
 365 666 365 666 365 609.5 c 128,-1,0
 365 553 365 553 323.5 512 c 128,-1,1
184 532.5 m 128,-1,9
 203 513 203 513 235.5 513 c 128,-1,10
 268 513 268 513 294.5 539.5 c 128,-1,11
 321 566 321 566 321 605.5 c 128,-1,12
 321 645 321 645 302.5 664 c 128,-1,13
 284 683 284 683 252.5 683 c 128,-1,14
 221 683 221 683 193 656.5 c 128,-1,15
 165 630 165 630 165 591 c 128,-1,8
 165 552 165 552 184 532.5 c 128,-1,9
EndSplineSet
EndChar

StartChar: guillemotright
Encoding: 187 187 116
Width: 521
GlyphClass: 2
Flags: W
LayerCount: 2
Fore
SplineSet
258 61 m 2,0,1
 254 58 254 58 251.5 58 c 128,-1,2
 249 58 249 58 246.5 58.5 c 128,-1,3
 244 59 244 59 245 66 c 2,4,-1
 252 110 l 2,5,6
 254 122 254 122 268 132 c 1,7,-1
 449 246 l 1,8,-1
 300 361 l 2,9,10
 287 372 287 372 290 383 c 1,11,-1
 296 427 l 2,12,13
 297 436 297 436 301 436 c 128,-1,14
 305 436 305 436 310 432 c 2,15,-1
 509 279 l 1,16,17
 520 272 520 272 520 266 c 128,-1,18
 520 260 520 260 519 258 c 2,19,-1
 516 236 l 2,20,21
 514 223 514 223 500 213 c 1,22,-1
 258 61 l 2,0,1
61 61 m 2,23,24
 57 58 57 58 54.5 58 c 128,-1,25
 52 58 52 58 49.5 58.5 c 128,-1,26
 47 59 47 59 48 66 c 2,27,-1
 54 110 l 2,28,29
 55 121 55 121 70 132 c 1,30,-1
 252 246 l 1,31,-1
 103 361 l 2,32,33
 90 370 90 370 92 383 c 2,34,-1
 99 427 l 2,35,36
 100 435 100 435 106 435 c 1,37,-1
 112 432 l 1,38,-1
 311 279 l 2,39,40
 324 270 324 270 322 258 c 2,41,-1
 319 236 l 1,42,43
 316 222 316 222 302 213 c 2,44,-1
 61 61 l 2,23,24
EndSplineSet
EndChar

StartChar: onehalf
Encoding: 189 189 117
Width: 703
GlyphClass: 2
Flags: W
LayerCount: 2
Fore
SplineSet
227 -74 m 2,0,-1
 168 -74 l 2,1,2
 156 -74 156 -74 161 -62 c 2,3,-1
 517 748 l 2,4,5
 523 760 523 760 535 760 c 2,6,-1
 594 760 l 2,7,8
 607 760 607 760 601 748 c 2,9,-1
 245 -62 l 2,10,11
 240 -74 240 -74 227 -74 c 2,0,-1
655 0 m 2,12,-1
 412 0 l 2,13,14
 402 0 402 0 403 10 c 2,15,-1
 406 31 l 2,16,17
 413 73 413 73 439.5 102 c 128,-1,18
 466 131 466 131 498.5 146 c 128,-1,19
 531 161 531 161 563 174 c 0,20,21
 638 206 638 206 638 260 c 0,22,23
 638 284 638 284 622 297.5 c 128,-1,24
 606 311 606 311 579 311 c 0,25,26
 501 311 501 311 493 249 c 0,27,28
 492 241 492 241 485 241 c 2,29,-1
 446 241 l 2,30,31
 440 241 440 241 440 248 c 0,32,33
 440 290 440 290 478.5 326 c 128,-1,34
 517 362 517 362 578.5 362 c 128,-1,35
 640 362 640 362 668 335.5 c 128,-1,36
 696 309 696 309 696 268 c 128,-1,37
 696 227 696 227 675 198 c 128,-1,38
 654 169 654 169 622.5 153 c 128,-1,39
 591 137 591 137 559 124 c 0,40,41
 479 90 479 90 469 48 c 1,42,-1
 621 48 l 1,43,-1
 626 83 l 2,44,45
 627 91 627 91 635 91 c 2,46,-1
 670 91 l 2,47,48
 677 91 677 91 677 83 c 1,49,-1
 666 10 l 2,50,51
 665 0 665 0 655 0 c 2,12,-1
312 362 m 2,52,-1
 122 362 l 2,53,54
 113 362 113 362 114 372 c 2,55,-1
 117 401 l 2,56,57
 118 410 118 410 129 410 c 2,58,-1
 201 410 l 1,59,-1
 236 660 l 1,60,-1
 156 605 l 2,61,62
 150 601 150 601 146 606 c 2,63,-1
 129 634 l 2,64,65
 126 638 126 638 133 644 c 2,66,-1
 241 718 l 2,67,68
 245 721 245 721 254 721 c 2,69,-1
 293 721 l 2,70,71
 300 721 300 721 300 712 c 1,72,-1
 258 410 l 1,73,-1
 319 410 l 2,74,75
 328 410 328 410 327 401 c 2,76,-1
 324 372 l 2,77,78
 323 362 323 362 312 362 c 2,52,-1
EndSplineSet
EndChar

StartChar: questiondown
Encoding: 191 191 118
Width: 582
GlyphClass: 2
Flags: W
LayerCount: 2
Fore
SplineSet
317 323 m 2,0,-1
 386 323 l 2,1,2
 396 323 396 323 396 313 c 0,3,4
 396 248 396 248 366.5 198.5 c 128,-1,5
 337 149 337 149 295.5 118.5 c 128,-1,6
 254 88 254 88 212 61 c 0,7,8
 111 -4 111 -4 111 -79 c 0,9,10
 111 -131 111 -131 150 -162.5 c 128,-1,11
 189 -194 189 -194 264 -194 c 128,-1,12
 339 -194 339 -194 385 -154 c 128,-1,13
 431 -114 431 -114 441 -49 c 0,14,15
 442 -37 442 -37 455 -37 c 2,16,-1
 518 -37 l 2,17,18
 529 -37 529 -37 529 -47 c 0,19,20
 529 -125 529 -125 465 -195 c 0,21,22
 433 -230 433 -230 376.5 -252 c 128,-1,23
 320 -274 320 -274 247 -274 c 0,24,25
 138 -274 138 -274 78 -223 c 128,-1,26
 18 -172 18 -172 18 -93 c 0,27,28
 18 -31 18 -31 46.5 16.5 c 128,-1,29
 75 64 75 64 116 95 c 128,-1,30
 157 126 157 126 198.5 154.5 c 128,-1,31
 240 183 240 183 270 222.5 c 128,-1,32
 300 262 300 262 302 311 c 1,33,34
 304 323 304 323 317 323 c 2,0,-1
327 406.5 m 128,-1,36
 314 420 314 420 314 442 c 128,-1,37
 314 464 314 464 332.5 481.5 c 128,-1,38
 351 499 351 499 373 499 c 128,-1,39
 395 499 395 499 408 485.5 c 128,-1,40
 421 472 421 472 421 450 c 128,-1,41
 421 428 421 428 402.5 410.5 c 128,-1,42
 384 393 384 393 362 393 c 128,-1,35
 340 393 340 393 327 406.5 c 128,-1,36
EndSplineSet
EndChar

StartChar: Agrave
Encoding: 192 192 119
Width: 841
GlyphClass: 2
Flags: W
LayerCount: 2
Fore
SplineSet
768 0 m 2,0,-1
 542 0 l 2,1,2
 530 0 530 0 532 12 c 2,3,-1
 539 63 l 2,4,5
 540 75 540 75 553 75 c 2,6,-1
 622 75 l 1,7,-1
 582 248 l 1,8,-1
 303 248 l 1,9,-1
 214 75 l 1,10,-1
 284 75 l 2,11,12
 297 75 297 75 294 63 c 1,13,-1
 287 12 l 2,14,15
 286 0 286 0 273 0 c 2,16,-1
 48 0 l 2,17,18
 36 0 36 0 38 12 c 2,19,-1
 45 63 l 2,20,21
 46 75 46 75 59 75 c 2,22,-1
 126 75 l 1,23,-1
 421 643 l 1,24,-1
 366 643 l 2,25,26
 354 643 354 643 356 655 c 2,27,-1
 363 706 l 2,28,29
 364 718 364 718 377 718 c 2,30,-1
 513 718 l 2,31,32
 537 718 537 718 548.5 708 c 128,-1,33
 560 698 560 698 566 675 c 2,34,-1
 711 75 l 1,35,-1
 778 75 l 2,36,37
 790 75 790 75 789 63 c 2,38,-1
 782 12 l 2,39,40
 780 0 780 0 768 0 c 2,0,-1
566 317 m 1,41,-1
 496 614 l 1,42,-1
 492 614 l 1,43,-1
 340 317 l 1,44,-1
 566 317 l 1,41,-1
583 801 m 2,45,46
 578 795 578 795 573 795 c 128,-1,47
 568 795 568 795 564 799 c 2,48,-1
 415 933 l 2,49,50
 411 937 411 937 411 941.5 c 128,-1,51
 411 946 411 946 417 952 c 2,52,-1
 453 989 l 2,53,54
 458 995 458 995 463 995 c 128,-1,55
 468 995 468 995 473 991 c 2,56,-1
 613 849 l 2,57,58
 618 844 618 844 618 839.5 c 128,-1,59
 618 835 618 835 613 830 c 2,60,-1
 583 801 l 2,45,46
EndSplineSet
EndChar

StartChar: Aacute
Encoding: 193 193 120
Width: 841
GlyphClass: 2
Flags: W
LayerCount: 2
Fore
SplineSet
768 0 m 2,0,-1
 542 0 l 2,1,2
 530 0 530 0 532 12 c 2,3,-1
 539 63 l 2,4,5
 540 75 540 75 553 75 c 2,6,-1
 622 75 l 1,7,-1
 582 248 l 1,8,-1
 303 248 l 1,9,-1
 214 75 l 1,10,-1
 284 75 l 2,11,12
 297 75 297 75 294 63 c 1,13,-1
 287 12 l 2,14,15
 286 0 286 0 273 0 c 2,16,-1
 48 0 l 2,17,18
 36 0 36 0 38 12 c 2,19,-1
 45 63 l 2,20,21
 46 75 46 75 59 75 c 2,22,-1
 126 75 l 1,23,-1
 421 643 l 1,24,-1
 366 643 l 2,25,26
 354 643 354 643 356 655 c 2,27,-1
 363 706 l 2,28,29
 364 718 364 718 377 718 c 2,30,-1
 513 718 l 2,31,32
 537 718 537 718 548.5 708 c 128,-1,33
 560 698 560 698 566 675 c 2,34,-1
 711 75 l 1,35,-1
 778 75 l 2,36,37
 790 75 790 75 789 63 c 2,38,-1
 782 12 l 2,39,40
 780 0 780 0 768 0 c 2,0,-1
566 317 m 1,41,-1
 496 614 l 1,42,-1
 492 614 l 1,43,-1
 340 317 l 1,44,-1
 566 317 l 1,41,-1
516 798 m 2,45,46
 511 795 511 795 505.5 795 c 128,-1,47
 500 795 500 795 496 801 c 2,48,-1
 476 830 l 2,49,50
 473 833 473 833 473 838 c 128,-1,51
 473 843 473 843 481 849 c 2,52,-1
 661 990 l 2,53,54
 666 994 666 994 670 994 c 1,55,-1
 681 989 l 1,56,-1
 706 951 l 2,57,58
 709 947 709 947 709 942.5 c 128,-1,59
 709 938 709 938 702 932 c 2,60,-1
 516 798 l 2,45,46
EndSplineSet
EndChar

StartChar: Acircumflex
Encoding: 194 194 121
Width: 841
GlyphClass: 2
Flags: W
LayerCount: 2
Fore
SplineSet
768 0 m 2,0,-1
 542 0 l 2,1,2
 530 0 530 0 532 12 c 2,3,-1
 539 63 l 2,4,5
 540 75 540 75 553 75 c 2,6,-1
 622 75 l 1,7,-1
 582 248 l 1,8,-1
 303 248 l 1,9,-1
 214 75 l 1,10,-1
 284 75 l 2,11,12
 297 75 297 75 294 63 c 1,13,-1
 287 12 l 2,14,15
 286 0 286 0 273 0 c 2,16,-1
 48 0 l 2,17,18
 36 0 36 0 38 12 c 2,19,-1
 45 63 l 2,20,21
 46 75 46 75 59 75 c 2,22,-1
 126 75 l 1,23,-1
 421 643 l 1,24,-1
 366 643 l 2,25,26
 354 643 354 643 356 655 c 2,27,-1
 363 706 l 2,28,29
 364 718 364 718 377 718 c 2,30,-1
 513 718 l 2,31,32
 537 718 537 718 548.5 708 c 128,-1,33
 560 698 560 698 566 675 c 2,34,-1
 711 75 l 1,35,-1
 778 75 l 2,36,37
 790 75 790 75 789 63 c 2,38,-1
 782 12 l 2,39,40
 780 0 780 0 768 0 c 2,0,-1
566 317 m 1,41,-1
 496 614 l 1,42,-1
 492 614 l 1,43,-1
 340 317 l 1,44,-1
 566 317 l 1,41,-1
661 801 m 2,45,46
 655 795 655 795 650.5 795 c 128,-1,47
 646 795 646 795 642 799 c 2,48,-1
 533 904 l 1,49,-1
 396 799 l 2,50,51
 391 795 391 795 386 795 c 128,-1,52
 381 795 381 795 377 801 c 2,53,-1
 356 830 l 2,54,55
 353 834 353 834 353 838.5 c 128,-1,56
 353 843 353 843 361 849 c 2,57,-1
 535 985 l 2,58,59
 540 989 540 989 545.5 989 c 128,-1,60
 551 989 551 989 555 984 c 2,61,-1
 690 849 l 2,62,63
 694 844 694 844 694 839.5 c 128,-1,64
 694 835 694 835 690 830 c 2,65,-1
 661 801 l 2,45,46
EndSplineSet
EndChar

StartChar: Atilde
Encoding: 195 195 122
Width: 841
GlyphClass: 2
Flags: W
LayerCount: 2
Fore
SplineSet
768 0 m 2,0,-1
 542 0 l 2,1,2
 530 0 530 0 532 12 c 2,3,-1
 539 63 l 2,4,5
 540 75 540 75 553 75 c 2,6,-1
 622 75 l 1,7,-1
 582 248 l 1,8,-1
 303 248 l 1,9,-1
 214 75 l 1,10,-1
 284 75 l 2,11,12
 297 75 297 75 294 63 c 1,13,-1
 287 12 l 2,14,15
 286 0 286 0 273 0 c 2,16,-1
 48 0 l 2,17,18
 36 0 36 0 38 12 c 2,19,-1
 45 63 l 2,20,21
 46 75 46 75 59 75 c 2,22,-1
 126 75 l 1,23,-1
 421 643 l 1,24,-1
 366 643 l 2,25,26
 354 643 354 643 356 655 c 2,27,-1
 363 706 l 2,28,29
 364 718 364 718 377 718 c 2,30,-1
 513 718 l 2,31,32
 537 718 537 718 548.5 708 c 128,-1,33
 560 698 560 698 566 675 c 2,34,-1
 711 75 l 1,35,-1
 778 75 l 2,36,37
 790 75 790 75 789 63 c 2,38,-1
 782 12 l 2,39,40
 780 0 780 0 768 0 c 2,0,-1
566 317 m 1,41,-1
 496 614 l 1,42,-1
 492 614 l 1,43,-1
 340 317 l 1,44,-1
 566 317 l 1,41,-1
653 910 m 2,45,-1
 677 910 l 2,46,47
 687 910 687 910 687 901 c 0,48,49
 687 852 687 852 660.5 818.5 c 128,-1,50
 634 785 634 785 584 785 c 0,51,52
 559 785 559 785 539 795 c 128,-1,53
 519 805 519 805 508 816 c 1,54,55
 480 848 480 848 457 848 c 128,-1,56
 434 848 434 848 422 835.5 c 128,-1,57
 410 823 410 823 406 791 c 0,58,59
 404 779 404 779 392 779 c 2,60,-1
 369 779 l 2,61,62
 358 779 358 779 358 789 c 0,63,64
 358 834 358 834 383.5 866.5 c 128,-1,65
 409 899 409 899 459 899 c 0,66,67
 482 899 482 899 501.5 888.5 c 128,-1,68
 521 878 521 878 532 866 c 0,69,70
 560 833 560 833 586 833 c 128,-1,71
 612 833 612 833 623 847 c 128,-1,72
 634 861 634 861 639 898 c 0,73,74
 640 910 640 910 653 910 c 2,45,-1
EndSplineSet
EndChar

StartChar: Adieresis
Encoding: 196 196 123
Width: 841
GlyphClass: 2
Flags: W
LayerCount: 2
Fore
SplineSet
768 0 m 2,0,-1
 542 0 l 2,1,2
 530 0 530 0 532 12 c 2,3,-1
 539 63 l 2,4,5
 540 75 540 75 553 75 c 2,6,-1
 622 75 l 1,7,-1
 582 248 l 1,8,-1
 303 248 l 1,9,-1
 214 75 l 1,10,-1
 284 75 l 2,11,12
 297 75 297 75 294 63 c 1,13,-1
 287 12 l 2,14,15
 286 0 286 0 273 0 c 2,16,-1
 48 0 l 2,17,18
 36 0 36 0 38 12 c 2,19,-1
 45 63 l 2,20,21
 46 75 46 75 59 75 c 2,22,-1
 126 75 l 1,23,-1
 421 643 l 1,24,-1
 366 643 l 2,25,26
 354 643 354 643 356 655 c 2,27,-1
 363 706 l 2,28,29
 364 718 364 718 377 718 c 2,30,-1
 513 718 l 2,31,32
 537 718 537 718 548.5 708 c 128,-1,33
 560 698 560 698 566 675 c 2,34,-1
 711 75 l 1,35,-1
 778 75 l 2,36,37
 790 75 790 75 789 63 c 2,38,-1
 782 12 l 2,39,40
 780 0 780 0 768 0 c 2,0,-1
566 317 m 1,41,-1
 496 614 l 1,42,-1
 492 614 l 1,43,-1
 340 317 l 1,44,-1
 566 317 l 1,41,-1
475.5 856 m 128,-1,46
 486 845 486 845 486 827.5 c 128,-1,47
 486 810 486 810 471.5 796 c 128,-1,48
 457 782 457 782 439 782 c 128,-1,49
 421 782 421 782 411 792 c 128,-1,50
 401 802 401 802 401 820 c 128,-1,51
 401 838 401 838 415.5 852.5 c 128,-1,52
 430 867 430 867 447.5 867 c 128,-1,45
 465 867 465 867 475.5 856 c 128,-1,46
633.5 856 m 128,-1,54
 644 845 644 845 644 827.5 c 128,-1,55
 644 810 644 810 629.5 796 c 128,-1,56
 615 782 615 782 597 782 c 128,-1,57
 579 782 579 782 569 792 c 128,-1,58
 559 802 559 802 559 820 c 128,-1,59
 559 838 559 838 573.5 852.5 c 128,-1,60
 588 867 588 867 605.5 867 c 128,-1,53
 623 867 623 867 633.5 856 c 128,-1,54
EndSplineSet
EndChar

StartChar: Aring
Encoding: 197 197 124
Width: 841
GlyphClass: 2
Flags: W
LayerCount: 2
Fore
SplineSet
768 0 m 2,0,-1
 542 0 l 2,1,2
 530 0 530 0 532 12 c 2,3,-1
 539 63 l 2,4,5
 540 75 540 75 553 75 c 2,6,-1
 622 75 l 1,7,-1
 582 248 l 1,8,-1
 303 248 l 1,9,-1
 214 75 l 1,10,-1
 284 75 l 2,11,12
 297 75 297 75 294 63 c 1,13,-1
 287 12 l 2,14,15
 286 0 286 0 273 0 c 2,16,-1
 48 0 l 2,17,18
 36 0 36 0 38 12 c 2,19,-1
 45 63 l 2,20,21
 46 75 46 75 59 75 c 2,22,-1
 126 75 l 1,23,-1
 421 643 l 1,24,-1
 366 643 l 2,25,26
 354 643 354 643 356 655 c 2,27,-1
 363 706 l 2,28,29
 364 718 364 718 377 718 c 2,30,-1
 513 718 l 2,31,32
 537 718 537 718 548.5 708 c 128,-1,33
 560 698 560 698 566 675 c 2,34,-1
 711 75 l 1,35,-1
 778 75 l 2,36,37
 790 75 790 75 789 63 c 2,38,-1
 782 12 l 2,39,40
 780 0 780 0 768 0 c 2,0,-1
566 317 m 1,41,-1
 496 614 l 1,42,-1
 492 614 l 1,43,-1
 340 317 l 1,44,-1
 566 317 l 1,41,-1
569 834 m 1,45,46
 552 800 552 800 511 800 c 0,47,48
 499 800 499 800 487 805 c 1,49,50
 466 820 466 820 466 843 c 128,-1,51
 466 866 466 866 477 882 c 1,52,53
 488 904 488 904 512 912 c 0,54,55
 524 916 524 916 535.5 916 c 128,-1,56
 547 916 547 916 559 911 c 1,57,58
 580 896 580 896 580 872.5 c 128,-1,59
 580 849 580 849 569 834 c 1,45,46
535 886 m 0,60,61
 530 888 530 888 524.5 888 c 128,-1,62
 519 888 519 888 509.5 882.5 c 128,-1,63
 500 877 500 877 497 868 c 128,-1,64
 494 859 494 859 494 854 c 0,65,66
 494 837 494 837 511 830 c 0,67,68
 516 828 516 828 521.5 828 c 128,-1,69
 527 828 527 828 536 834 c 0,70,71
 551 843 551 843 551 861.5 c 128,-1,72
 551 880 551 880 535 886 c 0,60,61
EndSplineSet
EndChar

StartChar: AE
Encoding: 198 198 125
Width: 1044
GlyphClass: 2
Flags: W
LayerCount: 2
Fore
SplineSet
984 0 m 2,0,-1
 452 0 l 2,1,2
 440 0 440 0 442 12 c 2,3,-1
 449 63 l 2,4,5
 450 75 450 75 463 75 c 2,6,-1
 539 75 l 1,7,-1
 574 320 l 1,8,-1
 366 320 l 1,9,-1
 226 75 l 1,10,-1
 296 75 l 2,11,12
 308 75 308 75 307 63 c 2,13,-1
 300 12 l 2,14,15
 298 0 298 0 285 0 c 2,16,-1
 61 0 l 2,17,18
 48 0 48 0 50 12 c 2,19,-1
 57 63 l 2,20,21
 58 75 58 75 71 75 c 2,22,-1
 139 75 l 1,23,-1
 460 643 l 1,24,-1
 406 643 l 2,25,26
 394 643 394 643 396 655 c 2,27,-1
 403 706 l 2,28,29
 404 718 404 718 416 718 c 2,30,-1
 1085 718 l 2,31,32
 1098 718 1098 718 1096 706 c 2,33,-1
 1073 545 l 2,34,35
 1071 532 1071 532 1059 532 c 2,36,-1
 1005 532 l 2,37,38
 992 532 992 532 994 545 c 2,39,-1
 1008 643 l 1,40,-1
 706 643 l 1,41,-1
 671 395 l 1,42,-1
 925 395 l 2,43,44
 938 395 938 395 936 383 c 2,45,-1
 929 332 l 2,46,47
 928 320 928 320 914 320 c 2,48,-1
 661 320 l 1,49,-1
 626 75 l 1,50,-1
 928 75 l 1,51,-1
 941 173 l 1,52,53
 944 185 944 185 956 185 c 2,54,-1
 1010 185 l 2,55,56
 1022 185 1022 185 1021 173 c 2,57,-1
 998 12 l 2,58,59
 996 0 996 0 984 0 c 2,0,-1
584 395 m 1,60,-1
 619 643 l 1,61,-1
 548 643 l 1,62,-1
 406 395 l 1,63,-1
 584 395 l 1,60,-1
EndSplineSet
EndChar

StartChar: Ccedilla
Encoding: 199 199 126
Width: 752
GlyphClass: 2
Flags: W
LayerCount: 2
Fore
SplineSet
423 -133 m 128,-1,1
 396 -156 396 -156 356 -156 c 128,-1,2
 316 -156 316 -156 282 -133 c 0,3,4
 273 -126 273 -126 282 -117 c 2,5,-1
 294 -105 l 2,6,7
 303 -97 303 -97 310 -102 c 0,8,9
 326 -115 326 -115 353 -115 c 0,10,11
 401 -115 401 -115 401 -78 c 0,12,13
 401 -56 401 -56 355 -56 c 0,14,15
 331 -56 331 -56 338 -39 c 2,16,-1
 354 -5 l 1,17,18
 238 6 238 6 166 91 c 128,-1,19
 94 176 94 176 94 305 c 128,-1,20
 94 434 94 434 151.5 530.5 c 128,-1,21
 209 627 209 627 297.5 675.5 c 128,-1,22
 386 724 386 724 486 724 c 0,23,24
 640 724 640 724 695 617 c 1,25,-1
 706 706 l 2,26,27
 708 718 708 718 721 718 c 2,28,-1
 777 718 l 2,29,30
 790 718 790 718 788 706 c 2,31,-1
 757 488 l 2,32,33
 755 475 755 475 743 475 c 2,34,-1
 680 475 l 2,35,36
 667 475 667 475 669 488 c 0,37,38
 670 501 670 501 670 505 c 0,39,40
 670 547 670 547 618 594.5 c 128,-1,41
 566 642 566 642 479 642 c 0,42,43
 371 642 371 642 283 562 c 0,44,45
 240 523 240 523 213.5 459 c 128,-1,46
 187 395 187 395 187 316 c 0,47,48
 187 203 187 203 250 140 c 128,-1,49
 313 77 313 77 402 77 c 0,50,51
 570 77 570 77 665 203 c 1,52,53
 675 218 675 218 684 209 c 1,54,-1
 723 181 l 1,55,56
 730 174 730 174 721.5 160.5 c 128,-1,57
 713 147 713 147 700.5 131.5 c 128,-1,58
 688 116 688 116 658.5 90 c 128,-1,59
 629 64 629 64 594.5 44.5 c 128,-1,60
 560 25 560 25 507 10 c 128,-1,61
 454 -5 454 -5 396 -6 c 1,62,-1
 388 -25 l 1,63,64
 450 -25 450 -25 450 -73 c 0,65,0
 450 -110 450 -110 423 -133 c 128,-1,1
EndSplineSet
EndChar

StartChar: Egrave
Encoding: 200 200 127
Width: 653
GlyphClass: 2
Flags: W
LayerCount: 2
Fore
SplineSet
592 0 m 2,0,-1
 61 0 l 2,1,2
 48 0 48 0 50 12 c 2,3,-1
 57 63 l 2,4,5
 58 75 58 75 71 75 c 2,6,-1
 148 75 l 1,7,-1
 228 643 l 1,8,-1
 151 643 l 2,9,10
 140 643 140 643 141 655 c 2,11,-1
 148 706 l 2,12,13
 150 718 150 718 162 718 c 2,14,-1
 693 718 l 2,15,16
 705 718 705 718 705 710 c 0,17,18
 705 708 705 708 704 706 c 2,19,-1
 681 545 l 2,20,21
 679 532 679 532 668 532 c 2,22,-1
 614 532 l 2,23,24
 600 532 600 532 603 545 c 1,25,-1
 616 643 l 1,26,-1
 315 643 l 1,27,-1
 280 395 l 1,28,-1
 533 395 l 2,29,30
 546 395 546 395 544 383 c 2,31,-1
 537 332 l 2,32,33
 536 320 536 320 523 320 c 2,34,-1
 269 320 l 1,35,-1
 235 75 l 1,36,-1
 536 75 l 1,37,-1
 550 173 l 2,38,39
 552 185 552 185 564 185 c 2,40,-1
 619 185 l 2,41,42
 630 185 630 185 629 173 c 2,43,-1
 607 12 l 2,44,45
 606 0 606 0 592 0 c 2,0,-1
492 801 m 2,46,47
 487 795 487 795 482 795 c 128,-1,48
 477 795 477 795 473 799 c 2,49,-1
 324 933 l 2,50,51
 320 937 320 937 320 941.5 c 128,-1,52
 320 946 320 946 326 952 c 2,53,-1
 362 989 l 2,54,55
 367 995 367 995 372 995 c 128,-1,56
 377 995 377 995 382 991 c 2,57,-1
 522 849 l 2,58,59
 527 844 527 844 527 839.5 c 128,-1,60
 527 835 527 835 522 830 c 2,61,-1
 492 801 l 2,46,47
EndSplineSet
EndChar

StartChar: Eacute
Encoding: 201 201 128
Width: 653
GlyphClass: 2
Flags: W
LayerCount: 2
Fore
SplineSet
572 932 m 1,0,-1
 386 798 l 1,1,2
 373 791 373 791 366 801 c 2,3,-1
 346 830 l 1,4,5
 338 839 338 839 351 849 c 2,6,-1
 531 990 l 2,7,8
 536 994 536 994 540 994 c 1,9,-1
 551 989 l 1,10,-1
 576 951 l 1,11,12
 584 942 584 942 572 932 c 1,0,-1
592 0 m 2,13,-1
 61 0 l 2,14,15
 48 0 48 0 50 12 c 2,16,-1
 57 63 l 2,17,18
 58 75 58 75 71 75 c 2,19,-1
 148 75 l 1,20,-1
 228 643 l 1,21,-1
 151 643 l 2,22,23
 140 643 140 643 141 655 c 2,24,-1
 148 706 l 2,25,26
 150 718 150 718 162 718 c 2,27,-1
 693 718 l 2,28,29
 705 718 705 718 705 710 c 0,30,31
 705 708 705 708 704 706 c 2,32,-1
 681 545 l 2,33,34
 679 532 679 532 668 532 c 2,35,-1
 614 532 l 2,36,37
 600 532 600 532 603 545 c 1,38,-1
 616 643 l 1,39,-1
 315 643 l 1,40,-1
 280 395 l 1,41,-1
 533 395 l 2,42,43
 546 395 546 395 544 383 c 2,44,-1
 537 332 l 2,45,46
 536 320 536 320 523 320 c 2,47,-1
 269 320 l 1,48,-1
 235 75 l 1,49,-1
 536 75 l 1,50,-1
 550 173 l 2,51,52
 552 185 552 185 564 185 c 2,53,-1
 619 185 l 2,54,55
 630 185 630 185 629 173 c 2,56,-1
 607 12 l 2,57,58
 606 0 606 0 592 0 c 2,13,-1
EndSplineSet
EndChar

StartChar: Ecircumflex
Encoding: 202 202 129
Width: 653
GlyphClass: 2
Flags: W
LayerCount: 2
Fore
SplineSet
434 985 m 2,0,1
 439 989 439 989 444.5 989 c 128,-1,2
 450 989 450 989 454 984 c 2,3,-1
 589 849 l 2,4,5
 597 840 597 840 589 830 c 1,6,-1
 560 801 l 2,7,8
 550 791 550 791 541 799 c 2,9,-1
 432 904 l 1,10,-1
 295 799 l 2,11,12
 283 790 283 790 276 801 c 2,13,-1
 255 830 l 2,14,15
 248 840 248 840 260 849 c 2,16,-1
 434 985 l 2,0,1
592 0 m 2,17,-1
 61 0 l 2,18,19
 48 0 48 0 50 12 c 2,20,-1
 57 63 l 2,21,22
 58 75 58 75 71 75 c 2,23,-1
 148 75 l 1,24,-1
 228 643 l 1,25,-1
 151 643 l 2,26,27
 140 643 140 643 141 655 c 2,28,-1
 148 706 l 2,29,30
 150 718 150 718 162 718 c 2,31,-1
 693 718 l 2,32,33
 705 718 705 718 705 710 c 0,34,35
 705 708 705 708 704 706 c 2,36,-1
 681 545 l 2,37,38
 679 532 679 532 668 532 c 2,39,-1
 614 532 l 2,40,41
 600 532 600 532 603 545 c 1,42,-1
 616 643 l 1,43,-1
 315 643 l 1,44,-1
 280 395 l 1,45,-1
 533 395 l 2,46,47
 546 395 546 395 544 383 c 2,48,-1
 537 332 l 2,49,50
 536 320 536 320 523 320 c 2,51,-1
 269 320 l 1,52,-1
 235 75 l 1,53,-1
 536 75 l 1,54,-1
 550 173 l 2,55,56
 552 185 552 185 564 185 c 2,57,-1
 619 185 l 2,58,59
 630 185 630 185 629 173 c 2,60,-1
 607 12 l 2,61,62
 606 0 606 0 592 0 c 2,17,-1
EndSplineSet
EndChar

StartChar: Edieresis
Encoding: 203 203 130
Width: 653
GlyphClass: 2
Flags: W
LayerCount: 2
Fore
SplineSet
389.5 856 m 128,-1,1
 400 845 400 845 400 827.5 c 128,-1,2
 400 810 400 810 385.5 796 c 128,-1,3
 371 782 371 782 353 782 c 128,-1,4
 335 782 335 782 325 792 c 128,-1,5
 315 802 315 802 315 820 c 128,-1,6
 315 838 315 838 329.5 852.5 c 128,-1,7
 344 867 344 867 361.5 867 c 128,-1,0
 379 867 379 867 389.5 856 c 128,-1,1
547.5 856 m 128,-1,9
 558 845 558 845 558 827.5 c 128,-1,10
 558 810 558 810 543.5 796 c 128,-1,11
 529 782 529 782 511 782 c 128,-1,12
 493 782 493 782 483 792 c 128,-1,13
 473 802 473 802 473 820 c 128,-1,14
 473 838 473 838 487.5 852.5 c 128,-1,15
 502 867 502 867 519.5 867 c 128,-1,8
 537 867 537 867 547.5 856 c 128,-1,9
592 0 m 2,16,-1
 61 0 l 2,17,18
 48 0 48 0 50 12 c 2,19,-1
 57 63 l 2,20,21
 58 75 58 75 71 75 c 2,22,-1
 148 75 l 1,23,-1
 228 643 l 1,24,-1
 151 643 l 2,25,26
 140 643 140 643 141 655 c 2,27,-1
 148 706 l 2,28,29
 150 718 150 718 162 718 c 2,30,-1
 693 718 l 2,31,32
 705 718 705 718 705 710 c 0,33,34
 705 708 705 708 704 706 c 2,35,-1
 681 545 l 2,36,37
 679 532 679 532 668 532 c 2,38,-1
 614 532 l 2,39,40
 600 532 600 532 603 545 c 1,41,-1
 616 643 l 1,42,-1
 315 643 l 1,43,-1
 280 395 l 1,44,-1
 533 395 l 2,45,46
 546 395 546 395 544 383 c 2,47,-1
 537 332 l 2,48,49
 536 320 536 320 523 320 c 2,50,-1
 269 320 l 1,51,-1
 235 75 l 1,52,-1
 536 75 l 1,53,-1
 550 173 l 2,54,55
 552 185 552 185 564 185 c 2,56,-1
 619 185 l 2,57,58
 630 185 630 185 629 173 c 2,59,-1
 607 12 l 2,60,61
 606 0 606 0 592 0 c 2,16,-1
EndSplineSet
EndChar

StartChar: Igrave
Encoding: 204 204 131
Width: 378
GlyphClass: 2
Flags: W
LayerCount: 2
Fore
SplineSet
317 0 m 2,0,-1
 77 0 l 2,1,2
 64 0 64 0 66 12 c 2,3,-1
 73 63 l 2,4,5
 74 75 74 75 87 75 c 2,6,-1
 164 75 l 1,7,-1
 244 643 l 1,8,-1
 167 643 l 2,9,10
 156 643 156 643 157 655 c 2,11,-1
 164 706 l 2,12,13
 166 718 166 718 178 718 c 2,14,-1
 418 718 l 2,15,16
 430 718 430 718 430 710 c 0,17,18
 430 708 430 708 429 706 c 2,19,-1
 422 655 l 2,20,21
 420 643 420 643 408 643 c 2,22,-1
 331 643 l 1,23,-1
 251 75 l 1,24,-1
 328 75 l 2,25,26
 340 75 340 75 339 63 c 2,27,-1
 332 12 l 2,28,29
 330 0 330 0 317 0 c 2,0,-1
332 779 m 2,30,31
 327 773 327 773 322 773 c 128,-1,32
 317 773 317 773 313 777 c 2,33,-1
 164 911 l 2,34,35
 160 915 160 915 160 919.5 c 128,-1,36
 160 924 160 924 166 930 c 2,37,-1
 202 967 l 2,38,39
 207 973 207 973 212 973 c 128,-1,40
 217 973 217 973 222 969 c 2,41,-1
 362 827 l 2,42,43
 367 822 367 822 367 817.5 c 128,-1,44
 367 813 367 813 362 808 c 2,45,-1
 332 779 l 2,30,31
EndSplineSet
EndChar

StartChar: Iacute
Encoding: 205 205 132
Width: 391
GlyphClass: 2
Flags: W
LayerCount: 2
Fore
SplineSet
301 0 m 2,0,-1
 61 0 l 2,1,2
 48 0 48 0 50 12 c 2,3,-1
 57 63 l 2,4,5
 58 75 58 75 71 75 c 2,6,-1
 148 75 l 1,7,-1
 228 643 l 1,8,-1
 151 643 l 2,9,10
 140 643 140 643 141 655 c 2,11,-1
 148 706 l 2,12,13
 150 718 150 718 162 718 c 2,14,-1
 402 718 l 2,15,16
 416 718 416 718 413 706 c 1,17,-1
 406 655 l 2,18,19
 404 643 404 643 392 643 c 2,20,-1
 315 643 l 1,21,-1
 235 75 l 1,22,-1
 312 75 l 2,23,24
 324 75 324 75 323 63 c 2,25,-1
 316 12 l 2,26,27
 314 0 314 0 301 0 c 2,0,-1
279 774 m 2,28,29
 274 771 274 771 268.5 771 c 128,-1,30
 263 771 263 771 259 777 c 2,31,-1
 239 806 l 2,32,33
 236 809 236 809 236 814 c 128,-1,34
 236 819 236 819 244 825 c 2,35,-1
 424 966 l 2,36,37
 429 970 429 970 433 970 c 1,38,-1
 444 965 l 1,39,-1
 469 927 l 2,40,41
 472 923 472 923 472 918.5 c 128,-1,42
 472 914 472 914 465 908 c 2,43,-1
 279 774 l 2,28,29
EndSplineSet
EndChar

StartChar: Icircumflex
Encoding: 206 206 133
Width: 381
GlyphClass: 2
Flags: W
LayerCount: 2
Fore
SplineSet
309 0 m 2,0,-1
 69 0 l 2,1,2
 56 0 56 0 58 12 c 2,3,-1
 65 63 l 2,4,5
 66 75 66 75 79 75 c 2,6,-1
 156 75 l 1,7,-1
 236 643 l 1,8,-1
 159 643 l 2,9,10
 148 643 148 643 149 655 c 2,11,-1
 156 706 l 2,12,13
 158 718 158 718 170 718 c 2,14,-1
 410 718 l 2,15,16
 424 718 424 718 421 706 c 1,17,-1
 414 655 l 2,18,19
 412 643 412 643 400 643 c 2,20,-1
 323 643 l 1,21,-1
 243 75 l 1,22,-1
 320 75 l 2,23,24
 332 75 332 75 331 63 c 2,25,-1
 324 12 l 2,26,27
 322 0 322 0 309 0 c 2,0,-1
446 801 m 2,28,29
 440 795 440 795 435.5 795 c 128,-1,30
 431 795 431 795 427 799 c 2,31,-1
 318 904 l 1,32,-1
 181 799 l 2,33,34
 176 795 176 795 171 795 c 128,-1,35
 166 795 166 795 162 801 c 2,36,-1
 141 830 l 2,37,38
 138 834 138 834 138 838.5 c 128,-1,39
 138 843 138 843 146 849 c 2,40,-1
 320 985 l 2,41,42
 325 989 325 989 330.5 989 c 128,-1,43
 336 989 336 989 340 984 c 2,44,-1
 475 849 l 2,45,46
 479 844 479 844 479 839.5 c 128,-1,47
 479 835 479 835 475 830 c 2,48,-1
 446 801 l 2,28,29
EndSplineSet
EndChar

StartChar: Idieresis
Encoding: 207 207 134
Width: 362
GlyphClass: 2
Flags: W
LayerCount: 2
Fore
SplineSet
301 0 m 2,0,-1
 61 0 l 2,1,2
 48 0 48 0 50 12 c 2,3,-1
 57 63 l 2,4,5
 58 75 58 75 71 75 c 2,6,-1
 148 75 l 1,7,-1
 228 643 l 1,8,-1
 151 643 l 2,9,10
 140 643 140 643 141 655 c 2,11,-1
 148 706 l 2,12,13
 150 718 150 718 162 718 c 2,14,-1
 402 718 l 2,15,16
 416 718 416 718 413 706 c 1,17,-1
 406 655 l 2,18,19
 404 643 404 643 392 643 c 2,20,-1
 315 643 l 1,21,-1
 235 75 l 1,22,-1
 312 75 l 2,23,24
 324 75 324 75 323 63 c 2,25,-1
 316 12 l 2,26,27
 314 0 314 0 301 0 c 2,0,-1
251.5 856 m 128,-1,29
 262 845 262 845 262 827.5 c 128,-1,30
 262 810 262 810 247.5 796 c 128,-1,31
 233 782 233 782 215 782 c 128,-1,32
 197 782 197 782 187 792 c 128,-1,33
 177 802 177 802 177 820 c 128,-1,34
 177 838 177 838 191.5 852.5 c 128,-1,35
 206 867 206 867 223.5 867 c 128,-1,28
 241 867 241 867 251.5 856 c 128,-1,29
409.5 856 m 128,-1,37
 420 845 420 845 420 827.5 c 128,-1,38
 420 810 420 810 405.5 796 c 128,-1,39
 391 782 391 782 373 782 c 128,-1,40
 355 782 355 782 345 792 c 128,-1,41
 335 802 335 802 335 820 c 128,-1,42
 335 838 335 838 349.5 852.5 c 128,-1,43
 364 867 364 867 381.5 867 c 128,-1,36
 399 867 399 867 409.5 856 c 128,-1,37
EndSplineSet
EndChar

StartChar: Eth
Encoding: 208 208 135
Width: 741
GlyphClass: 2
Flags: W
LayerCount: 2
Fore
SplineSet
348 0 m 2,0,-1
 61 0 l 2,1,2
 48 0 48 0 50 12 c 2,3,-1
 58 63 l 2,4,5
 60 75 60 75 72 75 c 2,6,-1
 148 75 l 1,7,-1
 183 324 l 1,8,-1
 115 324 l 2,9,10
 101 324 101 324 103 337 c 2,11,-1
 109 379 l 2,12,13
 111 393 111 393 124 393 c 2,14,-1
 193 393 l 1,15,-1
 228 643 l 1,16,-1
 151 643 l 2,17,18
 140 643 140 643 141 655 c 2,19,-1
 148 706 l 2,20,21
 150 718 150 718 162 718 c 2,22,-1
 431 718 l 2,23,24
 579 718 579 718 663.5 638 c 128,-1,25
 748 558 748 558 748 416 c 0,26,27
 748 228 748 228 638 114 c 128,-1,28
 528 0 528 0 348 0 c 2,0,-1
335 75 m 2,29,30
 491 75 491 75 574 161 c 128,-1,31
 657 247 657 247 657 407 c 0,32,33
 657 519 657 519 595 581 c 128,-1,34
 533 643 533 643 411 643 c 2,35,-1
 315 643 l 1,36,-1
 280 393 l 1,37,-1
 432 393 l 2,38,39
 446 393 446 393 444 379 c 2,40,-1
 438 337 l 2,41,42
 436 324 436 324 423 324 c 2,43,-1
 270 324 l 1,44,-1
 235 75 l 1,45,-1
 335 75 l 2,29,30
EndSplineSet
EndChar

StartChar: Ntilde
Encoding: 209 209 136
Width: 820
GlyphClass: 2
Flags: W
LayerCount: 2
Fore
SplineSet
670 0 m 2,0,-1
 616 0 l 2,1,2
 597 0 597 0 587.5 7.5 c 128,-1,3
 578 15 578 15 570 31 c 2,4,-1
 344 483 l 1,5,-1
 306 567 l 1,6,-1
 304 567 l 1,7,-1
 235 75 l 1,8,-1
 312 75 l 2,9,10
 324 75 324 75 323 63 c 2,11,-1
 316 12 l 2,12,13
 314 0 314 0 301 0 c 2,14,-1
 61 0 l 2,15,16
 48 0 48 0 50 12 c 2,17,-1
 57 63 l 2,18,19
 58 75 58 75 71 75 c 2,20,-1
 148 75 l 1,21,-1
 228 643 l 1,22,-1
 151 643 l 2,23,24
 140 643 140 643 141 655 c 2,25,-1
 148 706 l 2,26,27
 150 718 150 718 162 718 c 2,28,-1
 302 718 l 2,29,30
 332 718 332 718 348 684 c 2,31,-1
 571 238 l 1,32,-1
 614 141 l 1,33,-1
 616 141 l 1,34,-1
 686 643 l 1,35,-1
 610 643 l 2,36,37
 598 643 598 643 599 655 c 2,38,-1
 606 706 l 2,39,40
 608 718 608 718 620 718 c 2,41,-1
 861 718 l 2,42,43
 874 718 874 718 872 706 c 2,44,-1
 865 655 l 2,45,46
 864 643 864 643 851 643 c 2,47,-1
 773 643 l 1,48,-1
 685 12 l 2,49,50
 684 0 684 0 670 0 c 2,0,-1
667 910 m 2,51,-1
 691 910 l 2,52,53
 701 910 701 910 701 901 c 0,54,55
 701 852 701 852 674.5 818.5 c 128,-1,56
 648 785 648 785 598 785 c 0,57,58
 573 785 573 785 553 795 c 128,-1,59
 533 805 533 805 522 816 c 1,60,61
 494 848 494 848 471 848 c 128,-1,62
 448 848 448 848 436 835.5 c 128,-1,63
 424 823 424 823 420 791 c 0,64,65
 418 779 418 779 406 779 c 2,66,-1
 383 779 l 2,67,68
 372 779 372 779 372 789 c 0,69,70
 372 834 372 834 397.5 866.5 c 128,-1,71
 423 899 423 899 473 899 c 0,72,73
 496 899 496 899 515.5 888.5 c 128,-1,74
 535 878 535 878 546 866 c 0,75,76
 574 833 574 833 600 833 c 128,-1,77
 626 833 626 833 637 847 c 128,-1,78
 648 861 648 861 653 898 c 0,79,80
 654 910 654 910 667 910 c 2,51,-1
EndSplineSet
EndChar

StartChar: Ograve
Encoding: 210 210 137
Width: 793
GlyphClass: 2
Flags: W
LayerCount: 2
Fore
SplineSet
396 -7 m 0,0,1
 263 -7 263 -7 178.5 81.5 c 128,-1,2
 94 170 94 170 94 312 c 0,3,4
 94 405 94 405 129 484.5 c 128,-1,5
 164 564 164 564 221.5 615.5 c 128,-1,6
 279 667 279 667 351 695.5 c 128,-1,7
 423 724 423 724 498 724 c 0,8,9
 626 724 626 724 713 640 c 128,-1,10
 800 556 800 556 800 414 c 0,11,12
 800 230 800 230 681.5 111.5 c 128,-1,13
 563 -7 563 -7 396 -7 c 0,0,1
407 74 m 0,14,15
 480 74 480 74 546.5 110.5 c 128,-1,16
 613 147 613 147 659 224 c 128,-1,17
 705 301 705 301 705 409 c 128,-1,18
 705 517 705 517 640 581 c 128,-1,19
 575 645 575 645 487 645 c 0,20,21
 380 645 380 645 288 564 c 0,22,23
 244 524 244 524 216.5 459.5 c 128,-1,24
 189 395 189 395 189 316 c 0,25,26
 189 203 189 203 252.5 138.5 c 128,-1,27
 316 74 316 74 407 74 c 0,14,15
562 801 m 2,28,29
 557 795 557 795 552 795 c 128,-1,30
 547 795 547 795 543 799 c 2,31,-1
 394 933 l 2,32,33
 390 937 390 937 390 941.5 c 128,-1,34
 390 946 390 946 396 952 c 2,35,-1
 432 989 l 2,36,37
 437 995 437 995 442 995 c 128,-1,38
 447 995 447 995 452 991 c 2,39,-1
 592 849 l 2,40,41
 597 844 597 844 597 839.5 c 128,-1,42
 597 835 597 835 592 830 c 2,43,-1
 562 801 l 2,28,29
EndSplineSet
EndChar

StartChar: Oacute
Encoding: 211 211 138
Width: 793
GlyphClass: 2
Flags: W
LayerCount: 2
Fore
SplineSet
629 932 m 1,0,-1
 443 798 l 1,1,2
 430 791 430 791 423 801 c 2,3,-1
 403 830 l 1,4,5
 395 839 395 839 408 849 c 2,6,-1
 588 990 l 2,7,8
 593 994 593 994 597 994 c 1,9,-1
 608 989 l 1,10,-1
 633 951 l 1,11,12
 641 942 641 942 629 932 c 1,0,-1
396 -7 m 0,13,14
 263 -7 263 -7 178.5 81.5 c 128,-1,15
 94 170 94 170 94 312 c 0,16,17
 94 405 94 405 129 484.5 c 128,-1,18
 164 564 164 564 221.5 615.5 c 128,-1,19
 279 667 279 667 351 695.5 c 128,-1,20
 423 724 423 724 498 724 c 0,21,22
 626 724 626 724 713 640 c 128,-1,23
 800 556 800 556 800 414 c 0,24,25
 800 230 800 230 681.5 111.5 c 128,-1,26
 563 -7 563 -7 396 -7 c 0,13,14
407 74 m 0,27,28
 480 74 480 74 546.5 110.5 c 128,-1,29
 613 147 613 147 659 224 c 128,-1,30
 705 301 705 301 705 409 c 128,-1,31
 705 517 705 517 640 581 c 128,-1,32
 575 645 575 645 487 645 c 0,33,34
 380 645 380 645 288 564 c 0,35,36
 244 524 244 524 216.5 459.5 c 128,-1,37
 189 395 189 395 189 316 c 0,38,39
 189 203 189 203 252.5 138.5 c 128,-1,40
 316 74 316 74 407 74 c 0,27,28
EndSplineSet
EndChar

StartChar: Ocircumflex
Encoding: 212 212 139
Width: 793
GlyphClass: 2
Flags: W
LayerCount: 2
Fore
SplineSet
524 985 m 2,0,1
 529 989 529 989 534.5 989 c 128,-1,2
 540 989 540 989 544 984 c 2,3,-1
 679 849 l 2,4,5
 687 840 687 840 679 830 c 1,6,-1
 650 801 l 2,7,8
 640 791 640 791 631 799 c 2,9,-1
 522 904 l 1,10,-1
 385 799 l 2,11,12
 373 790 373 790 366 801 c 2,13,-1
 345 830 l 2,14,15
 338 840 338 840 350 849 c 2,16,-1
 524 985 l 2,0,1
396 -7 m 0,17,18
 263 -7 263 -7 178.5 81.5 c 128,-1,19
 94 170 94 170 94 312 c 0,20,21
 94 405 94 405 129 484.5 c 128,-1,22
 164 564 164 564 221.5 615.5 c 128,-1,23
 279 667 279 667 351 695.5 c 128,-1,24
 423 724 423 724 498 724 c 0,25,26
 626 724 626 724 713 640 c 128,-1,27
 800 556 800 556 800 414 c 0,28,29
 800 230 800 230 681.5 111.5 c 128,-1,30
 563 -7 563 -7 396 -7 c 0,17,18
407 74 m 0,31,32
 480 74 480 74 546.5 110.5 c 128,-1,33
 613 147 613 147 659 224 c 128,-1,34
 705 301 705 301 705 409 c 128,-1,35
 705 517 705 517 640 581 c 128,-1,36
 575 645 575 645 487 645 c 0,37,38
 380 645 380 645 288 564 c 0,39,40
 244 524 244 524 216.5 459.5 c 128,-1,41
 189 395 189 395 189 316 c 0,42,43
 189 203 189 203 252.5 138.5 c 128,-1,44
 316 74 316 74 407 74 c 0,31,32
EndSplineSet
EndChar

StartChar: Otilde
Encoding: 213 213 140
Width: 793
GlyphClass: 2
Flags: W
LayerCount: 2
Fore
SplineSet
396 -7 m 0,0,1
 263 -7 263 -7 178.5 81.5 c 128,-1,2
 94 170 94 170 94 312 c 0,3,4
 94 405 94 405 129 484.5 c 128,-1,5
 164 564 164 564 221.5 615.5 c 128,-1,6
 279 667 279 667 351 695.5 c 128,-1,7
 423 724 423 724 498 724 c 0,8,9
 626 724 626 724 713 640 c 128,-1,10
 800 556 800 556 800 414 c 0,11,12
 800 230 800 230 681.5 111.5 c 128,-1,13
 563 -7 563 -7 396 -7 c 0,0,1
407 74 m 0,14,15
 480 74 480 74 546.5 110.5 c 128,-1,16
 613 147 613 147 659 224 c 128,-1,17
 705 301 705 301 705 409 c 128,-1,18
 705 517 705 517 640 581 c 128,-1,19
 575 645 575 645 487 645 c 0,20,21
 380 645 380 645 288 564 c 0,22,23
 244 524 244 524 216.5 459.5 c 128,-1,24
 189 395 189 395 189 316 c 0,25,26
 189 203 189 203 252.5 138.5 c 128,-1,27
 316 74 316 74 407 74 c 0,14,15
652 910 m 2,28,-1
 676 910 l 2,29,30
 686 910 686 910 686 901 c 0,31,32
 686 852 686 852 659.5 818.5 c 128,-1,33
 633 785 633 785 583 785 c 0,34,35
 558 785 558 785 538 795 c 128,-1,36
 518 805 518 805 508 816 c 0,37,38
 479 848 479 848 456 848 c 128,-1,39
 433 848 433 848 421 835.5 c 128,-1,40
 409 823 409 823 405 791 c 0,41,42
 404 779 404 779 391 779 c 2,43,-1
 368 779 l 2,44,45
 357 779 357 779 357 789 c 0,46,47
 357 834 357 834 382.5 866.5 c 128,-1,48
 408 899 408 899 458 899 c 0,49,50
 481 899 481 899 500.5 888.5 c 128,-1,51
 520 878 520 878 530 866 c 0,52,53
 559 833 559 833 584.5 833 c 128,-1,54
 610 833 610 833 621.5 847 c 128,-1,55
 633 861 633 861 638 898 c 0,56,57
 640 910 640 910 652 910 c 2,28,-1
EndSplineSet
EndChar

StartChar: Odieresis
Encoding: 214 214 141
Width: 793
GlyphClass: 2
Flags: W
LayerCount: 2
Fore
SplineSet
464.5 856 m 128,-1,1
 475 845 475 845 475 827.5 c 128,-1,2
 475 810 475 810 460.5 796 c 128,-1,3
 446 782 446 782 428 782 c 128,-1,4
 410 782 410 782 400 792 c 128,-1,5
 390 802 390 802 390 820 c 128,-1,6
 390 838 390 838 404 852.5 c 128,-1,7
 418 867 418 867 436 867 c 128,-1,0
 454 867 454 867 464.5 856 c 128,-1,1
622.5 856 m 128,-1,9
 633 845 633 845 633 827.5 c 128,-1,10
 633 810 633 810 618.5 796 c 128,-1,11
 604 782 604 782 586 782 c 128,-1,12
 568 782 568 782 558 792 c 128,-1,13
 548 802 548 802 548 820 c 128,-1,14
 548 838 548 838 562 852.5 c 128,-1,15
 576 867 576 867 594 867 c 128,-1,8
 612 867 612 867 622.5 856 c 128,-1,9
396 -7 m 0,16,17
 263 -7 263 -7 178.5 81.5 c 128,-1,18
 94 170 94 170 94 312 c 0,19,20
 94 405 94 405 129 484.5 c 128,-1,21
 164 564 164 564 221.5 615.5 c 128,-1,22
 279 667 279 667 351 695.5 c 128,-1,23
 423 724 423 724 498 724 c 0,24,25
 626 724 626 724 713 640 c 128,-1,26
 800 556 800 556 800 414 c 0,27,28
 800 230 800 230 681.5 111.5 c 128,-1,29
 563 -7 563 -7 396 -7 c 0,16,17
407 74 m 0,30,31
 480 74 480 74 546.5 110.5 c 128,-1,32
 613 147 613 147 659 224 c 128,-1,33
 705 301 705 301 705 409 c 128,-1,34
 705 517 705 517 640 581 c 128,-1,35
 575 645 575 645 487 645 c 0,36,37
 380 645 380 645 288 564 c 0,38,39
 244 524 244 524 216.5 459.5 c 128,-1,40
 189 395 189 395 189 316 c 0,41,42
 189 203 189 203 252.5 138.5 c 128,-1,43
 316 74 316 74 407 74 c 0,30,31
EndSplineSet
EndChar

StartChar: multiply
Encoding: 215 215 142
Width: 352
GlyphClass: 2
Flags: W
LayerCount: 2
Fore
SplineSet
282 159 m 128,-1,1
 278 159 278 159 274 163 c 2,2,-1
 210 238 l 1,3,-1
 121 160 l 2,4,5
 116 156 116 156 111 156 c 128,-1,6
 106 156 106 156 103 160 c 2,7,-1
 72 196 l 2,8,9
 69 200 69 200 69 205 c 128,-1,10
 69 210 69 210 75 216 c 2,11,-1
 162 293 l 1,12,-1
 95 371 l 2,13,14
 88 380 88 380 97 389 c 2,15,-1
 143 429 l 2,16,17
 148 434 148 434 152 434 c 128,-1,18
 156 434 156 434 160 429 c 2,19,-1
 227 349 l 1,20,-1
 314 426 l 2,21,22
 320 431 320 431 324.5 431 c 128,-1,23
 329 431 329 431 333 426 c 2,24,-1
 364 390 l 2,25,26
 367 386 367 386 367 381 c 128,-1,27
 367 376 367 376 360 371 c 2,28,-1
 275 295 l 1,29,-1
 339 221 l 2,30,31
 346 212 346 212 336 203 c 2,32,-1
 291 163 l 2,33,0
 286 159 286 159 282 159 c 128,-1,1
EndSplineSet
EndChar

StartChar: Oslash
Encoding: 216 216 143
Width: 793
GlyphClass: 2
Flags: W
LayerCount: 2
Fore
SplineSet
301 -51 m 2,0,-1
 241 -51 l 2,1,2
 228 -51 228 -51 234 -39 c 2,3,-1
 260 21 l 1,4,5
 183 56 183 56 138.5 133 c 128,-1,6
 94 210 94 210 94 307.5 c 128,-1,7
 94 405 94 405 129 484.5 c 128,-1,8
 164 564 164 564 221.5 615.5 c 128,-1,9
 279 667 279 667 351 695.5 c 128,-1,10
 423 724 423 724 498 724 c 0,11,12
 531 724 531 724 565 716 c 1,13,-1
 590 771 l 1,14,15
 594 783 594 783 608 783 c 2,16,-1
 667 783 l 2,17,18
 678 783 678 783 674 771 c 1,19,-1
 640 693 l 1,20,21
 713 659 713 659 756.5 585.5 c 128,-1,22
 800 512 800 512 800 413 c 0,23,24
 800 230 800 230 681.5 111.5 c 128,-1,25
 563 -7 563 -7 396 -7 c 0,26,27
 365 -7 365 -7 335 1 c 1,28,-1
 318 -39 l 2,29,30
 312 -51 312 -51 301 -51 c 2,0,-1
216 457 m 128,-1,32
 189 393 189 393 189 316.5 c 128,-1,33
 189 240 189 240 218.5 186.5 c 128,-1,34
 248 133 248 133 297 107 c 1,35,-1
 531 636 l 1,36,37
 507 644 507 644 467.5 643 c 128,-1,38
 428 642 428 642 378.5 620.5 c 128,-1,39
 329 599 329 599 286 560 c 128,-1,31
 243 521 243 521 216 457 c 128,-1,32
370 81 m 1,40,41
 393 75 393 75 431.5 75 c 128,-1,42
 470 75 470 75 520.5 97 c 128,-1,43
 571 119 571 119 612.5 159.5 c 128,-1,44
 654 200 654 200 679.5 263.5 c 128,-1,45
 705 327 705 327 705 401 c 128,-1,46
 705 475 705 475 676.5 527.5 c 128,-1,47
 648 580 648 580 602 606 c 1,48,-1
 370 81 l 1,40,41
EndSplineSet
EndChar

StartChar: Ugrave
Encoding: 217 217 144
Width: 814
GlyphClass: 2
Flags: W
LayerCount: 2
Fore
SplineSet
603 643 m 2,0,1
 590 643 590 643 592 655 c 2,2,-1
 599 706 l 2,3,4
 600 718 600 718 613 718 c 2,5,-1
 854 718 l 2,6,7
 866 718 866 718 865 706 c 2,8,-1
 858 655 l 2,9,10
 856 643 856 643 844 643 c 2,11,-1
 767 643 l 1,12,-1
 714 269 l 2,13,14
 695 133 695 133 615 63 c 128,-1,15
 535 -7 535 -7 406.5 -7 c 128,-1,16
 278 -7 278 -7 217 64 c 1,17,18
 170 117 170 117 170 209 c 0,19,20
 170 237 170 237 175 269 c 2,21,-1
 227 643 l 1,22,-1
 150 643 l 2,23,24
 138 643 138 643 140 655 c 2,25,-1
 147 706 l 2,26,27
 148 718 148 718 161 718 c 2,28,-1
 402 718 l 2,29,30
 415 718 415 718 412 706 c 1,31,-1
 405 655 l 2,32,33
 404 643 404 643 391 643 c 2,34,-1
 314 643 l 1,35,-1
 261 266 l 2,36,37
 258 242 258 242 258 221 c 0,38,39
 258 74 258 74 418 74 c 0,40,41
 512 74 512 74 563 123.5 c 128,-1,42
 614 173 614 173 626 260 c 2,43,-1
 679 643 l 1,44,-1
 603 643 l 2,0,1
603 801 m 2,45,46
 598 795 598 795 593 795 c 128,-1,47
 588 795 588 795 584 799 c 2,48,-1
 435 933 l 2,49,50
 431 937 431 937 431 941.5 c 128,-1,51
 431 946 431 946 437 952 c 2,52,-1
 473 989 l 2,53,54
 478 995 478 995 483 995 c 128,-1,55
 488 995 488 995 493 991 c 2,56,-1
 633 849 l 2,57,58
 638 844 638 844 638 839.5 c 128,-1,59
 638 835 638 835 633 830 c 2,60,-1
 603 801 l 2,45,46
EndSplineSet
EndChar

StartChar: Uacute
Encoding: 218 218 145
Width: 814
GlyphClass: 2
Flags: W
LayerCount: 2
Fore
SplineSet
676 932 m 1,0,-1
 490 798 l 1,1,2
 477 791 477 791 470 801 c 2,3,-1
 450 830 l 1,4,5
 442 839 442 839 455 849 c 2,6,-1
 635 990 l 2,7,8
 640 994 640 994 644 994 c 1,9,-1
 655 989 l 1,10,-1
 680 951 l 1,11,12
 688 942 688 942 676 932 c 1,0,-1
603 643 m 2,13,14
 590 643 590 643 592 655 c 2,15,-1
 599 706 l 2,16,17
 600 718 600 718 613 718 c 2,18,-1
 854 718 l 2,19,20
 866 718 866 718 865 706 c 2,21,-1
 858 655 l 2,22,23
 856 643 856 643 844 643 c 2,24,-1
 767 643 l 1,25,-1
 714 269 l 2,26,27
 695 133 695 133 615 63 c 128,-1,28
 535 -7 535 -7 406.5 -7 c 128,-1,29
 278 -7 278 -7 217 64 c 1,30,31
 170 117 170 117 170 209 c 0,32,33
 170 237 170 237 175 269 c 2,34,-1
 227 643 l 1,35,-1
 150 643 l 2,36,37
 138 643 138 643 140 655 c 2,38,-1
 147 706 l 2,39,40
 148 718 148 718 161 718 c 2,41,-1
 402 718 l 2,42,43
 415 718 415 718 412 706 c 1,44,-1
 405 655 l 2,45,46
 404 643 404 643 391 643 c 2,47,-1
 314 643 l 1,48,-1
 261 266 l 2,49,50
 258 242 258 242 258 221 c 0,51,52
 258 74 258 74 418 74 c 0,53,54
 512 74 512 74 563 123.5 c 128,-1,55
 614 173 614 173 626 260 c 2,56,-1
 679 643 l 1,57,-1
 603 643 l 2,13,14
EndSplineSet
EndChar

StartChar: Ucircumflex
Encoding: 219 219 146
Width: 814
GlyphClass: 2
Flags: W
LayerCount: 2
Fore
SplineSet
536 985 m 2,0,1
 541 989 541 989 546.5 989 c 128,-1,2
 552 989 552 989 556 984 c 2,3,-1
 691 849 l 2,4,5
 699 840 699 840 691 830 c 1,6,-1
 662 801 l 2,7,8
 652 791 652 791 643 799 c 2,9,-1
 534 904 l 1,10,-1
 397 799 l 2,11,12
 385 790 385 790 378 801 c 2,13,-1
 357 830 l 2,14,15
 350 840 350 840 362 849 c 2,16,-1
 536 985 l 2,0,1
603 643 m 2,17,18
 590 643 590 643 592 655 c 2,19,-1
 599 706 l 2,20,21
 600 718 600 718 613 718 c 2,22,-1
 854 718 l 2,23,24
 866 718 866 718 865 706 c 2,25,-1
 858 655 l 2,26,27
 856 643 856 643 844 643 c 2,28,-1
 767 643 l 1,29,-1
 714 269 l 2,30,31
 695 133 695 133 615 63 c 128,-1,32
 535 -7 535 -7 406.5 -7 c 128,-1,33
 278 -7 278 -7 217 64 c 1,34,35
 170 117 170 117 170 209 c 0,36,37
 170 237 170 237 175 269 c 2,38,-1
 227 643 l 1,39,-1
 150 643 l 2,40,41
 138 643 138 643 140 655 c 2,42,-1
 147 706 l 2,43,44
 148 718 148 718 161 718 c 2,45,-1
 402 718 l 2,46,47
 415 718 415 718 412 706 c 1,48,-1
 405 655 l 2,49,50
 404 643 404 643 391 643 c 2,51,-1
 314 643 l 1,52,-1
 261 266 l 2,53,54
 258 242 258 242 258 221 c 0,55,56
 258 74 258 74 418 74 c 0,57,58
 512 74 512 74 563 123.5 c 128,-1,59
 614 173 614 173 626 260 c 2,60,-1
 679 643 l 1,61,-1
 603 643 l 2,17,18
EndSplineSet
EndChar

StartChar: Udieresis
Encoding: 220 220 147
Width: 814
GlyphClass: 2
Flags: W
LayerCount: 2
Fore
SplineSet
474.5 856 m 128,-1,1
 485 845 485 845 485 827.5 c 128,-1,2
 485 810 485 810 470.5 796 c 128,-1,3
 456 782 456 782 438 782 c 128,-1,4
 420 782 420 782 410 792 c 128,-1,5
 400 802 400 802 400 820 c 128,-1,6
 400 838 400 838 414 852.5 c 128,-1,7
 428 867 428 867 446 867 c 128,-1,0
 464 867 464 867 474.5 856 c 128,-1,1
632.5 856 m 128,-1,9
 643 845 643 845 643 827.5 c 128,-1,10
 643 810 643 810 628.5 796 c 128,-1,11
 614 782 614 782 596 782 c 128,-1,12
 578 782 578 782 568 792 c 128,-1,13
 558 802 558 802 558 820 c 128,-1,14
 558 838 558 838 572 852.5 c 128,-1,15
 586 867 586 867 604 867 c 128,-1,8
 622 867 622 867 632.5 856 c 128,-1,9
603 643 m 2,16,17
 590 643 590 643 592 655 c 2,18,-1
 599 706 l 2,19,20
 600 718 600 718 613 718 c 2,21,-1
 854 718 l 2,22,23
 866 718 866 718 865 706 c 2,24,-1
 858 655 l 2,25,26
 856 643 856 643 844 643 c 2,27,-1
 767 643 l 1,28,-1
 714 269 l 2,29,30
 695 133 695 133 615 63 c 128,-1,31
 535 -7 535 -7 406.5 -7 c 128,-1,32
 278 -7 278 -7 217 64 c 1,33,34
 170 117 170 117 170 209 c 0,35,36
 170 237 170 237 175 269 c 2,37,-1
 227 643 l 1,38,-1
 150 643 l 2,39,40
 138 643 138 643 140 655 c 2,41,-1
 147 706 l 2,42,43
 148 718 148 718 161 718 c 2,44,-1
 402 718 l 2,45,46
 415 718 415 718 412 706 c 1,47,-1
 405 655 l 2,48,49
 404 643 404 643 391 643 c 2,50,-1
 314 643 l 1,51,-1
 261 266 l 2,52,53
 258 242 258 242 258 221 c 0,54,55
 258 74 258 74 418 74 c 0,56,57
 512 74 512 74 563 123.5 c 128,-1,58
 614 173 614 173 626 260 c 2,59,-1
 679 643 l 1,60,-1
 603 643 l 2,16,17
EndSplineSet
EndChar

StartChar: Yacute
Encoding: 221 221 148
Width: 759
GlyphClass: 2
Flags: W
LayerCount: 2
Fore
SplineSet
500 0 m 2,0,-1
 259 0 l 2,1,2
 246 0 246 0 248 12 c 2,3,-1
 255 63 l 2,4,5
 256 75 256 75 270 75 c 2,6,-1
 346 75 l 1,7,-1
 376 289 l 1,8,9
 375 290 375 290 346 359 c 0,10,11
 255 576 255 576 218 643 c 1,12,-1
 150 643 l 2,13,14
 138 643 138 643 140 655 c 2,15,-1
 147 706 l 2,16,17
 148 718 148 718 161 718 c 2,18,-1
 386 718 l 2,19,20
 398 718 398 718 397 706 c 2,21,-1
 390 655 l 2,22,23
 388 643 388 643 376 643 c 2,24,-1
 310 643 l 1,25,-1
 428 365 l 1,26,-1
 434 365 l 1,27,-1
 628 643 l 1,28,-1
 563 643 l 2,29,30
 550 643 550 643 552 655 c 2,31,-1
 559 706 l 2,32,33
 560 718 560 718 573 718 c 2,34,-1
 799 718 l 2,35,36
 812 718 812 718 810 706 c 2,37,-1
 803 655 l 2,38,39
 802 643 802 643 788 643 c 2,40,-1
 720 643 l 1,41,42
 660 570 660 570 512 359 c 1,43,-1
 463 290 l 1,44,-1
 433 75 l 1,45,-1
 510 75 l 2,46,47
 522 75 522 75 521 63 c 2,48,-1
 514 12 l 2,49,50
 512 0 512 0 500 0 c 2,0,-1
433 798 m 2,51,52
 428 795 428 795 422.5 795 c 128,-1,53
 417 795 417 795 413 801 c 2,54,-1
 393 830 l 2,55,56
 390 833 390 833 390 838 c 128,-1,57
 390 843 390 843 398 849 c 2,58,-1
 578 990 l 2,59,60
 583 994 583 994 587 994 c 1,61,-1
 598 989 l 1,62,-1
 623 951 l 2,63,64
 626 947 626 947 626 942.5 c 128,-1,65
 626 938 626 938 619 932 c 2,66,-1
 433 798 l 2,51,52
EndSplineSet
EndChar

StartChar: Thorn
Encoding: 222 222 149
Width: 626
GlyphClass: 2
Flags: W
LayerCount: 2
Fore
SplineSet
296 0 m 2,0,-1
 51 0 l 2,1,2
 38 0 38 0 40 12 c 2,3,-1
 47 57 l 2,4,5
 48 69 48 69 60 69 c 2,6,-1
 130 69 l 1,7,-1
 212 649 l 1,8,-1
 144 649 l 2,9,10
 132 649 132 649 134 661 c 2,11,-1
 140 706 l 2,12,13
 142 718 142 718 154 718 c 2,14,-1
 293 718 l 2,15,16
 307 718 307 718 304 706 c 1,17,-1
 287 584 l 1,18,-1
 430 584 l 2,19,20
 527 584 527 584 584.5 536 c 128,-1,21
 642 488 642 488 642 400 c 0,22,23
 642 284 642 284 569 221.5 c 128,-1,24
 496 159 496 159 359 159 c 2,25,-1
 225 159 l 1,26,-1
 212 69 l 1,27,-1
 306 69 l 2,28,29
 318 69 318 69 317 57 c 2,30,-1
 311 12 l 2,31,32
 310 0 310 0 296 0 c 2,0,-1
377 230 m 2,33,34
 459 230 459 230 506.5 269 c 128,-1,35
 554 308 554 308 554 390 c 0,36,37
 554 451 554 451 515.5 480 c 128,-1,38
 477 509 477 509 416 509 c 2,39,-1
 275 509 l 1,40,-1
 235 230 l 1,41,-1
 377 230 l 2,33,34
EndSplineSet
EndChar

StartChar: germandbls
Encoding: 223 223 150
Width: 697
GlyphClass: 2
Flags: W
LayerCount: 2
Fore
SplineSet
232 0 m 2,0,-1
 51 0 l 2,1,2
 38 0 38 0 40 12 c 2,3,-1
 47 57 l 2,4,5
 48 69 48 69 60 69 c 2,6,-1
 118 69 l 1,7,-1
 176 482 l 2,8,9
 192 593 192 593 264.5 658.5 c 128,-1,10
 337 724 337 724 423 724 c 128,-1,11
 509 724 509 724 548 690 c 128,-1,12
 587 656 587 656 587 604 c 0,13,14
 587 541 587 541 547 510 c 1,15,16
 527 493 527 493 472 458 c 0,17,18
 432 432 432 432 432 380 c 0,19,20
 432 332 432 332 520 302 c 0,21,22
 556 290 556 290 592.5 275 c 128,-1,23
 629 260 629 260 654.5 229.5 c 128,-1,24
 680 199 680 199 680 155 c 0,25,26
 680 84 680 84 614 36 c 128,-1,27
 548 -12 548 -12 457 -12 c 0,28,29
 325 -12 325 -12 282 93 c 0,30,31
 278 104 278 104 276 110 c 2,32,-1
 271 132 l 2,33,34
 268 143 268 143 281 149 c 2,35,-1
 318 165 l 1,36,37
 333 170 333 170 334 159 c 1,38,39
 346 122 346 122 357 107.5 c 128,-1,40
 368 93 368 93 380 82 c 1,41,42
 411 57 411 57 463 57 c 128,-1,43
 515 57 515 57 553 83.5 c 128,-1,44
 591 110 591 110 591 144 c 128,-1,45
 591 178 591 178 566 198 c 128,-1,46
 541 218 541 218 505 230.5 c 128,-1,47
 469 243 469 243 433 256.5 c 128,-1,48
 397 270 397 270 372 298 c 128,-1,49
 347 326 347 326 347 366.5 c 128,-1,50
 347 407 347 407 363 435.5 c 128,-1,51
 379 464 379 464 401.5 479.5 c 128,-1,52
 424 495 424 495 447 508 c 0,53,54
 502 539 502 539 502 584 c 0,55,56
 502 612 502 612 481.5 630.5 c 128,-1,57
 461 649 461 649 412.5 649 c 128,-1,58
 364 649 364 649 317.5 604.5 c 128,-1,59
 271 560 271 560 260 482 c 2,60,-1
 202 69 l 1,61,-1
 242 69 l 2,62,63
 254 69 254 69 253 57 c 2,64,-1
 246 12 l 2,65,66
 244 0 244 0 232 0 c 2,0,-1
EndSplineSet
EndChar

StartChar: agrave
Encoding: 224 224 151
Width: 580
GlyphClass: 2
Flags: W
LayerCount: 2
Fore
SplineSet
529 0 m 2,0,-1
 442 0 l 2,1,2
 404 0 404 0 404 31 c 0,3,4
 404 36 404 36 405 42 c 2,5,-1
 412 93 l 1,6,-1
 410 93 l 1,7,8
 325 -8 325 -8 201 -8 c 0,9,10
 136 -8 136 -8 95.5 25 c 128,-1,11
 55 58 55 58 55 114 c 0,12,13
 55 204 55 204 133.5 247 c 128,-1,14
 212 290 212 290 347 290 c 2,15,-1
 431 290 l 1,16,-1
 433 302 l 2,17,18
 436 318 436 318 436 333 c 0,19,20
 436 427 436 427 320 427 c 0,21,22
 259 427 259 427 230.5 415.5 c 128,-1,23
 202 404 202 404 189.5 397 c 128,-1,24
 177 390 177 390 170.5 385.5 c 128,-1,25
 164 381 164 381 163 381 c 0,26,27
 152 377 152 377 148 384 c 2,28,-1
 125 419 l 2,29,30
 120 427 120 427 129 435.5 c 128,-1,31
 138 444 138 444 154.5 455.5 c 128,-1,32
 171 467 171 467 222 483 c 128,-1,33
 273 499 273 499 333 499 c 0,34,35
 519 499 519 499 519 344 c 0,36,37
 519 323 519 323 515 299 c 2,38,-1
 482 67 l 1,39,-1
 539 67 l 2,40,41
 550 67 550 67 549 55 c 2,42,-1
 543 12 l 2,43,44
 542 0 542 0 529 0 c 2,0,-1
343 230 m 2,45,46
 251 230 251 230 212 216.5 c 128,-1,47
 173 203 173 203 158 183.5 c 128,-1,48
 143 164 143 164 143 133.5 c 128,-1,49
 143 103 143 103 168 83 c 128,-1,50
 193 63 193 63 236 63 c 0,51,52
 334 63 334 63 411 149 c 1,53,-1
 422 230 l 1,54,-1
 343 230 l 2,45,46
424 575 m 2,55,56
 419 569 419 569 414 569 c 128,-1,57
 409 569 409 569 405 573 c 2,58,-1
 256 707 l 2,59,60
 252 711 252 711 252 715.5 c 128,-1,61
 252 720 252 720 258 726 c 2,62,-1
 294 763 l 2,63,64
 299 769 299 769 304 769 c 128,-1,65
 309 769 309 769 314 765 c 2,66,-1
 454 623 l 2,67,68
 459 618 459 618 459 613.5 c 128,-1,69
 459 609 459 609 454 604 c 2,70,-1
 424 575 l 2,55,56
EndSplineSet
Substitution2: "'salt' Stylistic Alternatives lookup 2 subtable" agrave.alt
Substitution2: "'aalt' Access All Alternates lookup 0 subtable" agrave.alt
EndChar

StartChar: aacute
Encoding: 225 225 152
Width: 580
GlyphClass: 2
Flags: W
LayerCount: 2
Fore
SplineSet
529 0 m 2,0,-1
 442 0 l 2,1,2
 404 0 404 0 404 31 c 0,3,4
 404 36 404 36 405 42 c 2,5,-1
 412 93 l 1,6,-1
 410 93 l 1,7,8
 325 -8 325 -8 201 -8 c 0,9,10
 136 -8 136 -8 95.5 25 c 128,-1,11
 55 58 55 58 55 114 c 0,12,13
 55 204 55 204 133.5 247 c 128,-1,14
 212 290 212 290 347 290 c 2,15,-1
 431 290 l 1,16,-1
 433 302 l 2,17,18
 436 318 436 318 436 333 c 0,19,20
 436 427 436 427 320 427 c 0,21,22
 259 427 259 427 230.5 415.5 c 128,-1,23
 202 404 202 404 189.5 397 c 128,-1,24
 177 390 177 390 170.5 385.5 c 128,-1,25
 164 381 164 381 163 381 c 0,26,27
 152 377 152 377 148 384 c 2,28,-1
 125 419 l 2,29,30
 120 427 120 427 129 435.5 c 128,-1,31
 138 444 138 444 154.5 455.5 c 128,-1,32
 171 467 171 467 222 483 c 128,-1,33
 273 499 273 499 333 499 c 0,34,35
 519 499 519 499 519 344 c 0,36,37
 519 323 519 323 515 299 c 2,38,-1
 482 67 l 1,39,-1
 539 67 l 2,40,41
 550 67 550 67 549 55 c 2,42,-1
 543 12 l 2,43,44
 542 0 542 0 529 0 c 2,0,-1
343 230 m 2,45,46
 251 230 251 230 212 216.5 c 128,-1,47
 173 203 173 203 158 183.5 c 128,-1,48
 143 164 143 164 143 133.5 c 128,-1,49
 143 103 143 103 168 83 c 128,-1,50
 193 63 193 63 236 63 c 0,51,52
 334 63 334 63 411 149 c 1,53,-1
 422 230 l 1,54,-1
 343 230 l 2,45,46
319 572 m 2,55,56
 314 569 314 569 308.5 569 c 128,-1,57
 303 569 303 569 299 575 c 2,58,-1
 279 604 l 2,59,60
 276 607 276 607 276 612 c 128,-1,61
 276 617 276 617 284 623 c 2,62,-1
 464 764 l 2,63,64
 469 768 469 768 473 768 c 1,65,-1
 484 763 l 1,66,-1
 509 725 l 2,67,68
 512 721 512 721 512 716.5 c 128,-1,69
 512 712 512 712 505 706 c 2,70,-1
 319 572 l 2,55,56
EndSplineSet
Substitution2: "'salt' Stylistic Alternatives lookup 2 subtable" aacute.alt
Substitution2: "'aalt' Access All Alternates lookup 0 subtable" aacute.alt
EndChar

StartChar: acircumflex
Encoding: 226 226 153
Width: 580
GlyphClass: 2
Flags: W
LayerCount: 2
Fore
SplineSet
529 0 m 2,0,-1
 442 0 l 2,1,2
 404 0 404 0 404 31 c 0,3,4
 404 36 404 36 405 42 c 2,5,-1
 412 93 l 1,6,-1
 410 93 l 1,7,8
 325 -8 325 -8 201 -8 c 0,9,10
 136 -8 136 -8 95.5 25 c 128,-1,11
 55 58 55 58 55 114 c 0,12,13
 55 204 55 204 133.5 247 c 128,-1,14
 212 290 212 290 347 290 c 2,15,-1
 431 290 l 1,16,-1
 433 302 l 2,17,18
 436 318 436 318 436 333 c 0,19,20
 436 427 436 427 320 427 c 0,21,22
 259 427 259 427 230.5 415.5 c 128,-1,23
 202 404 202 404 189.5 397 c 128,-1,24
 177 390 177 390 170.5 385.5 c 128,-1,25
 164 381 164 381 163 381 c 0,26,27
 152 377 152 377 148 384 c 2,28,-1
 125 419 l 2,29,30
 120 427 120 427 129 435.5 c 128,-1,31
 138 444 138 444 154.5 455.5 c 128,-1,32
 171 467 171 467 222 483 c 128,-1,33
 273 499 273 499 333 499 c 0,34,35
 519 499 519 499 519 344 c 0,36,37
 519 323 519 323 515 299 c 2,38,-1
 482 67 l 1,39,-1
 539 67 l 2,40,41
 550 67 550 67 549 55 c 2,42,-1
 543 12 l 2,43,44
 542 0 542 0 529 0 c 2,0,-1
343 230 m 2,45,46
 251 230 251 230 212 216.5 c 128,-1,47
 173 203 173 203 158 183.5 c 128,-1,48
 143 164 143 164 143 133.5 c 128,-1,49
 143 103 143 103 168 83 c 128,-1,50
 193 63 193 63 236 63 c 0,51,52
 334 63 334 63 411 149 c 1,53,-1
 422 230 l 1,54,-1
 343 230 l 2,45,46
504 575 m 2,55,56
 498 569 498 569 493.5 569 c 128,-1,57
 489 569 489 569 485 573 c 2,58,-1
 376 678 l 1,59,-1
 239 573 l 2,60,61
 234 569 234 569 229 569 c 128,-1,62
 224 569 224 569 220 575 c 2,63,-1
 199 604 l 2,64,65
 196 608 196 608 196 612.5 c 128,-1,66
 196 617 196 617 204 623 c 2,67,-1
 378 759 l 2,68,69
 383 763 383 763 388.5 763 c 128,-1,70
 394 763 394 763 398 758 c 2,71,-1
 533 623 l 2,72,73
 537 618 537 618 537 613.5 c 128,-1,74
 537 609 537 609 533 604 c 2,75,-1
 504 575 l 2,55,56
EndSplineSet
Substitution2: "'salt' Stylistic Alternatives lookup 2 subtable" acircumflex.alt
Substitution2: "'aalt' Access All Alternates lookup 0 subtable" acircumflex.alt
EndChar

StartChar: atilde
Encoding: 227 227 154
Width: 580
GlyphClass: 2
Flags: W
LayerCount: 2
Fore
SplineSet
529 0 m 2,0,-1
 442 0 l 2,1,2
 404 0 404 0 404 31 c 0,3,4
 404 36 404 36 405 42 c 2,5,-1
 412 93 l 1,6,-1
 410 93 l 1,7,8
 325 -8 325 -8 201 -8 c 0,9,10
 136 -8 136 -8 95.5 25 c 128,-1,11
 55 58 55 58 55 114 c 0,12,13
 55 204 55 204 133.5 247 c 128,-1,14
 212 290 212 290 347 290 c 2,15,-1
 431 290 l 1,16,-1
 433 302 l 2,17,18
 436 318 436 318 436 333 c 0,19,20
 436 427 436 427 320 427 c 0,21,22
 259 427 259 427 230.5 415.5 c 128,-1,23
 202 404 202 404 189.5 397 c 128,-1,24
 177 390 177 390 170.5 385.5 c 128,-1,25
 164 381 164 381 163 381 c 0,26,27
 152 377 152 377 148 384 c 2,28,-1
 125 419 l 2,29,30
 120 427 120 427 129 435.5 c 128,-1,31
 138 444 138 444 154.5 455.5 c 128,-1,32
 171 467 171 467 222 483 c 128,-1,33
 273 499 273 499 333 499 c 0,34,35
 519 499 519 499 519 344 c 0,36,37
 519 323 519 323 515 299 c 2,38,-1
 482 67 l 1,39,-1
 539 67 l 2,40,41
 550 67 550 67 549 55 c 2,42,-1
 543 12 l 2,43,44
 542 0 542 0 529 0 c 2,0,-1
343 230 m 2,45,46
 251 230 251 230 212 216.5 c 128,-1,47
 173 203 173 203 158 183.5 c 128,-1,48
 143 164 143 164 143 133.5 c 128,-1,49
 143 103 143 103 168 83 c 128,-1,50
 193 63 193 63 236 63 c 0,51,52
 334 63 334 63 411 149 c 1,53,-1
 422 230 l 1,54,-1
 343 230 l 2,45,46
498 684 m 2,55,-1
 522 684 l 2,56,57
 532 684 532 684 532 675 c 0,58,59
 532 626 532 626 505.5 592.5 c 128,-1,60
 479 559 479 559 429 559 c 0,61,62
 404 559 404 559 384 569 c 128,-1,63
 364 579 364 579 354 590 c 0,64,65
 325 622 325 622 302 622 c 128,-1,66
 279 622 279 622 267 609.5 c 128,-1,67
 255 597 255 597 251 565 c 0,68,69
 250 553 250 553 237 553 c 2,70,-1
 214 553 l 2,71,72
 203 553 203 553 203 563 c 0,73,74
 203 608 203 608 228.5 640.5 c 128,-1,75
 254 673 254 673 304 673 c 0,76,77
 327 673 327 673 346.5 662.5 c 128,-1,78
 366 652 366 652 376 640 c 0,79,80
 405 607 405 607 430.5 607 c 128,-1,81
 456 607 456 607 467.5 621 c 128,-1,82
 479 635 479 635 484 672 c 0,83,84
 486 684 486 684 498 684 c 2,55,-1
EndSplineSet
Substitution2: "'salt' Stylistic Alternatives lookup 2 subtable" atilde.alt
Substitution2: "'aalt' Access All Alternates lookup 0 subtable" atilde.alt
EndChar

StartChar: adieresis
Encoding: 228 228 155
Width: 580
GlyphClass: 2
Flags: W
LayerCount: 2
Fore
SplineSet
529 0 m 2,0,-1
 442 0 l 2,1,2
 404 0 404 0 404 31 c 0,3,4
 404 36 404 36 405 42 c 2,5,-1
 412 93 l 1,6,-1
 410 93 l 1,7,8
 325 -8 325 -8 201 -8 c 0,9,10
 136 -8 136 -8 95.5 25 c 128,-1,11
 55 58 55 58 55 114 c 0,12,13
 55 204 55 204 133.5 247 c 128,-1,14
 212 290 212 290 347 290 c 2,15,-1
 431 290 l 1,16,-1
 433 302 l 2,17,18
 436 318 436 318 436 333 c 0,19,20
 436 427 436 427 320 427 c 0,21,22
 259 427 259 427 230.5 415.5 c 128,-1,23
 202 404 202 404 189.5 397 c 128,-1,24
 177 390 177 390 170.5 385.5 c 128,-1,25
 164 381 164 381 163 381 c 0,26,27
 152 377 152 377 148 384 c 2,28,-1
 125 419 l 2,29,30
 120 427 120 427 129 435.5 c 128,-1,31
 138 444 138 444 154.5 455.5 c 128,-1,32
 171 467 171 467 222 483 c 128,-1,33
 273 499 273 499 333 499 c 0,34,35
 519 499 519 499 519 344 c 0,36,37
 519 323 519 323 515 299 c 2,38,-1
 482 67 l 1,39,-1
 539 67 l 2,40,41
 550 67 550 67 549 55 c 2,42,-1
 543 12 l 2,43,44
 542 0 542 0 529 0 c 2,0,-1
343 230 m 2,45,46
 251 230 251 230 212 216.5 c 128,-1,47
 173 203 173 203 158 183.5 c 128,-1,48
 143 164 143 164 143 133.5 c 128,-1,49
 143 103 143 103 168 83 c 128,-1,50
 193 63 193 63 236 63 c 0,51,52
 334 63 334 63 411 149 c 1,53,-1
 422 230 l 1,54,-1
 343 230 l 2,45,46
327.5 630 m 128,-1,56
 338 619 338 619 338 601.5 c 128,-1,57
 338 584 338 584 323.5 570 c 128,-1,58
 309 556 309 556 291 556 c 128,-1,59
 273 556 273 556 263 566 c 128,-1,60
 253 576 253 576 253 594 c 128,-1,61
 253 612 253 612 267.5 626.5 c 128,-1,62
 282 641 282 641 299.5 641 c 128,-1,55
 317 641 317 641 327.5 630 c 128,-1,56
485.5 630 m 128,-1,64
 496 619 496 619 496 601.5 c 128,-1,65
 496 584 496 584 481.5 570 c 128,-1,66
 467 556 467 556 449 556 c 128,-1,67
 431 556 431 556 421 566 c 128,-1,68
 411 576 411 576 411 594 c 128,-1,69
 411 612 411 612 425.5 626.5 c 128,-1,70
 440 641 440 641 457.5 641 c 128,-1,63
 475 641 475 641 485.5 630 c 128,-1,64
EndSplineSet
Substitution2: "'salt' Stylistic Alternatives lookup 2 subtable" adieresis.alt
Substitution2: "'aalt' Access All Alternates lookup 0 subtable" adieresis.alt
EndChar

StartChar: aring
Encoding: 229 229 156
Width: 580
GlyphClass: 2
Flags: W
LayerCount: 2
Fore
SplineSet
529 0 m 2,0,-1
 442 0 l 2,1,2
 404 0 404 0 404 31 c 0,3,4
 404 36 404 36 405 42 c 2,5,-1
 412 93 l 1,6,-1
 410 93 l 1,7,8
 325 -8 325 -8 201 -8 c 0,9,10
 136 -8 136 -8 95.5 25 c 128,-1,11
 55 58 55 58 55 114 c 0,12,13
 55 204 55 204 133.5 247 c 128,-1,14
 212 290 212 290 347 290 c 2,15,-1
 431 290 l 1,16,-1
 433 302 l 2,17,18
 436 318 436 318 436 333 c 0,19,20
 436 427 436 427 320 427 c 0,21,22
 259 427 259 427 230.5 415.5 c 128,-1,23
 202 404 202 404 189.5 397 c 128,-1,24
 177 390 177 390 170.5 385.5 c 128,-1,25
 164 381 164 381 163 381 c 0,26,27
 152 377 152 377 148 384 c 2,28,-1
 125 419 l 2,29,30
 120 427 120 427 129 435.5 c 128,-1,31
 138 444 138 444 154.5 455.5 c 128,-1,32
 171 467 171 467 222 483 c 128,-1,33
 273 499 273 499 333 499 c 0,34,35
 519 499 519 499 519 344 c 0,36,37
 519 323 519 323 515 299 c 2,38,-1
 482 67 l 1,39,-1
 539 67 l 2,40,41
 550 67 550 67 549 55 c 2,42,-1
 543 12 l 2,43,44
 542 0 542 0 529 0 c 2,0,-1
343 230 m 2,45,46
 251 230 251 230 212 216.5 c 128,-1,47
 173 203 173 203 158 183.5 c 128,-1,48
 143 164 143 164 143 133.5 c 128,-1,49
 143 103 143 103 168 83 c 128,-1,50
 193 63 193 63 236 63 c 0,51,52
 334 63 334 63 411 149 c 1,53,-1
 422 230 l 1,54,-1
 343 230 l 2,45,46
424 608 m 1,55,56
 407 574 407 574 366 574 c 0,57,58
 354 574 354 574 342 579 c 1,59,60
 321 594 321 594 321 617 c 128,-1,61
 321 640 321 640 332 656 c 1,62,63
 343 678 343 678 368 686 c 0,64,65
 379 690 379 690 390.5 690 c 128,-1,66
 402 690 402 690 414 685 c 1,67,68
 435 670 435 670 435 646.5 c 128,-1,69
 435 623 435 623 424 608 c 1,55,56
390 660 m 0,70,71
 385 662 385 662 379.5 662 c 128,-1,72
 374 662 374 662 364.5 656.5 c 128,-1,73
 355 651 355 651 352 642 c 128,-1,74
 349 633 349 633 349 628 c 0,75,76
 349 611 349 611 366 604 c 0,77,78
 371 602 371 602 376.5 602 c 128,-1,79
 382 602 382 602 391 608 c 0,80,81
 406 617 406 617 406 635.5 c 128,-1,82
 406 654 406 654 390 660 c 0,70,71
EndSplineSet
Substitution2: "'salt' Stylistic Alternatives lookup 2 subtable" aring.alt
Substitution2: "'aalt' Access All Alternates lookup 0 subtable" aring.alt
EndChar

StartChar: ae
Encoding: 230 230 157
Width: 890
GlyphClass: 2
Flags: W
LayerCount: 2
Fore
SplineSet
721 5 m 128,-1,1
 679 -8 679 -8 621.5 -8 c 128,-1,2
 564 -8 564 -8 512.5 23 c 128,-1,3
 461 54 461 54 438 111 c 1,4,5
 401 66 401 66 340.5 29 c 128,-1,6
 280 -8 280 -8 207 -8 c 128,-1,7
 134 -8 134 -8 93.5 25 c 128,-1,8
 53 58 53 58 53 114 c 0,9,10
 53 204 53 204 131.5 247 c 128,-1,11
 210 290 210 290 345 290 c 2,12,-1
 429 290 l 1,13,-1
 431 303 l 2,14,15
 434 319 434 319 434 333 c 0,16,17
 434 427 434 427 318 427 c 0,18,19
 258 427 258 427 229 415.5 c 128,-1,20
 200 404 200 404 187.5 397 c 128,-1,21
 175 390 175 390 168.5 385.5 c 128,-1,22
 162 381 162 381 161 381 c 0,23,24
 150 377 150 377 146 384 c 2,25,-1
 123 419 l 2,26,27
 118 427 118 427 127 435.5 c 128,-1,28
 136 444 136 444 152.5 455.5 c 128,-1,29
 169 467 169 467 220 483 c 128,-1,30
 271 499 271 499 331 499 c 0,31,32
 473 499 473 499 501 404 c 1,33,34
 537 449 537 449 588.5 473.5 c 128,-1,35
 640 498 640 498 694 498 c 0,36,37
 787 498 787 498 837 444.5 c 128,-1,38
 887 391 887 391 887 296 c 0,39,40
 887 235 887 235 866 235 c 2,41,-1
 506 235 l 1,42,43
 505 222 505 222 505 210 c 0,44,45
 505 145 505 145 544 103.5 c 128,-1,46
 583 62 583 62 644 62 c 128,-1,47
 705 62 705 62 751.5 88 c 128,-1,48
 798 114 798 114 818 139 c 0,49,50
 827 150 827 150 836 142 c 1,51,-1
 859 115 l 1,52,53
 868 106 868 106 860.5 96 c 128,-1,54
 853 86 853 86 836.5 71 c 128,-1,55
 820 56 820 56 791.5 37 c 128,-1,0
 763 18 763 18 721 5 c 128,-1,1
419 167 m 1,56,57
 418 176 418 176 418 192 c 128,-1,58
 418 208 418 208 421 236 c 1,59,-1
 342 236 l 2,60,61
 141 236 141 236 141 134 c 0,62,63
 141 103 141 103 166 83 c 128,-1,64
 191 63 191 63 226 63 c 128,-1,65
 261 63 261 63 287 70.5 c 128,-1,66
 313 78 313 78 331.5 89 c 128,-1,67
 350 100 350 100 367 114 c 0,68,69
 389 131 389 131 412 158 c 1,70,-1
 419 167 l 1,56,57
807 308 m 0,71,72
 807 359 807 359 778.5 395.5 c 128,-1,73
 750 432 750 432 690.5 432 c 128,-1,74
 631 432 631 432 582.5 395.5 c 128,-1,75
 534 359 534 359 516 290 c 1,76,-1
 806 290 l 1,77,78
 807 299 807 299 807 308 c 0,71,72
EndSplineSet
EndChar

StartChar: ccedilla
Encoding: 231 231 158
Width: 539
GlyphClass: 2
Flags: W
LayerCount: 2
Fore
SplineSet
337 -133 m 128,-1,1
 310 -156 310 -156 270 -156 c 128,-1,2
 230 -156 230 -156 196 -133 c 0,3,4
 187 -126 187 -126 196 -117 c 2,5,-1
 208 -105 l 2,6,7
 217 -97 217 -97 224 -102 c 0,8,9
 240 -115 240 -115 267 -115 c 0,10,11
 315 -115 315 -115 315 -78 c 0,12,13
 315 -56 315 -56 269 -56 c 0,14,15
 245 -56 245 -56 252 -39 c 1,16,-1
 268 -6 l 1,17,18
 180 -1 180 -1 125 56.5 c 128,-1,19
 70 114 70 114 70 211 c 0,20,21
 70 342 70 342 154 420.5 c 128,-1,22
 238 499 238 499 345.5 499 c 128,-1,23
 453 499 453 499 495 425 c 1,24,-1
 496 425 l 1,25,-1
 503 480 l 2,26,27
 505 493 505 493 517 493 c 2,28,-1
 555 493 l 2,29,30
 568 493 568 493 566 480 c 2,31,-1
 542 310 l 2,32,33
 540 298 540 298 528 298 c 2,34,-1
 483 298 l 2,35,36
 470 298 470 298 472 310 c 2,37,-1
 474 327 l 2,38,39
 475 331 475 331 475 336 c 0,40,41
 475 367 475 367 441.5 398 c 128,-1,42
 408 429 408 429 342.5 429 c 128,-1,43
 277 429 277 429 216 372.5 c 128,-1,44
 155 316 155 316 155 221 c 0,45,46
 155 148 155 148 197 105.5 c 128,-1,47
 239 63 239 63 295 63 c 128,-1,48
 351 63 351 63 401 90.5 c 128,-1,49
 451 118 451 118 468 141 c 0,50,51
 477 152 477 152 486 144 c 1,52,-1
 510 116 l 2,53,54
 519 107 519 107 509 94.5 c 128,-1,55
 499 82 499 82 479.5 63.5 c 128,-1,56
 460 45 460 45 412.5 22 c 128,-1,57
 365 -1 365 -1 311 -5 c 1,58,-1
 302 -25 l 1,59,60
 364 -25 364 -25 364 -73 c 0,61,0
 364 -110 364 -110 337 -133 c 128,-1,1
EndSplineSet
EndChar

StartChar: egrave
Encoding: 232 232 159
Width: 538
GlyphClass: 2
Flags: W
LayerCount: 2
Fore
SplineSet
517 236 m 2,0,-1
 157 236 l 1,1,2
 156 223 156 223 156 210 c 0,3,4
 156 146 156 146 194.5 104.5 c 128,-1,5
 233 63 233 63 294 63 c 128,-1,6
 355 63 355 63 401.5 89 c 128,-1,7
 448 115 448 115 468 140 c 0,8,9
 477 150 477 150 486 143 c 1,10,-1
 510 116 l 2,11,12
 519 107 519 107 511 97 c 128,-1,13
 503 87 503 87 486.5 72 c 128,-1,14
 470 57 470 57 442 38 c 0,15,16
 374 -7 374 -7 282 -7 c 128,-1,17
 190 -7 190 -7 130 52 c 128,-1,18
 70 111 70 111 70 205 c 128,-1,19
 70 299 70 299 111.5 366.5 c 128,-1,20
 153 434 153 434 215 466.5 c 128,-1,21
 277 499 277 499 345 499 c 0,22,23
 436 499 436 499 486.5 445.5 c 128,-1,24
 537 392 537 392 537 297 c 0,25,26
 537 236 537 236 517 236 c 2,0,-1
458 314 m 0,27,28
 458 364 458 364 429 398.5 c 128,-1,29
 400 433 400 433 340 433 c 128,-1,30
 280 433 280 433 232.5 399 c 128,-1,31
 185 365 185 365 167 297 c 1,32,-1
 457 297 l 1,33,34
 458 306 458 306 458 314 c 0,27,28
427 575 m 2,35,36
 422 569 422 569 417 569 c 128,-1,37
 412 569 412 569 408 573 c 2,38,-1
 259 707 l 2,39,40
 255 711 255 711 255 715.5 c 128,-1,41
 255 720 255 720 261 726 c 2,42,-1
 297 763 l 2,43,44
 302 769 302 769 307 769 c 128,-1,45
 312 769 312 769 317 765 c 2,46,-1
 457 623 l 2,47,48
 462 618 462 618 462 613.5 c 128,-1,49
 462 609 462 609 457 604 c 2,50,-1
 427 575 l 2,35,36
EndSplineSet
EndChar

StartChar: eacute
Encoding: 233 233 160
Width: 538
GlyphClass: 2
Flags: W
LayerCount: 2
Fore
SplineSet
515 706 m 1,0,-1
 329 572 l 1,1,2
 316 565 316 565 309 575 c 2,3,-1
 289 604 l 1,4,5
 281 613 281 613 294 623 c 2,6,-1
 474 764 l 2,7,8
 479 768 479 768 483 768 c 1,9,-1
 494 763 l 1,10,-1
 519 725 l 1,11,12
 527 716 527 716 515 706 c 1,0,-1
517 236 m 2,13,-1
 157 236 l 1,14,15
 156 223 156 223 156 210 c 0,16,17
 156 146 156 146 194.5 104.5 c 128,-1,18
 233 63 233 63 294 63 c 128,-1,19
 355 63 355 63 401.5 89 c 128,-1,20
 448 115 448 115 468 140 c 0,21,22
 477 150 477 150 486 143 c 1,23,-1
 510 116 l 2,24,25
 519 107 519 107 511 97 c 128,-1,26
 503 87 503 87 486.5 72 c 128,-1,27
 470 57 470 57 442 38 c 0,28,29
 374 -7 374 -7 282 -7 c 128,-1,30
 190 -7 190 -7 130 52 c 128,-1,31
 70 111 70 111 70 205 c 128,-1,32
 70 299 70 299 111.5 366.5 c 128,-1,33
 153 434 153 434 215 466.5 c 128,-1,34
 277 499 277 499 345 499 c 0,35,36
 436 499 436 499 486.5 445.5 c 128,-1,37
 537 392 537 392 537 297 c 0,38,39
 537 236 537 236 517 236 c 2,13,-1
458 314 m 0,40,41
 458 364 458 364 429 398.5 c 128,-1,42
 400 433 400 433 340 433 c 128,-1,43
 280 433 280 433 232.5 399 c 128,-1,44
 185 365 185 365 167 297 c 1,45,-1
 457 297 l 1,46,47
 458 306 458 306 458 314 c 0,40,41
EndSplineSet
EndChar

StartChar: ecircumflex
Encoding: 234 234 161
Width: 538
GlyphClass: 2
Flags: W
LayerCount: 2
Fore
SplineSet
373 759 m 2,0,1
 378 763 378 763 383.5 763 c 128,-1,2
 389 763 389 763 393 758 c 2,3,-1
 528 623 l 2,4,5
 536 614 536 614 528 604 c 1,6,-1
 499 575 l 2,7,8
 489 565 489 565 480 573 c 2,9,-1
 371 678 l 1,10,-1
 234 573 l 2,11,12
 222 564 222 564 215 575 c 2,13,-1
 194 604 l 2,14,15
 187 614 187 614 199 623 c 2,16,-1
 373 759 l 2,0,1
517 236 m 2,17,-1
 157 236 l 1,18,19
 156 223 156 223 156 210 c 0,20,21
 156 146 156 146 194.5 104.5 c 128,-1,22
 233 63 233 63 294 63 c 128,-1,23
 355 63 355 63 401.5 89 c 128,-1,24
 448 115 448 115 468 140 c 0,25,26
 477 150 477 150 486 143 c 1,27,-1
 510 116 l 2,28,29
 519 107 519 107 511 97 c 128,-1,30
 503 87 503 87 486.5 72 c 128,-1,31
 470 57 470 57 442 38 c 0,32,33
 374 -7 374 -7 282 -7 c 128,-1,34
 190 -7 190 -7 130 52 c 128,-1,35
 70 111 70 111 70 205 c 128,-1,36
 70 299 70 299 111.5 366.5 c 128,-1,37
 153 434 153 434 215 466.5 c 128,-1,38
 277 499 277 499 345 499 c 0,39,40
 436 499 436 499 486.5 445.5 c 128,-1,41
 537 392 537 392 537 297 c 0,42,43
 537 236 537 236 517 236 c 2,17,-1
458 314 m 0,44,45
 458 364 458 364 429 398.5 c 128,-1,46
 400 433 400 433 340 433 c 128,-1,47
 280 433 280 433 232.5 399 c 128,-1,48
 185 365 185 365 167 297 c 1,49,-1
 457 297 l 1,50,51
 458 306 458 306 458 314 c 0,44,45
EndSplineSet
EndChar

StartChar: edieresis
Encoding: 235 235 162
Width: 538
GlyphClass: 2
Flags: W
LayerCount: 2
Fore
SplineSet
309.5 630 m 128,-1,1
 320 619 320 619 320 601.5 c 128,-1,2
 320 584 320 584 305.5 570 c 128,-1,3
 291 556 291 556 273 556 c 128,-1,4
 255 556 255 556 245 566 c 128,-1,5
 235 576 235 576 235 594 c 128,-1,6
 235 612 235 612 249.5 626.5 c 128,-1,7
 264 641 264 641 281.5 641 c 128,-1,0
 299 641 299 641 309.5 630 c 128,-1,1
467.5 630 m 128,-1,9
 478 619 478 619 478 601.5 c 128,-1,10
 478 584 478 584 463.5 570 c 128,-1,11
 449 556 449 556 431 556 c 128,-1,12
 413 556 413 556 403 566 c 128,-1,13
 393 576 393 576 393 594 c 128,-1,14
 393 612 393 612 407.5 626.5 c 128,-1,15
 422 641 422 641 439.5 641 c 128,-1,8
 457 641 457 641 467.5 630 c 128,-1,9
517 236 m 2,16,-1
 157 236 l 1,17,18
 156 223 156 223 156 210 c 0,19,20
 156 146 156 146 194.5 104.5 c 128,-1,21
 233 63 233 63 294 63 c 128,-1,22
 355 63 355 63 401.5 89 c 128,-1,23
 448 115 448 115 468 140 c 0,24,25
 477 150 477 150 486 143 c 1,26,-1
 510 116 l 2,27,28
 519 107 519 107 511 97 c 128,-1,29
 503 87 503 87 486.5 72 c 128,-1,30
 470 57 470 57 442 38 c 0,31,32
 374 -7 374 -7 282 -7 c 128,-1,33
 190 -7 190 -7 130 52 c 128,-1,34
 70 111 70 111 70 205 c 128,-1,35
 70 299 70 299 111.5 366.5 c 128,-1,36
 153 434 153 434 215 466.5 c 128,-1,37
 277 499 277 499 345 499 c 0,38,39
 436 499 436 499 486.5 445.5 c 128,-1,40
 537 392 537 392 537 297 c 0,41,42
 537 236 537 236 517 236 c 2,16,-1
458 314 m 0,43,44
 458 364 458 364 429 398.5 c 128,-1,45
 400 433 400 433 340 433 c 128,-1,46
 280 433 280 433 232.5 399 c 128,-1,47
 185 365 185 365 167 297 c 1,48,-1
 457 297 l 1,49,50
 458 306 458 306 458 314 c 0,43,44
EndSplineSet
EndChar

StartChar: igrave
Encoding: 236 236 163
Width: 293
GlyphClass: 2
Flags: W
LayerCount: 2
Fore
SplineSet
242 0 m 2,0,-1
 51 0 l 2,1,2
 38 0 38 0 40 12 c 2,3,-1
 47 55 l 2,4,5
 48 67 48 67 60 67 c 2,6,-1
 116 67 l 1,7,-1
 167 425 l 1,8,-1
 111 425 l 2,9,10
 98 425 98 425 100 437 c 2,11,-1
 106 480 l 2,12,13
 108 492 108 492 120 492 c 2,14,-1
 246 492 l 2,15,16
 258 492 258 492 257 480 c 2,17,-1
 199 67 l 1,18,-1
 252 67 l 2,19,20
 264 67 264 67 263 55 c 2,21,-1
 257 12 l 2,22,23
 256 0 256 0 242 0 c 2,0,-1
229 570 m 2,24,25
 224 564 224 564 219 564 c 128,-1,26
 214 564 214 564 210 568 c 2,27,-1
 61 702 l 2,28,29
 57 706 57 706 57 710.5 c 128,-1,30
 57 715 57 715 63 721 c 2,31,-1
 99 758 l 2,32,33
 104 764 104 764 109 764 c 128,-1,34
 114 764 114 764 119 760 c 2,35,-1
 259 618 l 2,36,37
 264 614 264 614 264 609 c 128,-1,38
 264 604 264 604 259 599 c 2,39,-1
 229 570 l 2,24,25
EndSplineSet
EndChar

StartChar: iacute
Encoding: 237 237 164
Width: 293
GlyphClass: 2
Flags: W
LayerCount: 2
Fore
SplineSet
242 0 m 2,0,-1
 51 0 l 2,1,2
 38 0 38 0 40 12 c 2,3,-1
 47 55 l 2,4,5
 48 67 48 67 60 67 c 2,6,-1
 116 67 l 1,7,-1
 167 425 l 1,8,-1
 111 425 l 2,9,10
 98 425 98 425 100 437 c 2,11,-1
 106 480 l 2,12,13
 108 492 108 492 120 492 c 2,14,-1
 246 492 l 2,15,16
 258 492 258 492 257 480 c 2,17,-1
 199 67 l 1,18,-1
 252 67 l 2,19,20
 264 67 264 67 263 55 c 2,21,-1
 257 12 l 2,22,23
 256 0 256 0 242 0 c 2,0,-1
222 572 m 2,24,25
 217 569 217 569 211.5 569 c 128,-1,26
 206 569 206 569 202 575 c 2,27,-1
 182 604 l 2,28,29
 179 607 179 607 179 612 c 128,-1,30
 179 617 179 617 187 623 c 2,31,-1
 367 764 l 2,32,33
 372 768 372 768 376 768 c 1,34,-1
 387 763 l 1,35,-1
 412 725 l 2,36,37
 415 721 415 721 415 716.5 c 128,-1,38
 415 712 415 712 408 706 c 2,39,-1
 222 572 l 2,24,25
EndSplineSet
EndChar

StartChar: icircumflex
Encoding: 238 238 165
Width: 293
GlyphClass: 2
Flags: W
LayerCount: 2
Fore
SplineSet
242 0 m 2,0,-1
 51 0 l 2,1,2
 38 0 38 0 40 12 c 2,3,-1
 47 55 l 2,4,5
 48 67 48 67 60 67 c 2,6,-1
 116 67 l 1,7,-1
 167 425 l 1,8,-1
 111 425 l 2,9,10
 98 425 98 425 100 437 c 2,11,-1
 106 480 l 2,12,13
 108 492 108 492 120 492 c 2,14,-1
 246 492 l 2,15,16
 258 492 258 492 257 480 c 2,17,-1
 199 67 l 1,18,-1
 252 67 l 2,19,20
 264 67 264 67 263 55 c 2,21,-1
 257 12 l 2,22,23
 256 0 256 0 242 0 c 2,0,-1
366 575 m 2,24,25
 360 569 360 569 355.5 569 c 128,-1,26
 351 569 351 569 347 573 c 2,27,-1
 238 678 l 1,28,-1
 101 573 l 2,29,30
 96 569 96 569 91 569 c 128,-1,31
 86 569 86 569 82 575 c 2,32,-1
 61 604 l 2,33,34
 58 608 58 608 58 612.5 c 128,-1,35
 58 617 58 617 66 623 c 2,36,-1
 240 759 l 2,37,38
 245 763 245 763 250.5 763 c 128,-1,39
 256 763 256 763 260 758 c 2,40,-1
 395 623 l 2,41,42
 399 618 399 618 399 613.5 c 128,-1,43
 399 609 399 609 395 604 c 2,44,-1
 366 575 l 2,24,25
EndSplineSet
EndChar

StartChar: idieresis
Encoding: 239 239 166
Width: 293
GlyphClass: 2
Flags: W
LayerCount: 2
Fore
SplineSet
242 0 m 2,0,-1
 51 0 l 2,1,2
 38 0 38 0 40 12 c 2,3,-1
 47 55 l 2,4,5
 48 67 48 67 60 67 c 2,6,-1
 116 67 l 1,7,-1
 167 425 l 1,8,-1
 111 425 l 2,9,10
 98 425 98 425 100 437 c 2,11,-1
 106 480 l 2,12,13
 108 492 108 492 120 492 c 2,14,-1
 246 492 l 2,15,16
 258 492 258 492 257 480 c 2,17,-1
 199 67 l 1,18,-1
 252 67 l 2,19,20
 264 67 264 67 263 55 c 2,21,-1
 257 12 l 2,22,23
 256 0 256 0 242 0 c 2,0,-1
190.5 630 m 128,-1,25
 201 619 201 619 201 601.5 c 128,-1,26
 201 584 201 584 186.5 570 c 128,-1,27
 172 556 172 556 154 556 c 128,-1,28
 136 556 136 556 126 566 c 128,-1,29
 116 576 116 576 116 594 c 128,-1,30
 116 612 116 612 130 626.5 c 128,-1,31
 144 641 144 641 162 641 c 128,-1,24
 180 641 180 641 190.5 630 c 128,-1,25
348.5 630 m 128,-1,33
 359 619 359 619 359 601.5 c 128,-1,34
 359 584 359 584 344.5 570 c 128,-1,35
 330 556 330 556 312 556 c 128,-1,36
 294 556 294 556 284 566 c 128,-1,37
 274 576 274 576 274 594 c 128,-1,38
 274 612 274 612 288 626.5 c 128,-1,39
 302 641 302 641 320 641 c 128,-1,32
 338 641 338 641 348.5 630 c 128,-1,33
EndSplineSet
EndChar

StartChar: eth
Encoding: 240 240 167
Width: 611
GlyphClass: 2
Flags: W
LayerCount: 2
Fore
SplineSet
376 645 m 0,0,1
 309 645 309 645 270 610.5 c 128,-1,2
 231 576 231 576 225 535 c 0,3,4
 224 523 224 523 211 523 c 2,5,-1
 151 523 l 2,6,7
 140 523 140 523 140 533 c 0,8,9
 140 612 140 612 209.5 668 c 128,-1,10
 279 724 279 724 387 724 c 0,11,12
 458 724 458 724 511 695 c 1,13,-1
 566 744 l 2,14,15
 571 748 571 748 575.5 748 c 128,-1,16
 580 748 580 748 585 744 c 1,17,-1
 601 723 l 1,18,19
 610 714 610 714 599 704 c 2,20,-1
 553 664 l 1,21,22
 629 595 629 595 629 429 c 0,23,24
 629 238 629 238 540 115.5 c 128,-1,25
 451 -7 451 -7 298 -7 c 0,26,27
 191 -7 191 -7 129.5 51 c 128,-1,28
 68 109 68 109 68 201 c 0,29,30
 68 316 68 316 142.5 389 c 128,-1,31
 217 462 217 462 350 462 c 0,32,33
 461 462 461 462 535 411 c 1,34,35
 536 428 536 428 536 445 c 0,36,37
 536 556 536 556 482 602 c 1,38,-1
 427 553 l 1,39,40
 416 545 416 545 408 553 c 1,41,-1
 391 574 l 2,42,43
 383 584 383 584 394 593 c 2,44,-1
 440 633 l 1,45,46
 407 645 407 645 376 645 c 0,0,1
529 339 m 1,47,48
 455 394 455 394 361.5 394 c 128,-1,49
 268 394 268 394 214 343.5 c 128,-1,50
 160 293 160 293 160 213 c 0,51,52
 160 151 160 151 199.5 112.5 c 128,-1,53
 239 74 239 74 317 74 c 128,-1,54
 395 74 395 74 452 143 c 128,-1,55
 509 212 509 212 529 339 c 1,47,48
EndSplineSet
EndChar

StartChar: ntilde
Encoding: 241 241 168
Width: 621
GlyphClass: 2
Flags: W
LayerCount: 2
Fore
SplineSet
570 0 m 2,0,-1
 475 0 l 2,1,2
 437 0 437 0 437 31 c 0,3,4
 437 36 437 36 438 42 c 2,5,-1
 474 305 l 2,6,7
 476 320 476 320 476 333 c 0,8,9
 476 370 476 370 459 394 c 0,10,11
 436 427 436 427 386 427 c 0,12,13
 352 427 352 427 321 406.5 c 128,-1,14
 290 386 290 386 271 356 c 0,15,16
 241 311 241 311 228 277 c 1,17,-1
 199 67 l 1,18,-1
 252 67 l 2,19,20
 264 67 264 67 263 55 c 2,21,-1
 257 12 l 2,22,23
 256 0 256 0 242 0 c 2,24,-1
 51 0 l 2,25,26
 38 0 38 0 40 12 c 2,27,-1
 47 55 l 2,28,29
 48 67 48 67 60 67 c 2,30,-1
 116 67 l 1,31,-1
 167 425 l 1,32,-1
 111 425 l 2,33,34
 98 425 98 425 100 437 c 2,35,-1
 106 480 l 2,36,37
 108 492 108 492 120 492 c 2,38,-1
 238 492 l 2,39,40
 250 492 250 492 248 480 c 2,41,-1
 230 360 l 1,42,-1
 233 360 l 1,43,44
 235 374 235 374 252 403 c 128,-1,45
 269 432 269 432 287.5 450.5 c 128,-1,46
 306 469 306 469 339.5 484 c 128,-1,47
 373 499 373 499 414 499 c 0,48,49
 494 499 494 499 532 452 c 0,50,51
 562 415 562 415 562 359 c 0,52,53
 562 343 562 343 560 325 c 2,54,-1
 524 67 l 1,55,-1
 580 67 l 2,56,57
 592 67 592 67 591 55 c 2,58,-1
 585 12 l 2,59,60
 584 0 584 0 570 0 c 2,0,-1
526 684 m 2,61,-1
 550 684 l 2,62,63
 560 684 560 684 560 675 c 0,64,65
 560 626 560 626 533.5 592.5 c 128,-1,66
 507 559 507 559 457 559 c 0,67,68
 432 559 432 559 412 569 c 128,-1,69
 392 579 392 579 382 590 c 0,70,71
 353 622 353 622 330 622 c 128,-1,72
 307 622 307 622 295 609.5 c 128,-1,73
 283 597 283 597 279 565 c 0,74,75
 278 553 278 553 265 553 c 2,76,-1
 242 553 l 2,77,78
 231 553 231 553 231 563 c 0,79,80
 231 608 231 608 256.5 640.5 c 128,-1,81
 282 673 282 673 332 673 c 0,82,83
 355 673 355 673 374.5 662.5 c 128,-1,84
 394 652 394 652 404 640 c 0,85,86
 433 607 433 607 458.5 607 c 128,-1,87
 484 607 484 607 495.5 621 c 128,-1,88
 507 635 507 635 512 672 c 0,89,90
 514 684 514 684 526 684 c 2,61,-1
EndSplineSet
EndChar

StartChar: ograve
Encoding: 242 242 169
Width: 575
GlyphClass: 2
Flags: W
LayerCount: 2
Fore
SplineSet
286 -7 m 0,0,1
 190 -7 190 -7 130 52.5 c 128,-1,2
 70 112 70 112 70 212 c 0,3,4
 70 341 70 341 154.5 420 c 128,-1,5
 239 499 239 499 358 499 c 0,6,7
 454 499 454 499 514 440.5 c 128,-1,8
 574 382 574 382 574 283 c 0,9,10
 574 155 574 155 491 74 c 128,-1,11
 408 -7 408 -7 286 -7 c 0,0,1
194.5 106 m 128,-1,13
 235 63 235 63 303.5 63 c 128,-1,14
 372 63 372 63 431 122.5 c 128,-1,15
 490 182 490 182 490 274 c 0,16,17
 490 344 490 344 449 386.5 c 128,-1,18
 408 429 408 429 348 429 c 0,19,20
 272 429 272 429 213 370.5 c 128,-1,21
 154 312 154 312 154 220 c 0,22,12
 154 149 154 149 194.5 106 c 128,-1,13
407 575 m 2,23,24
 402 569 402 569 397 569 c 128,-1,25
 392 569 392 569 388 573 c 2,26,-1
 239 707 l 2,27,28
 235 711 235 711 235 715.5 c 128,-1,29
 235 720 235 720 241 726 c 2,30,-1
 277 763 l 2,31,32
 282 769 282 769 287 769 c 128,-1,33
 292 769 292 769 297 765 c 2,34,-1
 437 623 l 2,35,36
 442 618 442 618 442 613.5 c 128,-1,37
 442 609 442 609 437 604 c 2,38,-1
 407 575 l 2,23,24
EndSplineSet
EndChar

StartChar: oacute
Encoding: 243 243 170
Width: 575
GlyphClass: 2
Flags: W
LayerCount: 2
Fore
SplineSet
529 706 m 1,0,-1
 343 572 l 1,1,2
 330 565 330 565 323 575 c 2,3,-1
 303 604 l 1,4,5
 295 613 295 613 308 623 c 2,6,-1
 488 764 l 2,7,8
 493 768 493 768 497 768 c 1,9,-1
 508 763 l 1,10,-1
 533 725 l 1,11,12
 541 716 541 716 529 706 c 1,0,-1
286 -7 m 0,13,14
 190 -7 190 -7 130 52.5 c 128,-1,15
 70 112 70 112 70 212 c 0,16,17
 70 341 70 341 154.5 420 c 128,-1,18
 239 499 239 499 358 499 c 0,19,20
 454 499 454 499 514 440.5 c 128,-1,21
 574 382 574 382 574 283 c 0,22,23
 574 155 574 155 491 74 c 128,-1,24
 408 -7 408 -7 286 -7 c 0,13,14
194.5 106 m 128,-1,26
 235 63 235 63 303.5 63 c 128,-1,27
 372 63 372 63 431 122.5 c 128,-1,28
 490 182 490 182 490 274 c 0,29,30
 490 344 490 344 449 386.5 c 128,-1,31
 408 429 408 429 348 429 c 0,32,33
 272 429 272 429 213 370.5 c 128,-1,34
 154 312 154 312 154 220 c 0,35,25
 154 149 154 149 194.5 106 c 128,-1,26
EndSplineSet
EndChar

StartChar: ocircumflex
Encoding: 244 244 171
Width: 575
GlyphClass: 2
Flags: W
LayerCount: 2
Fore
SplineSet
390 759 m 2,0,1
 395 763 395 763 400.5 763 c 128,-1,2
 406 763 406 763 410 758 c 2,3,-1
 545 623 l 2,4,5
 553 614 553 614 545 604 c 1,6,-1
 516 575 l 2,7,8
 506 565 506 565 497 573 c 2,9,-1
 388 678 l 1,10,-1
 251 573 l 2,11,12
 239 564 239 564 232 575 c 2,13,-1
 211 604 l 2,14,15
 204 614 204 614 216 623 c 2,16,-1
 390 759 l 2,0,1
286 -7 m 0,17,18
 190 -7 190 -7 130 52.5 c 128,-1,19
 70 112 70 112 70 212 c 0,20,21
 70 341 70 341 154.5 420 c 128,-1,22
 239 499 239 499 358 499 c 0,23,24
 454 499 454 499 514 440.5 c 128,-1,25
 574 382 574 382 574 283 c 0,26,27
 574 155 574 155 491 74 c 128,-1,28
 408 -7 408 -7 286 -7 c 0,17,18
194.5 106 m 128,-1,30
 235 63 235 63 303.5 63 c 128,-1,31
 372 63 372 63 431 122.5 c 128,-1,32
 490 182 490 182 490 274 c 0,33,34
 490 344 490 344 449 386.5 c 128,-1,35
 408 429 408 429 348 429 c 0,36,37
 272 429 272 429 213 370.5 c 128,-1,38
 154 312 154 312 154 220 c 0,39,29
 154 149 154 149 194.5 106 c 128,-1,30
EndSplineSet
EndChar

StartChar: otilde
Encoding: 245 245 172
Width: 575
GlyphClass: 2
Flags: W
LayerCount: 2
Fore
SplineSet
286 -7 m 0,0,1
 190 -7 190 -7 130 52.5 c 128,-1,2
 70 112 70 112 70 212 c 0,3,4
 70 341 70 341 154.5 420 c 128,-1,5
 239 499 239 499 358 499 c 0,6,7
 454 499 454 499 514 440.5 c 128,-1,8
 574 382 574 382 574 283 c 0,9,10
 574 155 574 155 491 74 c 128,-1,11
 408 -7 408 -7 286 -7 c 0,0,1
194.5 106 m 128,-1,13
 235 63 235 63 303.5 63 c 128,-1,14
 372 63 372 63 431 122.5 c 128,-1,15
 490 182 490 182 490 274 c 0,16,17
 490 344 490 344 449 386.5 c 128,-1,18
 408 429 408 429 348 429 c 0,19,20
 272 429 272 429 213 370.5 c 128,-1,21
 154 312 154 312 154 220 c 0,22,12
 154 149 154 149 194.5 106 c 128,-1,13
513 684 m 2,23,-1
 537 684 l 2,24,25
 547 684 547 684 547 675 c 0,26,27
 547 626 547 626 520.5 592.5 c 128,-1,28
 494 559 494 559 444 559 c 0,29,30
 419 559 419 559 399 569 c 128,-1,31
 379 579 379 579 368 590 c 1,32,33
 340 622 340 622 317 622 c 128,-1,34
 294 622 294 622 282 609.5 c 128,-1,35
 270 597 270 597 266 565 c 0,36,37
 264 553 264 553 252 553 c 2,38,-1
 229 553 l 2,39,40
 218 553 218 553 218 563 c 0,41,42
 218 608 218 608 243.5 640.5 c 128,-1,43
 269 673 269 673 319 673 c 0,44,45
 342 673 342 673 361.5 662.5 c 128,-1,46
 381 652 381 652 392 640 c 0,47,48
 420 607 420 607 446 607 c 128,-1,49
 472 607 472 607 483 621 c 128,-1,50
 494 635 494 635 499 672 c 0,51,52
 500 684 500 684 513 684 c 2,23,-1
EndSplineSet
EndChar

StartChar: odieresis
Encoding: 246 246 173
Width: 575
GlyphClass: 2
Flags: W
LayerCount: 2
Fore
SplineSet
326.5 630 m 128,-1,1
 337 619 337 619 337 601.5 c 128,-1,2
 337 584 337 584 322.5 570 c 128,-1,3
 308 556 308 556 290 556 c 128,-1,4
 272 556 272 556 262 566 c 128,-1,5
 252 576 252 576 252 594 c 128,-1,6
 252 612 252 612 266 626.5 c 128,-1,7
 280 641 280 641 298 641 c 128,-1,0
 316 641 316 641 326.5 630 c 128,-1,1
484.5 630 m 128,-1,9
 495 619 495 619 495 601.5 c 128,-1,10
 495 584 495 584 480.5 570 c 128,-1,11
 466 556 466 556 448 556 c 128,-1,12
 430 556 430 556 420 566 c 128,-1,13
 410 576 410 576 410 594 c 128,-1,14
 410 612 410 612 424 626.5 c 128,-1,15
 438 641 438 641 456 641 c 128,-1,8
 474 641 474 641 484.5 630 c 128,-1,9
286 -7 m 0,16,17
 190 -7 190 -7 130 52.5 c 128,-1,18
 70 112 70 112 70 212 c 0,19,20
 70 341 70 341 154.5 420 c 128,-1,21
 239 499 239 499 358 499 c 0,22,23
 454 499 454 499 514 440.5 c 128,-1,24
 574 382 574 382 574 283 c 0,25,26
 574 155 574 155 491 74 c 128,-1,27
 408 -7 408 -7 286 -7 c 0,16,17
194.5 106 m 128,-1,29
 235 63 235 63 303.5 63 c 128,-1,30
 372 63 372 63 431 122.5 c 128,-1,31
 490 182 490 182 490 274 c 0,32,33
 490 344 490 344 449 386.5 c 128,-1,34
 408 429 408 429 348 429 c 0,35,36
 272 429 272 429 213 370.5 c 128,-1,37
 154 312 154 312 154 220 c 0,38,28
 154 149 154 149 194.5 106 c 128,-1,29
EndSplineSet
EndChar

StartChar: divide
Encoding: 247 247 174
Width: 414
GlyphClass: 2
Flags: W
LayerCount: 2
Fore
SplineSet
393 221 m 2,0,-1
 82 221 l 2,1,2
 69 221 69 221 71 234 c 2,3,-1
 78 285 l 2,4,5
 80 298 80 298 93 298 c 2,6,-1
 404 298 l 2,7,8
 418 298 418 298 416 285 c 2,9,-1
 409 234 l 2,10,11
 407 221 407 221 393 221 c 2,0,-1
259 169.5 m 128,-1,13
 269 159 269 159 269 141.5 c 128,-1,14
 269 124 269 124 255 110.5 c 128,-1,15
 241 97 241 97 223.5 97 c 128,-1,16
 206 97 206 97 195.5 107.5 c 128,-1,17
 185 118 185 118 185 135.5 c 128,-1,18
 185 153 185 153 199.5 166.5 c 128,-1,19
 214 180 214 180 231.5 180 c 128,-1,12
 249 180 249 180 259 169.5 c 128,-1,13
294 417.5 m 128,-1,21
 304 407 304 407 304 390 c 128,-1,22
 304 373 304 373 289.5 359 c 128,-1,23
 275 345 275 345 257.5 345 c 128,-1,24
 240 345 240 345 230 355.5 c 128,-1,25
 220 366 220 366 220 383.5 c 128,-1,26
 220 401 220 401 234 414.5 c 128,-1,27
 248 428 248 428 266 428 c 128,-1,20
 284 428 284 428 294 417.5 c 128,-1,21
EndSplineSet
EndChar

StartChar: oslash
Encoding: 248 248 175
Width: 575
GlyphClass: 2
Flags: W
LayerCount: 2
Fore
SplineSet
173 -29 m 2,0,-1
 131 -29 l 2,1,2
 117 -29 117 -29 124 -17 c 2,3,-1
 154 30 l 1,4,5
 114 56 114 56 92 103.5 c 128,-1,6
 70 151 70 151 70 211 c 0,7,8
 70 341 70 341 154.5 420 c 128,-1,9
 239 499 239 499 358 499 c 0,10,11
 405 499 405 499 447 482 c 1,12,-1
 456 497 l 1,13,14
 461 510 461 510 475 510 c 2,15,-1
 517 510 l 2,16,17
 530 510 530 510 523 497 c 1,18,-1
 497 457 l 1,19,20
 574 399 574 399 574 277 c 128,-1,21
 574 155 574 155 491 74 c 128,-1,22
 408 -7 408 -7 286 -7 c 0,23,24
 245 -7 245 -7 206 6 c 1,25,-1
 191 -17 l 2,26,27
 182 -29 182 -29 173 -29 c 2,0,-1
348 429 m 0,28,29
 272 429 272 429 213 370.5 c 128,-1,30
 154 312 154 312 154 227 c 128,-1,31
 154 142 154 142 201 103 c 1,32,-1
 404 416 l 1,33,34
 376 429 376 429 348 429 c 0,28,29
298 63 m 0,35,36
 375 63 375 63 432.5 122 c 128,-1,37
 490 181 490 181 490 273 c 0,38,39
 490 343 490 343 450 383 c 1,40,-1
 249 73 l 1,41,42
 270 63 270 63 298 63 c 0,35,36
EndSplineSet
EndChar

StartChar: ugrave
Encoding: 249 249 176
Width: 608
GlyphClass: 2
Flags: W
LayerCount: 2
Fore
SplineSet
202 492 m 2,0,1
 241 492 241 492 241 460 c 0,2,3
 241 456 241 456 240 450 c 2,4,-1
 202 187 l 2,5,6
 200 173 200 173 200 160 c 0,7,8
 200 122 200 122 218 98 c 1,9,10
 241 65 241 65 291 65 c 0,11,12
 322 65 322 65 350 81 c 128,-1,13
 378 97 378 97 395.5 119 c 128,-1,14
 413 141 413 141 426 164 c 0,15,16
 450 208 450 208 450 220 c 1,17,-1
 478 425 l 1,18,-1
 425 425 l 2,19,20
 412 425 412 425 414 437 c 2,21,-1
 421 480 l 2,22,23
 422 492 422 492 434 492 c 2,24,-1
 558 492 l 2,25,26
 570 492 570 492 569 480 c 2,27,-1
 511 67 l 1,28,-1
 567 67 l 2,29,30
 578 67 578 67 577 55 c 2,31,-1
 571 12 l 2,32,33
 570 0 570 0 557 0 c 2,34,-1
 470 0 l 2,35,36
 431 0 431 0 431 32 c 0,37,38
 431 36 431 36 432 42 c 2,39,-1
 447 133 l 1,40,-1
 444 133 l 1,41,42
 441 118 441 118 425 89 c 128,-1,43
 409 60 409 60 391 41.5 c 128,-1,44
 373 23 373 23 340 8 c 128,-1,45
 307 -7 307 -7 267 -7 c 0,46,47
 187 -7 187 -7 147 40 c 1,48,49
 116 78 116 78 116 134 c 0,50,51
 116 150 116 150 118 167 c 2,52,-1
 153 425 l 1,53,-1
 97 425 l 2,54,55
 84 425 84 425 86 437 c 2,56,-1
 93 480 l 2,57,58
 94 492 94 492 106 492 c 2,59,-1
 202 492 l 2,0,1
411 575 m 2,60,61
 406 569 406 569 401 569 c 128,-1,62
 396 569 396 569 392 573 c 2,63,-1
 243 707 l 2,64,65
 239 711 239 711 239 715.5 c 128,-1,66
 239 720 239 720 245 726 c 2,67,-1
 281 763 l 2,68,69
 286 769 286 769 291 769 c 128,-1,70
 296 769 296 769 301 765 c 2,71,-1
 441 623 l 2,72,73
 446 618 446 618 446 613.5 c 128,-1,74
 446 609 446 609 441 604 c 2,75,-1
 411 575 l 2,60,61
EndSplineSet
EndChar

StartChar: uacute
Encoding: 250 250 177
Width: 608
GlyphClass: 2
Flags: W
LayerCount: 2
Fore
SplineSet
495 706 m 1,0,-1
 309 572 l 1,1,2
 296 565 296 565 289 575 c 2,3,-1
 269 604 l 1,4,5
 261 613 261 613 274 623 c 2,6,-1
 454 764 l 2,7,8
 459 768 459 768 463 768 c 1,9,-1
 474 763 l 1,10,-1
 499 725 l 1,11,12
 507 716 507 716 495 706 c 1,0,-1
202 492 m 2,13,14
 241 492 241 492 241 460 c 0,15,16
 241 456 241 456 240 450 c 2,17,-1
 202 187 l 2,18,19
 200 173 200 173 200 160 c 0,20,21
 200 122 200 122 218 98 c 1,22,23
 241 65 241 65 291 65 c 0,24,25
 322 65 322 65 350 81 c 128,-1,26
 378 97 378 97 395.5 119 c 128,-1,27
 413 141 413 141 426 164 c 0,28,29
 450 208 450 208 450 220 c 1,30,-1
 478 425 l 1,31,-1
 425 425 l 2,32,33
 412 425 412 425 414 437 c 2,34,-1
 421 480 l 2,35,36
 422 492 422 492 434 492 c 2,37,-1
 558 492 l 2,38,39
 570 492 570 492 569 480 c 2,40,-1
 511 67 l 1,41,-1
 567 67 l 2,42,43
 578 67 578 67 577 55 c 2,44,-1
 571 12 l 2,45,46
 570 0 570 0 557 0 c 2,47,-1
 470 0 l 2,48,49
 431 0 431 0 431 32 c 0,50,51
 431 36 431 36 432 42 c 2,52,-1
 447 133 l 1,53,-1
 444 133 l 1,54,55
 441 118 441 118 425 89 c 128,-1,56
 409 60 409 60 391 41.5 c 128,-1,57
 373 23 373 23 340 8 c 128,-1,58
 307 -7 307 -7 267 -7 c 0,59,60
 187 -7 187 -7 147 40 c 1,61,62
 116 78 116 78 116 134 c 0,63,64
 116 150 116 150 118 167 c 2,65,-1
 153 425 l 1,66,-1
 97 425 l 2,67,68
 84 425 84 425 86 437 c 2,69,-1
 93 480 l 2,70,71
 94 492 94 492 106 492 c 2,72,-1
 202 492 l 2,13,14
EndSplineSet
EndChar

